G04*
G04 #@! TF.GenerationSoftware,Altium Limited,Altium Designer,19.0.15 (446)*
G04*
G04 Layer_Physical_Order=2*
G04 Layer_Color=16711680*
%FSLAX44Y44*%
%MOMM*%
G71*
G01*
G75*
%ADD14C,0.5000*%
%ADD16R,0.7000X1.3000*%
%ADD23R,1.3800X0.9200*%
%ADD24R,0.9000X1.3000*%
%ADD48C,0.3000*%
%ADD49C,3.0500*%
%ADD50O,1.4000X2.0000*%
%ADD51R,1.5000X2.0000*%
%ADD52C,2.0500*%
%ADD53R,2.0000X1.6000*%
%ADD54C,2.2860*%
%ADD55O,1.5000X2.5000*%
%ADD56R,1.5000X2.5000*%
%ADD57O,2.5000X1.5000*%
%ADD58R,2.0000X2.0000*%
%ADD59C,2.0000*%
G04:AMPARAMS|DCode=60|XSize=2.5mm|YSize=1.2mm|CornerRadius=0mm|HoleSize=0mm|Usage=FLASHONLY|Rotation=45.000|XOffset=0mm|YOffset=0mm|HoleType=Round|Shape=Round|*
%AMOVALD60*
21,1,1.3000,1.2000,0.0000,0.0000,45.0*
1,1,1.2000,-0.4596,-0.4596*
1,1,1.2000,0.4596,0.4596*
%
%ADD60OVALD60*%

G04:AMPARAMS|DCode=61|XSize=2.5mm|YSize=1.2mm|CornerRadius=0mm|HoleSize=0mm|Usage=FLASHONLY|Rotation=45.000|XOffset=0mm|YOffset=0mm|HoleType=Round|Shape=Rectangle|*
%AMROTATEDRECTD61*
4,1,4,-0.4596,-1.3082,-1.3082,-0.4596,0.4596,1.3082,1.3082,0.4596,-0.4596,-1.3082,0.0*
%
%ADD61ROTATEDRECTD61*%

%ADD62C,0.6000*%
%ADD63R,1.5000X1.5000*%
%ADD64R,6.8326X6.5000*%
%ADD65R,1.8970X5.7038*%
%ADD66R,0.9200X1.3800*%
%ADD67R,1.3000X0.9000*%
%ADD68R,1.3500X1.0000*%
G04:AMPARAMS|DCode=69|XSize=0.9mm|YSize=1.3mm|CornerRadius=0mm|HoleSize=0mm|Usage=FLASHONLY|Rotation=225.000|XOffset=0mm|YOffset=0mm|HoleType=Round|Shape=Rectangle|*
%AMROTATEDRECTD69*
4,1,4,-0.1414,0.7778,0.7778,-0.1414,0.1414,-0.7778,-0.7778,0.1414,-0.1414,0.7778,0.0*
%
%ADD69ROTATEDRECTD69*%

%ADD70R,2.1500X1.7000*%
%ADD71R,3.5000X5.4000*%
%ADD72R,11.0000X11.3000*%
%ADD73R,1.2500X3.0000*%
%ADD74R,4.9500X1.9500*%
G04:AMPARAMS|DCode=75|XSize=0.69mm|YSize=1.57mm|CornerRadius=0mm|HoleSize=0mm|Usage=FLASHONLY|Rotation=110.000|XOffset=0mm|YOffset=0mm|HoleType=Round|Shape=Rectangle|*
%AMROTATEDRECTD75*
4,1,4,0.8557,-0.0557,-0.6197,-0.5927,-0.8557,0.0557,0.6197,0.5927,0.8557,-0.0557,0.0*
%
%ADD75ROTATEDRECTD75*%

G04:AMPARAMS|DCode=76|XSize=0.69mm|YSize=1.57mm|CornerRadius=0mm|HoleSize=0mm|Usage=FLASHONLY|Rotation=130.000|XOffset=0mm|YOffset=0mm|HoleType=Round|Shape=Rectangle|*
%AMROTATEDRECTD76*
4,1,4,0.8231,0.2403,-0.3796,-0.7689,-0.8231,-0.2403,0.3796,0.7689,0.8231,0.2403,0.0*
%
%ADD76ROTATEDRECTD76*%

G04:AMPARAMS|DCode=77|XSize=0.55mm|YSize=1.4mm|CornerRadius=0mm|HoleSize=0mm|Usage=FLASHONLY|Rotation=45.000|XOffset=0mm|YOffset=0mm|HoleType=Round|Shape=Round|*
%AMOVALD77*
21,1,0.8500,0.5500,0.0000,0.0000,135.0*
1,1,0.5500,0.3005,-0.3005*
1,1,0.5500,-0.3005,0.3005*
%
%ADD77OVALD77*%

G04:AMPARAMS|DCode=78|XSize=0.55mm|YSize=1.4mm|CornerRadius=0mm|HoleSize=0mm|Usage=FLASHONLY|Rotation=135.000|XOffset=0mm|YOffset=0mm|HoleType=Round|Shape=Round|*
%AMOVALD78*
21,1,0.8500,0.5500,0.0000,0.0000,225.0*
1,1,0.5500,0.3005,0.3005*
1,1,0.5500,-0.3005,-0.3005*
%
%ADD78OVALD78*%

G04:AMPARAMS|DCode=79|XSize=0.69mm|YSize=1.57mm|CornerRadius=0mm|HoleSize=0mm|Usage=FLASHONLY|Rotation=50.000|XOffset=0mm|YOffset=0mm|HoleType=Round|Shape=Rectangle|*
%AMROTATEDRECTD79*
4,1,4,0.3796,-0.7689,-0.8231,0.2403,-0.3796,0.7689,0.8231,-0.2403,0.3796,-0.7689,0.0*
%
%ADD79ROTATEDRECTD79*%

%ADD80R,1.5500X1.0000*%
G04:AMPARAMS|DCode=81|XSize=0.69mm|YSize=1.57mm|CornerRadius=0mm|HoleSize=0mm|Usage=FLASHONLY|Rotation=70.000|XOffset=0mm|YOffset=0mm|HoleType=Round|Shape=Rectangle|*
%AMROTATEDRECTD81*
4,1,4,0.6197,-0.5927,-0.8557,-0.0557,-0.6197,0.5927,0.8557,0.0557,0.6197,-0.5927,0.0*
%
%ADD81ROTATEDRECTD81*%

%ADD82R,1.5700X0.6900*%
%ADD83R,1.5000X0.4000*%
%ADD84R,1.0000X1.5500*%
G36*
X2099000Y417000D02*
X2178000D01*
Y328000D01*
X2129000D01*
Y342000D01*
X2147000D01*
Y362000D01*
X2099000D01*
Y342000D01*
X2052000D01*
Y283039D01*
X2035039D01*
Y339000D01*
X2035000Y339197D01*
Y343154D01*
X1957000Y343154D01*
X1957000Y309000D01*
X1944000D01*
Y348742D01*
X1980000D01*
Y461000D01*
X1620000D01*
X1611000Y452000D01*
Y378000D01*
X1584000D01*
Y373000D01*
X1557000D01*
Y391000D01*
X1587000D01*
Y442000D01*
X1576000D01*
Y463000D01*
X1609000Y496000D01*
X1775116D01*
X1775199Y494730D01*
X1773362Y494488D01*
X1770383Y493254D01*
X1767824Y491290D01*
X1765860Y488731D01*
X1764626Y485751D01*
X1764205Y482553D01*
X1764626Y479356D01*
X1765860Y476376D01*
X1767824Y473817D01*
X1770383Y471853D01*
X1773362Y470619D01*
X1776560Y470198D01*
X1779758Y470619D01*
X1782738Y471853D01*
X1785297Y473817D01*
X1787261Y476376D01*
X1788495Y479356D01*
X1788916Y482553D01*
X1788495Y485751D01*
X1787261Y488731D01*
X1785297Y491290D01*
X1782738Y493254D01*
X1779758Y494488D01*
X1777921Y494730D01*
X1778005Y496000D01*
X1925116D01*
X1925199Y494730D01*
X1923362Y494488D01*
X1920383Y493254D01*
X1917824Y491290D01*
X1915860Y488731D01*
X1914626Y485751D01*
X1914205Y482553D01*
X1914626Y479356D01*
X1915860Y476376D01*
X1917824Y473817D01*
X1920383Y471853D01*
X1923362Y470619D01*
X1926560Y470198D01*
X1929758Y470619D01*
X1932738Y471853D01*
X1935297Y473817D01*
X1937261Y476376D01*
X1938495Y479356D01*
X1938916Y482553D01*
X1938495Y485751D01*
X1937261Y488731D01*
X1935297Y491290D01*
X1932738Y493254D01*
X1929758Y494488D01*
X1927921Y494730D01*
X1928005Y496000D01*
X2099000D01*
Y417000D01*
D02*
G37*
G36*
X2168000Y475000D02*
Y420000D01*
X2106000D01*
Y487000D01*
X2156000D01*
X2168000Y475000D01*
D02*
G37*
G36*
X1894000Y331000D02*
X1830000D01*
Y411000D01*
X1825963D01*
X1824736Y411244D01*
X1823510Y411000D01*
X1820000D01*
X1820000Y409000D01*
Y407966D01*
X1819638Y406146D01*
X1820000Y404326D01*
X1820000Y267000D01*
X1748197Y267000D01*
X1748000Y267039D01*
X1725676Y267039D01*
Y277961D01*
X1742000D01*
X1742197Y278000D01*
X1745000D01*
Y290000D01*
X1763522D01*
Y306000D01*
X1761197D01*
X1761000Y306039D01*
X1725000D01*
X1724803Y306000D01*
X1723000D01*
Y304197D01*
X1722961Y304000D01*
X1722961Y294000D01*
X1697990Y294000D01*
Y319000D01*
X1672000Y319000D01*
Y402000D01*
X1751000D01*
Y409000D01*
X1765000Y423000D01*
X1894000D01*
Y331000D01*
D02*
G37*
G36*
X2123000Y329000D02*
X2095000D01*
Y298000D01*
X2071000D01*
Y339197D01*
X2106000D01*
Y341000D01*
X2123000D01*
Y329000D01*
D02*
G37*
G36*
X2147000Y295000D02*
X2108000D01*
Y318000D01*
X2147000D01*
Y295000D01*
D02*
G37*
G36*
X1761000Y292963D02*
X1742383D01*
X1742000Y293039D01*
X1725000D01*
X1725000Y304000D01*
X1761000D01*
Y292963D01*
D02*
G37*
G36*
X1974000Y339197D02*
X1973961Y339000D01*
Y291000D01*
X1963000D01*
Y341000D01*
X1974000D01*
Y339197D01*
D02*
G37*
G36*
X1684000Y287000D02*
X1652524D01*
Y290961D01*
X1669000D01*
X1669197Y291000D01*
X1671000D01*
Y292803D01*
X1671039Y293000D01*
Y299000D01*
X1684000D01*
Y287000D01*
D02*
G37*
G36*
X2067000Y283039D02*
X2055000D01*
Y331000D01*
X2067000D01*
Y283039D01*
D02*
G37*
G36*
X1669000Y319000D02*
X1650000D01*
Y304000D01*
X1669000D01*
Y293000D01*
X1650000D01*
Y272000D01*
X1650818D01*
Y271850D01*
X1669000D01*
Y266954D01*
X1650000D01*
Y261000D01*
X1629926D01*
X1621000Y269926D01*
Y316000D01*
X1628000Y323000D01*
X1669000D01*
Y319000D01*
D02*
G37*
G36*
X1977000Y384048D02*
X1939544D01*
X1939544Y306000D01*
X1956000D01*
Y248000D01*
X1898000D01*
Y235000D01*
X1830000D01*
Y328000D01*
X1897000D01*
Y426000D01*
X1764000Y426000D01*
X1748000Y410000D01*
X1748000Y405000D01*
X1669000D01*
Y326000D01*
X1627000Y326000D01*
X1618000Y317000D01*
X1618000Y269000D01*
X1629000Y258000D01*
X1652524D01*
X1652524Y264915D01*
X1669000D01*
Y255000D01*
X1568248D01*
X1557000Y266248D01*
Y320000D01*
X1587000D01*
Y375000D01*
X1614000D01*
Y450000D01*
X1622000Y458000D01*
X1977000D01*
X1977000Y384048D01*
D02*
G37*
G36*
X2033000Y281000D02*
X2144000D01*
Y179000D01*
X2072000D01*
Y254000D01*
X2020000D01*
Y332000D01*
X2001000D01*
Y264000D01*
X1976000D01*
Y339000D01*
X2033000D01*
Y281000D01*
D02*
G37*
G36*
X2216000Y427000D02*
Y414000D01*
X2211000D01*
Y392000D01*
X2215000D01*
Y313000D01*
X2204991D01*
Y146000D01*
X2009000Y146000D01*
X2009000Y177476D01*
X1998000Y177476D01*
X1998000Y251000D01*
X2004000D01*
Y329000D01*
X2016000D01*
Y251000D01*
X2069000D01*
Y176000D01*
X2181000D01*
Y433000D01*
X2210000D01*
X2216000Y427000D01*
D02*
G37*
G36*
X1607901Y151000D02*
X1607901Y135890D01*
X1573452D01*
Y151000D01*
X1607901Y151000D01*
D02*
G37*
G36*
X1969000Y157000D02*
X1975931D01*
Y107000D01*
X1945000D01*
Y162000D01*
X1969000D01*
Y157000D01*
D02*
G37*
G36*
X1748000Y265000D02*
X1748000Y183054D01*
X1759000Y172054D01*
Y106000D01*
X1725422Y106000D01*
X1725422Y265000D01*
X1748000Y265000D01*
D01*
D02*
G37*
G36*
X1975931Y54000D02*
X1968000D01*
Y43000D01*
X1945000D01*
Y101000D01*
X1975931D01*
Y54000D01*
D02*
G37*
G36*
X1741985Y290963D02*
X1742000Y290948D01*
Y280000D01*
X1725676D01*
X1725676Y280000D01*
X1723390D01*
Y279850D01*
X1723318D01*
Y271850D01*
Y265350D01*
Y258850D01*
Y252350D01*
X1723383D01*
X1723383Y106000D01*
X1723390Y105964D01*
Y101000D01*
X1759000Y101000D01*
Y33000D01*
X1711000D01*
X1711000Y234840D01*
X1698000Y247840D01*
X1698000Y291000D01*
X1741799D01*
X1741985Y290963D01*
D02*
G37*
G36*
X2149000Y-50000D02*
X2108000D01*
Y-26000D01*
X2149000D01*
Y-50000D01*
D02*
G37*
G36*
X2090000Y-81000D02*
X2043000D01*
Y-37000D01*
X2090000D01*
Y-81000D01*
D02*
G37*
G36*
X1991000Y-2000D02*
Y-37000D01*
X2038000Y-37000D01*
Y-81014D01*
X1940000D01*
Y-117352D01*
X1939542Y-117542D01*
X1776222Y-117542D01*
Y-88138D01*
X1762055D01*
X1761916Y-88096D01*
X1758534Y-87763D01*
X1755152Y-88096D01*
X1755013Y-88138D01*
X1741170D01*
Y-117542D01*
X1697000Y-117542D01*
Y-103181D01*
X1705000Y-95181D01*
X1715819Y-106000D01*
X1716000D01*
X1740986Y-81014D01*
X1860986D01*
X1892000Y-50000D01*
X1975931D01*
X1976000Y-2000D01*
X1991000Y-2000D01*
D02*
G37*
G36*
X2206000Y-113000D02*
X2222000D01*
Y-194000D01*
X2206000D01*
Y-148000D01*
X2168902D01*
Y-184098D01*
X2148000Y-205000D01*
X2136000D01*
Y-179000D01*
X2108000D01*
Y-55164D01*
X2108116Y-55116D01*
X2154000D01*
Y-24000D01*
X2149197D01*
X2149000Y-23961D01*
X2108000D01*
X2107803Y-24000D01*
X2090000D01*
Y-31000D01*
X1994000D01*
Y0D01*
X1991197D01*
X1991000Y39D01*
X1976000Y39D01*
X1975803Y0D01*
X1973000D01*
Y-17392D01*
X1927000D01*
Y-47000D01*
X1889000Y-47073D01*
X1859279Y-76893D01*
X1741000Y-76893D01*
X1720893Y-97000D01*
X1711731Y-87838D01*
X1711536Y-86649D01*
X1718360Y-79825D01*
X1730195Y-79825D01*
X1731000Y-79020D01*
X1815273Y5253D01*
X1968253D01*
X1995573Y32573D01*
X1995573Y36000D01*
X2206000D01*
Y-113000D01*
D02*
G37*
G36*
X1580000Y-234815D02*
X1587272Y-227542D01*
X1588542Y-227542D01*
X1597000Y-236000D01*
X1581000Y-252000D01*
X1559558Y-230558D01*
Y-228961D01*
X1566519Y-222000D01*
X1580000Y-234815D01*
D02*
G37*
G36*
X2198000Y-230718D02*
X2154000Y-274718D01*
X2123000Y-243718D01*
Y-234000D01*
X2136000Y-222000D01*
X2185000D01*
Y-151000D01*
X2198000D01*
Y-230718D01*
D02*
G37*
G36*
X1536445Y-195445D02*
X1550000Y-209000D01*
X1550293Y-209707D01*
X1537000Y-223000D01*
X1636000Y-322000D01*
X1738000D01*
Y-308000D01*
X1762916D01*
X1764103Y-308286D01*
X1765000Y-309044D01*
Y-337000D01*
X1629000D01*
X1509000Y-217000D01*
X1533500Y-192500D01*
X1536445Y-195445D01*
D02*
G37*
G36*
X2006000Y-331000D02*
X1963000Y-374000D01*
X1822000D01*
Y-336000D01*
X1844000D01*
Y-362000D01*
X1949000D01*
X1990922Y-320078D01*
Y-315754D01*
X1980168Y-305000D01*
X1989167Y-296000D01*
X2006000D01*
Y-331000D01*
D02*
G37*
%LPC*%
G36*
X1757620Y383661D02*
X1754238Y383328D01*
X1750987Y382342D01*
X1747990Y380740D01*
X1745363Y378585D01*
X1743208Y375958D01*
X1741606Y372961D01*
X1740620Y369710D01*
X1740287Y366328D01*
X1740620Y362946D01*
X1741606Y359695D01*
X1743208Y356698D01*
X1745363Y354071D01*
X1747990Y351916D01*
X1750987Y350314D01*
X1754238Y349328D01*
X1757620Y348995D01*
X1761002Y349328D01*
X1764253Y350314D01*
X1767250Y351916D01*
X1769877Y354071D01*
X1772032Y356698D01*
X1773634Y359695D01*
X1774620Y362946D01*
X1774953Y366328D01*
X1774620Y369710D01*
X1773634Y372961D01*
X1772032Y375958D01*
X1769877Y378585D01*
X1767250Y380740D01*
X1764253Y382342D01*
X1761002Y383328D01*
X1757620Y383661D01*
D02*
G37*
G36*
X1759188Y331985D02*
X1725000D01*
X1724320Y331850D01*
X1723318D01*
Y331029D01*
X1723116Y330726D01*
X1722961Y329946D01*
Y319000D01*
X1723116Y318220D01*
X1723318Y317917D01*
Y317350D01*
X1723869D01*
X1724220Y317116D01*
X1725000Y316961D01*
X1759188D01*
X1759968Y317116D01*
X1760630Y317558D01*
X1761072Y318220D01*
X1761227Y319000D01*
Y329946D01*
X1761072Y330726D01*
X1760630Y331388D01*
X1759968Y331830D01*
X1759188Y331985D01*
D02*
G37*
%LPD*%
G36*
Y319000D02*
X1725000D01*
Y329946D01*
X1759188D01*
Y319000D01*
D02*
G37*
%LPC*%
G36*
X2167382Y25992D02*
X2163876Y25530D01*
X2160609Y24177D01*
X2157804Y22024D01*
X2155651Y19219D01*
X2154298Y15952D01*
X2153836Y12446D01*
X2154298Y8940D01*
X2155651Y5673D01*
X2157804Y2868D01*
X2160609Y715D01*
X2163876Y-638D01*
X2167382Y-1100D01*
X2170888Y-638D01*
X2174155Y715D01*
X2176960Y2868D01*
X2179113Y5673D01*
X2180466Y8940D01*
X2180928Y12446D01*
X2180466Y15952D01*
X2179113Y19219D01*
X2176960Y22024D01*
X2174155Y24177D01*
X2170888Y25530D01*
X2167382Y25992D01*
D02*
G37*
%LPD*%
D14*
X1703989Y-102149D02*
G03*
X1706004Y-102984I2016J2016D01*
G01*
X1604197Y8957D02*
G03*
X1586237Y16396I-17960J-17960D01*
G01*
X2137612Y354278D02*
G03*
X2137408Y354482I-204J0D01*
G01*
X1600454Y143510D02*
G03*
X1600708Y143764I0J254D01*
G01*
X1695263Y-82109D02*
G03*
X1713224Y-89549I17960J17960D01*
G01*
X1581997Y-217378D02*
X1582500Y-216875D01*
Y-194000D01*
X1581997Y-217378D02*
X1582000Y-217381D01*
X1581745Y-217637D02*
X1582000Y-217381D01*
X1812290Y269290D02*
X1813000Y270000D01*
X1812290Y259588D02*
Y269290D01*
X1852872Y39682D02*
X1859280Y33274D01*
X1824736Y252730D02*
Y406146D01*
X1818774Y246768D02*
X1824736Y252730D01*
X1779150Y246768D02*
X1818774D01*
X1859280Y33274D02*
X1946910D01*
X1852872Y39682D02*
Y66040D01*
X1932178Y42672D02*
X1938528Y49022D01*
X1877822Y42672D02*
X1932178D01*
X1637792Y-1778D02*
X1664850Y-28836D01*
Y-63010D02*
Y-28836D01*
Y-63010D02*
X1682854Y-81014D01*
X1640692Y5222D02*
X1671850Y-25937D01*
Y-58831D02*
Y-25937D01*
Y-58831D02*
X1688376Y-75357D01*
X1507998Y45212D02*
X1521964Y31246D01*
X1593267D01*
X1507998Y45212D02*
Y154940D01*
X1514094Y161036D01*
X1576304D01*
X1579830Y157510D01*
Y143510D02*
Y157510D01*
X1806470Y253768D02*
X1812290Y259588D01*
X1770148Y253768D02*
X1806470D01*
X1760220Y243840D02*
X1770148Y253768D01*
X1760220Y199390D02*
Y243840D01*
Y199390D02*
X1763522Y196088D01*
X1775816D01*
Y243434D02*
X1779150Y246768D01*
X1775816Y221488D02*
Y243434D01*
X1682854Y-81014D02*
X1703989Y-102149D01*
X1706004Y-102984D02*
X1707419Y-104398D01*
X1876358Y67953D02*
X1878272Y66040D01*
X1876358Y67953D02*
Y81495D01*
X1852872Y104982D02*
X1876358Y81495D01*
X1852872Y104982D02*
Y109982D01*
X1850958Y67953D02*
X1852872Y66040D01*
X1850958Y67953D02*
Y81495D01*
X1827472Y104982D02*
X1850958Y81495D01*
X1827472Y104982D02*
Y109982D01*
X1989417Y-286286D02*
Y-272620D01*
X1872426Y-324756D02*
Y-311090D01*
X1756711Y-299796D02*
Y-286130D01*
X1989417Y-286286D02*
X1990922Y-284781D01*
X1681124Y-245824D02*
X1694790D01*
X2062632Y-187858D02*
X2076298D01*
X1914859Y-254968D02*
X1928525D01*
X1795424Y-284432D02*
X1809090D01*
X1567332Y-164236D02*
X1580998D01*
X1688511Y-75357D02*
X1695263Y-82109D01*
X1688376Y-75357D02*
X1688511D01*
X1619381Y5222D02*
X1640692D01*
X1613693Y10910D02*
X1619381Y5222D01*
X1613558Y10910D02*
X1613693D01*
X1604197Y8957D02*
X1607901Y5253D01*
X1615067Y-1778D02*
X1637792D01*
X1608036Y5253D02*
X1615067Y-1778D01*
X1607901Y5253D02*
X1608036D01*
X1581065Y-242316D02*
X1581290D01*
X1713224Y-89549D02*
X1719440D01*
X1721452D01*
X2114414Y354482D02*
X2137408D01*
X1944362Y-30274D02*
X1963150D01*
X1593267Y31246D02*
X1613558Y10955D01*
Y10910D02*
Y10955D01*
X1581290Y16396D02*
X1586237D01*
D16*
X1981150Y-33274D02*
D03*
X1962150D02*
D03*
D23*
X2114414Y335382D02*
D03*
Y354482D02*
D03*
D24*
X1962404Y-8890D02*
D03*
X1981404D02*
D03*
X2169058Y390398D02*
D03*
X2188058D02*
D03*
X1579830Y143510D02*
D03*
X1560830D02*
D03*
X1600708Y143764D02*
D03*
X1619708D02*
D03*
D48*
X1637996Y135890D02*
G03*
X1630376Y143510I-7620J0D01*
G01*
X1546860D02*
G03*
X1539240Y135890I0J-7620D01*
G01*
X2218690Y397510D02*
G03*
X2224024Y410387I-12877J12877D01*
G01*
X2155275Y494707D02*
G03*
X2140966Y500634I-14309J-14309D01*
G01*
X1645920Y69809D02*
X1656455Y80344D01*
X1645920Y16441D02*
Y69809D01*
X1656455Y80344D02*
X1665517D01*
X1658526Y75344D02*
X1667588D01*
X1650972Y67790D02*
X1658526Y75344D01*
X1650972Y19078D02*
Y67790D01*
X1667588Y75344D02*
X1679825Y87581D01*
X1645920Y16441D02*
X1676585Y-14224D01*
X1679825Y87581D02*
Y231951D01*
X1665517Y80344D02*
X1674825Y89652D01*
X1650972Y19078D02*
X1672590Y-2540D01*
X1680718D01*
X1688511Y5253D01*
X1676585Y-14224D02*
X1691661D01*
X1699825Y-6061D01*
X1542702Y456221D02*
X1607636Y521155D01*
X1542702Y260018D02*
Y456221D01*
Y260018D02*
X1561870Y240850D01*
X1547702Y454150D02*
X1604520Y510968D01*
X1547702Y262089D02*
Y454150D01*
Y262089D02*
X1563941Y245850D01*
X1552702Y452079D02*
X1606591Y505968D01*
X1552702Y264160D02*
Y452079D01*
Y264160D02*
X1566012Y250850D01*
X1855594Y510968D02*
X1861262Y516636D01*
X1604520Y510968D02*
X1855594D01*
X1606591Y505968D02*
X2068068D01*
X2073148Y511048D01*
X1861262Y516636D02*
Y537972D01*
X1561870Y240850D02*
X1656784D01*
X1566012Y250850D02*
X1660926D01*
X1684632Y33472D02*
X1691028Y27076D01*
X1563941Y245850D02*
X1658855D01*
X1674825Y229880D01*
Y89652D02*
Y229880D01*
X1660926Y250850D02*
X1679825Y231951D01*
X1684632Y33472D02*
Y85317D01*
X1684825Y85510D01*
X1677162Y241685D02*
X1684825Y234022D01*
Y85510D02*
Y234022D01*
X1677162Y241685D02*
Y272542D01*
X1682576Y243342D02*
X1691132Y234786D01*
X1682576Y243342D02*
Y276110D01*
X1687576Y245413D02*
Y302514D01*
Y245413D02*
X1697632Y235357D01*
X1693680Y246380D02*
X1704848Y235212D01*
X1693680Y246380D02*
Y307078D01*
X1704848Y53848D02*
Y235212D01*
X1697632Y34614D02*
Y235357D01*
X1691132Y43180D02*
Y234786D01*
X1673854Y275850D02*
X1677162Y272542D01*
X1676336Y282350D02*
X1682576Y276110D01*
X1681740Y308350D02*
X1687576Y302514D01*
X1685908Y314850D02*
X1693680Y307078D01*
X1669825Y91723D02*
Y227809D01*
X1663446Y85344D02*
X1669825Y91723D01*
X1656784Y240850D02*
X1669825Y227809D01*
X2073148Y511048D02*
Y520551D01*
X1660318Y275850D02*
X1673854D01*
X1677924Y29284D02*
Y43180D01*
X1671424Y34097D02*
Y50882D01*
X1665884Y28557D02*
X1671424Y34097D01*
X1677350Y53528D02*
X1677924Y54102D01*
X1691028Y19084D02*
Y27076D01*
X1674070Y53528D02*
X1677350D01*
X1671541Y22224D02*
Y22900D01*
X1665884Y27880D02*
Y28557D01*
X1671541Y22900D02*
X1677924Y29284D01*
X1671424Y50882D02*
X1674070Y53528D01*
X1660318Y282350D02*
X1676336D01*
X1660318Y308350D02*
X1681740D01*
X1660318Y314850D02*
X1685908D01*
X1697632Y34614D02*
X1701028Y31219D01*
X1694168Y273D02*
X1701028Y7133D01*
X1694168Y-404D02*
Y273D01*
X1701028Y7133D02*
Y31219D01*
X1608328Y500634D02*
X2140966D01*
X1571752Y464058D02*
X1608328Y500634D01*
X1990194Y45265D02*
Y219606D01*
X1966294Y243506D02*
X1990194Y219606D01*
X1959661Y14732D02*
X1990194Y45265D01*
X1979500Y48713D02*
Y161754D01*
X1955519Y24732D02*
X1979500Y48713D01*
X1806034Y24732D02*
X1955519D01*
X1984500Y46642D02*
Y176278D01*
X1957590Y19732D02*
X1984500Y46642D01*
X1808105Y19732D02*
X1957590D01*
X1810176Y14732D02*
X1959661D01*
X1996694Y44694D02*
Y170434D01*
X1961398Y9398D02*
X1996694Y44694D01*
X1811913Y9398D02*
X1961398D01*
X1973430Y167824D02*
X1979500Y161754D01*
X1979930Y180848D02*
X1984500Y176278D01*
X1746000Y299720D02*
Y300732D01*
X1617218Y-66040D02*
Y-32258D01*
X1607901Y-75357D02*
X1617218Y-66040D01*
Y-32258D02*
X1618742D01*
X1608328Y-62940D02*
Y-32666D01*
X1602244Y-69024D02*
X1608328Y-62940D01*
X1636824Y-13208D02*
X1656283Y-32666D01*
X1615048Y-13208D02*
X1636824D01*
X1656283Y-32666D02*
X1657350D01*
X1632252Y-18542D02*
X1646476Y-32766D01*
X1647190D01*
X1628295Y-23777D02*
X1637030Y-32512D01*
X1602989Y-23777D02*
X1628295D01*
X1796796Y239268D02*
X1808836D01*
X1826616Y221488D01*
X1763014Y261366D02*
X1797304D01*
X1752600Y250952D02*
X1763014Y261366D01*
X1752600Y185674D02*
Y250952D01*
X1760220Y178054D02*
X1822450D01*
X1752600Y185674D02*
X1760220Y178054D01*
X1773910Y-7392D02*
X1806034Y24732D01*
X1775981Y-12392D02*
X1808105Y19732D01*
X1778052Y-17392D02*
X1810176Y14732D01*
X1726569Y-75946D02*
X1811913Y9398D01*
X1637996Y135890D02*
X1638118Y105156D01*
X1619708Y143510D02*
X1630376D01*
X1546860D02*
X1560830D01*
X1539118Y105156D02*
X1539240Y135890D01*
X2155275Y494707D02*
X2224024Y425958D01*
Y410387D02*
Y425958D01*
X2163912Y-206035D02*
X2175418Y-210814D01*
X1958455Y-316710D02*
X1969961Y-321489D01*
X1867455Y-354262D02*
X1872234Y-342756D01*
X1708658Y-314706D02*
X1713437Y-303200D01*
X2076298Y-206858D02*
X2077302Y-207862D01*
X2099666D01*
X2112309D01*
X2122083Y-217637D01*
X1928525Y-273968D02*
X1929275Y-274718D01*
X1952401D01*
X1952299Y-274820D02*
X1952401Y-274718D01*
X1952299Y-299796D02*
Y-274820D01*
X1809090Y-303432D02*
X1809840Y-304182D01*
X1832966D01*
X1832926Y-304222D02*
X1832966Y-304182D01*
X1832926Y-324756D02*
Y-304222D01*
X1694790Y-264824D02*
X1695540Y-265574D01*
X1719682D01*
X1719593Y-265663D02*
X1719682Y-265574D01*
X1719593Y-286286D02*
Y-265663D01*
X1603616Y-183236D02*
X1604366Y-183986D01*
X1580998Y-183236D02*
X1603616D01*
X1560344Y-183388D02*
X1580846D01*
X1580998Y-183236D01*
X1551486Y-192247D02*
X1560344Y-183388D01*
X1964436Y237490D02*
X1973430Y228496D01*
X1932432Y237490D02*
X1964436D01*
X1928216Y233274D02*
X1932432Y237490D01*
X1909492Y243506D02*
X1966294D01*
X1973430Y167824D02*
Y228496D01*
X1732818Y301850D02*
X1732867Y301801D01*
X1732818Y295350D02*
Y301850D01*
X1682854Y10910D02*
X1691028Y19084D01*
X1740367Y-762D02*
X1768582Y27452D01*
X1716437Y-762D02*
X1740367D01*
X1705482Y-11717D02*
X1716437Y-762D01*
X1740580Y-7620D02*
X1773682Y25482D01*
X1720893Y-7620D02*
X1740580D01*
X1711138Y-17374D02*
X1720893Y-7620D01*
X1741555Y-13716D02*
X1778682Y23411D01*
X1726111Y-13716D02*
X1741555D01*
X1716795Y-23031D02*
X1726111Y-13716D01*
X1716795Y-45547D02*
X1783682Y21340D01*
X1716795Y-47073D02*
Y-45547D01*
X1773910Y-7392D02*
X1773910D01*
X1723644Y-57658D02*
X1773910Y-7392D01*
X1775981Y-12392D02*
X1775981D01*
X1724285Y-64088D02*
X1775981Y-12392D01*
X1778052Y-17392D02*
X1778052D01*
X1726356Y-69088D02*
X1778052Y-17392D01*
X1822450Y178054D02*
X1825984Y181588D01*
Y195456D01*
X1627632Y-66940D02*
Y-32666D01*
X1613558Y-81014D02*
X1627632Y-66940D01*
X1602244Y-69700D02*
Y-69024D01*
X1590930Y-11717D02*
X1602989Y-23777D01*
X1609351Y-18542D02*
X1632252D01*
X1596870Y-6061D02*
X1609351Y-18542D01*
X1602244Y-404D02*
X1615048Y-13208D01*
X1584198Y-84582D02*
X1624076Y-124460D01*
X1579118Y-88900D02*
X1619758Y-129540D01*
X1574118Y-90971D02*
X1617687Y-134540D01*
X1569118Y-93042D02*
X1615616Y-139540D01*
X1653402Y-85482D02*
X1665884Y-97963D01*
X1616456Y-100838D02*
Y-100743D01*
X1659059Y-79825D02*
X1671541Y-92306D01*
X1664716Y-74168D02*
X1677197Y-86649D01*
Y-86671D02*
Y-86649D01*
X1596587Y-6061D02*
X1596870D01*
X1610799Y-95086D02*
X1619215Y-86671D01*
X1616456Y-100743D02*
X1624872Y-92328D01*
X1660227Y-103641D02*
X1672708Y-116123D01*
X1825984Y195456D02*
X1826616Y196088D01*
X1763522Y126143D02*
X1775047Y137668D01*
X1763522Y29464D02*
Y126143D01*
X1775047Y137668D02*
X1898396D01*
X1777118Y132668D02*
X1874520D01*
X1768582Y124131D02*
X1777118Y132668D01*
X1768582Y27452D02*
Y124131D01*
X1778521Y127000D02*
X1799336D01*
X1773682Y122161D02*
X1778521Y127000D01*
X1773682Y25482D02*
Y122161D01*
X1799336Y127000D02*
X1802072Y124264D01*
X1527014Y-11717D02*
X1568303D01*
X1520687Y-18045D02*
X1527014Y-11717D01*
X1520687Y-131815D02*
Y-18045D01*
X1902816Y236830D02*
X1909492Y243506D01*
X1902816Y221488D02*
Y236830D01*
X1928216Y221488D02*
Y233274D01*
X1701090Y-75946D02*
X1726569D01*
X1694844Y-69700D02*
X1701090Y-75946D01*
X1705546Y-69088D02*
X1726356D01*
X1700501Y-64043D02*
X1705546Y-69088D01*
X1699825Y-64043D02*
X1700501D01*
X1711183Y-64088D02*
X1724285D01*
X1716743Y-57658D02*
X1723644D01*
X1694168Y-69700D02*
X1694844D01*
X1705482Y-58387D02*
X1711183Y-64088D01*
X1711815Y-52730D02*
X1716743Y-57658D01*
X1711138Y-52730D02*
X1711815D01*
X1712722Y24384D02*
X1758442D01*
X1763522Y29464D01*
X1802072Y66040D02*
X1803908Y67876D01*
X1778682Y23411D02*
Y83232D01*
X1783682Y21340D02*
Y80170D01*
X1786316Y82804D02*
X1800040D01*
X1783682Y80170D02*
X1786316Y82804D01*
X1802072Y109982D02*
Y124264D01*
Y66040D02*
Y80772D01*
X1800040Y82804D02*
X1802072Y80772D01*
X1822450Y87884D02*
X1827294Y83040D01*
Y66218D02*
Y83040D01*
Y66218D02*
X1827472Y66040D01*
X1783334Y87884D02*
X1822450D01*
X1778682Y83232D02*
X1783334Y87884D01*
X1898396Y137668D02*
X1903672Y132392D01*
X1878272Y109982D02*
Y128916D01*
X1874520Y132668D02*
X1878272Y128916D01*
X1903672Y109982D02*
Y132392D01*
X1684528Y24141D02*
Y24384D01*
X1677197Y16810D02*
X1684528Y24141D01*
X1677197Y16567D02*
Y16810D01*
X1607636Y521155D02*
X1624838D01*
X1571752Y431546D02*
Y464058D01*
X1636014Y85344D02*
X1663446D01*
X1626930Y76260D02*
X1636014Y85344D01*
X1626930Y33954D02*
Y76260D01*
Y33954D02*
X1627045Y33839D01*
Y31364D02*
Y33839D01*
Y31364D02*
X1630528Y27880D01*
X1609344Y37751D02*
X1624872Y22224D01*
X1603502Y32369D02*
X1619215Y16656D01*
Y16567D02*
Y16656D01*
X1609344Y100330D02*
X1614170Y105156D01*
X1609344Y37751D02*
Y100330D01*
X1598168Y105156D02*
X1603502Y99822D01*
Y32369D02*
Y99822D01*
X1614170Y105156D02*
X1638118D01*
X1539118D02*
X1598168D01*
X1528826Y-139954D02*
X1564894D01*
X1567942Y-136906D01*
X1520687Y-131815D02*
X1528826Y-139954D01*
X1568303Y-11717D02*
X1579617Y-23031D01*
X1574118Y-63885D02*
X1585273Y-52730D01*
X1574118Y-90971D02*
Y-63885D01*
X1617687Y-134540D02*
X1824910D01*
X1832966Y-142596D01*
Y-182118D02*
Y-142596D01*
Y-229362D02*
Y-213360D01*
Y-207318D01*
X1837166Y-203118D01*
X1902026D01*
X1906226Y-198918D01*
Y-193318D01*
X1902026Y-189118D02*
X1906226Y-193318D01*
X1837166Y-189118D02*
X1902026D01*
X1832966Y-184918D02*
X1837166Y-189118D01*
X1832966Y-184918D02*
Y-182118D01*
Y-283682D02*
Y-229362D01*
X1719682Y-245074D02*
Y-184150D01*
Y-179336D01*
X1722382Y-176636D01*
X1788970D01*
X1791669Y-173936D01*
Y-170336D01*
X1788970Y-167636D02*
X1791669Y-170336D01*
X1719682Y-167636D02*
X1788970D01*
X1650394D02*
X1719682D01*
X1647694Y-164936D02*
X1650394Y-167636D01*
X1647694Y-164936D02*
Y-161336D01*
X1650394Y-158636D01*
X1716982D01*
X1719682Y-155936D01*
Y-149636D01*
Y-145136D01*
X1714086Y-139540D02*
X1719682Y-145136D01*
X1615616Y-139540D02*
X1714086D01*
X1569118Y-93042D02*
Y-57571D01*
X1579617Y-47073D01*
X1579118Y-70199D02*
X1590930Y-58387D01*
X1579118Y-88900D02*
Y-70199D01*
X1619758Y-129540D02*
X1945132D01*
X1952401Y-136809D01*
Y-168656D02*
Y-136809D01*
Y-182118D02*
Y-168656D01*
Y-207010D02*
Y-182118D01*
Y-254218D02*
Y-235204D01*
Y-217810D01*
X1954201Y-216010D01*
X1980168D01*
X1981967Y-214210D01*
Y-211810D01*
X1980168Y-210010D02*
X1981967Y-211810D01*
X1954201Y-210010D02*
X1980168D01*
X1952401Y-208210D02*
X1954201Y-210010D01*
X1952401Y-208210D02*
Y-207010D01*
X1585950Y-17374D02*
X1595120Y-26544D01*
Y-30988D02*
Y-26544D01*
X1592072Y-34036D02*
X1595120Y-30988D01*
X1583815Y-34036D02*
X1592072D01*
X1575997Y-41853D02*
X1583815Y-34036D01*
X1573452Y-41853D02*
X1575997D01*
X1548823Y-17224D02*
X1573452Y-41853D01*
X1546277Y-17224D02*
X1548823D01*
X1544580Y-18921D02*
X1546277Y-17224D01*
X1544580Y-21467D02*
Y-18921D01*
Y-21467D02*
X1569209Y-46096D01*
Y-48642D02*
Y-46096D01*
X1566239Y-51611D02*
X1569209Y-48642D01*
X1564118Y-53733D02*
X1566239Y-51611D01*
X1564118Y-56113D02*
Y-53733D01*
Y-62113D02*
Y-56113D01*
Y-66313D02*
Y-62113D01*
X1562318Y-68113D02*
X1564118Y-66313D01*
X1527487Y-68113D02*
X1562318D01*
X1525687Y-69913D02*
X1527487Y-68113D01*
X1525687Y-72313D02*
Y-69913D01*
Y-72313D02*
X1527487Y-74113D01*
X1562318D01*
X1564118Y-75913D01*
Y-78313D02*
Y-75913D01*
X1562318Y-80113D02*
X1564118Y-78313D01*
X1527487Y-80113D02*
X1562318D01*
X1525687Y-81913D02*
X1527487Y-80113D01*
X1525687Y-84313D02*
Y-81913D01*
Y-84313D02*
X1527487Y-86113D01*
X1562318D01*
X1564118Y-87913D01*
Y-92113D02*
Y-87913D01*
Y-95113D02*
Y-92113D01*
Y-95113D02*
X1567031Y-98026D01*
Y-100571D02*
Y-98026D01*
X1542402Y-125201D02*
X1567031Y-100571D01*
X1542402Y-127746D02*
Y-125201D01*
Y-127746D02*
X1544099Y-129443D01*
X1546644D01*
X1571273Y-104814D01*
X1573819D01*
X1575516Y-106511D01*
Y-109057D02*
Y-106511D01*
X1566519Y-118054D02*
X1575516Y-109057D01*
X1566519Y-120600D02*
Y-118054D01*
Y-120600D02*
X1568216Y-122297D01*
X1570761D01*
X1579759Y-113299D01*
X1582304D01*
X1584001Y-114996D01*
Y-117542D02*
Y-114996D01*
X1581147Y-120397D02*
X1584001Y-117542D01*
X1581147Y-122942D02*
Y-120397D01*
Y-122942D02*
X1582844Y-124639D01*
X1585389D01*
X1588244Y-121785D01*
X1590790D01*
X1592487Y-123482D01*
X1592487Y-126027D01*
X1582551Y-135963D02*
X1592487Y-126027D01*
X1582551Y-138508D02*
Y-135963D01*
Y-138508D02*
X1584248Y-140205D01*
X1586794D01*
X1596729Y-130270D01*
X1599275D01*
X1602245Y-133240D01*
X1604366Y-135361D01*
Y-136486D02*
Y-135361D01*
Y-140686D02*
Y-136486D01*
Y-140686D02*
X1606166Y-142486D01*
X1609922D01*
X1611722Y-144286D01*
Y-146686D02*
Y-144286D01*
X1609922Y-148486D02*
X1611722Y-146686D01*
X1604366Y-148486D02*
X1609922D01*
X1582880D02*
X1604366D01*
X1581080Y-150286D02*
X1582880Y-148486D01*
X1581080Y-152686D02*
Y-150286D01*
Y-152686D02*
X1582880Y-154486D01*
X1602566D01*
X1604366Y-156286D01*
Y-160486D02*
Y-156286D01*
Y-163486D02*
Y-160486D01*
X1585273Y-17374D02*
X1585950D01*
X2066036Y-124460D02*
X2099666Y-158090D01*
X1624076Y-124460D02*
X2066036D01*
X1584198Y-84582D02*
Y-76433D01*
X1596587Y-64043D01*
X2099666Y-187362D02*
Y-158090D01*
D49*
X1758534Y-105096D02*
D03*
X1958284D02*
D03*
X1957370Y366328D02*
D03*
X1757620D02*
D03*
D50*
X2116836Y-164592D02*
D03*
Y-37846D02*
D03*
X2115922Y433578D02*
D03*
Y306832D02*
D03*
D51*
X2139534Y-37746D02*
D03*
Y-164646D02*
D03*
X2138620Y306778D02*
D03*
Y433678D02*
D03*
D52*
X1926560Y482553D02*
D03*
X1776560D02*
D03*
D53*
X1956508Y151722D02*
D03*
Y53170D02*
D03*
X1747320Y152062D02*
D03*
Y53510D02*
D03*
D54*
X2167382Y192446D02*
D03*
X2167382Y12446D02*
D03*
X1536446Y192786D02*
D03*
X1536446Y12786D02*
D03*
D55*
X1776672Y155194D02*
D03*
X1802072D02*
D03*
X1827472D02*
D03*
X1852872D02*
D03*
X1878272D02*
D03*
X1903672D02*
D03*
X1802072Y66040D02*
D03*
X1827472D02*
D03*
X1852872D02*
D03*
X1878272D02*
D03*
X1903672D02*
D03*
X1802072Y109982D02*
D03*
X1827472D02*
D03*
X1852872D02*
D03*
X1878272D02*
D03*
X1903672D02*
D03*
D56*
X1929072Y155194D02*
D03*
D57*
X1571752Y329946D02*
D03*
Y355346D02*
D03*
Y380746D02*
D03*
Y406146D02*
D03*
Y431546D02*
D03*
D58*
X1567942Y-136906D02*
D03*
D59*
X1502918D02*
D03*
X1775816Y196088D02*
D03*
X1801216D02*
D03*
X1826616D02*
D03*
X1852016D02*
D03*
X1877416D02*
D03*
X1902816D02*
D03*
X1928216D02*
D03*
X1953616D02*
D03*
X1775816Y221488D02*
D03*
X1801216D02*
D03*
X1826616D02*
D03*
X1852016D02*
D03*
X1877416D02*
D03*
X1902816D02*
D03*
X1928216D02*
D03*
X1953616D02*
D03*
D60*
X2204991Y418829D02*
D03*
D61*
X2151109Y472711D02*
D03*
D62*
X1677924Y43180D02*
D03*
Y54102D02*
D03*
X1691132Y43180D02*
D03*
X1704848Y53848D02*
D03*
X1582500Y-194000D02*
D03*
X2009000Y-47498D02*
D03*
X2168902Y393881D02*
D03*
X1639316Y305000D02*
D03*
X1735000Y466000D02*
D03*
X1803654Y408000D02*
D03*
X1588000Y-235000D02*
D03*
X1917000Y348742D02*
D03*
X2080262Y-64043D02*
D03*
X1726492Y466000D02*
D03*
X2168902Y403000D02*
D03*
X1966808Y113096D02*
D03*
X1973000Y113000D02*
D03*
X1966904Y94096D02*
D03*
X1973000Y94234D02*
D03*
X1754904Y299816D02*
D03*
Y325096D02*
D03*
X2060786Y288000D02*
D03*
Y296000D02*
D03*
X1968500Y328000D02*
D03*
Y337000D02*
D03*
X1747320Y325096D02*
D03*
X1746000Y299720D02*
D03*
X1678178Y291000D02*
D03*
X1617218Y-32258D02*
D03*
X1608328Y-32666D02*
D03*
X1861262Y537972D02*
D03*
X1946910Y33274D02*
D03*
X1877822Y42672D02*
D03*
X2080262Y-55116D02*
D03*
X1647190Y-32766D02*
D03*
X1657350Y-32666D02*
D03*
X1637030Y-32512D02*
D03*
X1803654Y417000D02*
D03*
X1796796Y239268D02*
D03*
X1951482Y-1270D02*
D03*
X1938528Y49022D02*
D03*
X1639316Y296164D02*
D03*
X1989417Y-272620D02*
D03*
X1872426Y-311090D02*
D03*
X1756711Y-286130D02*
D03*
X1681124Y-245824D02*
D03*
X2062632Y-187858D02*
D03*
X1914859Y-254968D02*
D03*
X1795424Y-284432D02*
D03*
X1567332Y-164236D02*
D03*
X1824736Y406146D02*
D03*
X1581290Y-242316D02*
D03*
X2018792Y-47498D02*
D03*
X1909318Y348742D02*
D03*
X2175418Y-210814D02*
D03*
X1969961Y-321489D02*
D03*
X1867455Y-354262D02*
D03*
X1708658Y-314706D02*
D03*
X1996694Y170434D02*
D03*
X1797304Y261366D02*
D03*
X1627632Y-32666D02*
D03*
X1610799Y-95181D02*
D03*
X1653402Y-85482D02*
D03*
X1616456Y-100838D02*
D03*
X1659059Y-79825D02*
D03*
X1672708Y-116144D02*
D03*
X1664716Y-74168D02*
D03*
X1979930Y180848D02*
D03*
X1712722Y24384D02*
D03*
X1684528D02*
D03*
X2073148Y520551D02*
D03*
X1624838Y521155D02*
D03*
X2218690Y397510D02*
D03*
D63*
X2006702Y-46736D02*
D03*
X2052422D02*
D03*
D64*
X2029816Y3302D02*
D03*
D65*
X1857096Y363164D02*
D03*
Y266248D02*
D03*
D66*
X1968754Y299466D02*
D03*
X1949654D02*
D03*
Y316992D02*
D03*
X1968754D02*
D03*
D67*
X2080262Y-44144D02*
D03*
Y-25144D02*
D03*
X2137612Y354278D02*
D03*
Y335278D02*
D03*
X1580998Y-183236D02*
D03*
Y-164236D02*
D03*
X1694790Y-264824D02*
D03*
Y-245824D02*
D03*
X1809090Y-303432D02*
D03*
Y-284432D02*
D03*
X1928525Y-273968D02*
D03*
X1928525Y-254968D02*
D03*
X1956816Y94132D02*
D03*
Y113132D02*
D03*
X2076298Y-206858D02*
D03*
Y-187858D02*
D03*
X1746866Y94132D02*
D03*
Y113132D02*
D03*
D68*
X1939900Y-29812D02*
D03*
Y-9812D02*
D03*
D69*
X1594725Y29832D02*
D03*
X1581290Y16396D02*
D03*
X1719440Y-89549D02*
D03*
X1706004Y-102984D02*
D03*
D70*
X1988796Y273812D02*
D03*
X1941296D02*
D03*
D71*
X2120838Y221488D02*
D03*
X2017838D02*
D03*
D72*
X2043786Y398526D02*
D03*
D73*
X2009786Y314526D02*
D03*
X2026786D02*
D03*
X2043786D02*
D03*
X2060786D02*
D03*
X2077786D02*
D03*
D74*
X1539118Y105156D02*
D03*
X1638118D02*
D03*
D75*
X1989417Y-286286D02*
D03*
X1995573Y-303200D02*
D03*
X1952299Y-299796D02*
D03*
X1958455Y-316710D02*
D03*
D76*
X2152342Y-192247D02*
D03*
X2163912Y-206035D02*
D03*
X2122083Y-217637D02*
D03*
X2133654Y-231425D02*
D03*
D77*
X1671541Y-92328D02*
D03*
X1716795Y-47073D02*
D03*
X1711138Y-52730D02*
D03*
X1705482Y-58387D02*
D03*
X1699825Y-64043D02*
D03*
X1694168Y-69700D02*
D03*
X1688511Y-75357D02*
D03*
X1682854Y-81014D02*
D03*
X1677197Y-86671D02*
D03*
X1665884Y-97985D02*
D03*
X1660227Y-103641D02*
D03*
X1579617Y-23031D02*
D03*
X1585273Y-17374D02*
D03*
X1590930Y-11717D02*
D03*
X1596587Y-6061D02*
D03*
X1602244Y-404D02*
D03*
X1607901Y5253D02*
D03*
X1613558Y10910D02*
D03*
X1619215Y16567D02*
D03*
X1624872Y22224D02*
D03*
X1630528Y27880D02*
D03*
X1636185Y33537D02*
D03*
D78*
Y-103641D02*
D03*
X1630528Y-97985D02*
D03*
X1624872Y-92328D02*
D03*
X1619215Y-86671D02*
D03*
X1613558Y-81014D02*
D03*
X1607901Y-75357D02*
D03*
X1602244Y-69700D02*
D03*
X1596587Y-64043D02*
D03*
X1590930Y-58387D02*
D03*
X1585273Y-52730D02*
D03*
X1579617Y-47073D02*
D03*
X1660227Y33537D02*
D03*
X1665884Y27880D02*
D03*
X1671541Y22224D02*
D03*
X1677197Y16567D02*
D03*
X1682854Y10910D02*
D03*
X1688511Y5253D02*
D03*
X1694168Y-404D02*
D03*
X1699825Y-6061D02*
D03*
X1705482Y-11717D02*
D03*
X1711138Y-17374D02*
D03*
X1716795Y-23031D02*
D03*
D79*
X1581745Y-217637D02*
D03*
X1570174Y-231425D02*
D03*
X1551486Y-192247D02*
D03*
X1539916Y-206035D02*
D03*
D80*
X1604366Y-183986D02*
D03*
Y-163486D02*
D03*
X1719682Y-265574D02*
D03*
Y-245074D02*
D03*
X1832966Y-304182D02*
D03*
Y-283682D02*
D03*
X1952401Y-274718D02*
D03*
X1952401Y-254218D02*
D03*
X2099666Y-207862D02*
D03*
Y-187362D02*
D03*
D81*
X1756711Y-299796D02*
D03*
X1750555Y-316710D02*
D03*
X1719593Y-286286D02*
D03*
X1713437Y-303200D02*
D03*
D82*
X1872426Y-324756D02*
D03*
Y-342756D02*
D03*
X1832926Y-324756D02*
D03*
Y-342756D02*
D03*
D83*
X1732818Y327850D02*
D03*
Y321350D02*
D03*
Y314850D02*
D03*
Y308350D02*
D03*
Y301850D02*
D03*
Y295350D02*
D03*
Y288850D02*
D03*
Y282350D02*
D03*
Y275850D02*
D03*
Y269350D02*
D03*
Y262850D02*
D03*
Y256350D02*
D03*
X1660318Y269350D02*
D03*
Y275850D02*
D03*
Y282350D02*
D03*
Y288850D02*
D03*
Y295350D02*
D03*
Y301850D02*
D03*
Y308350D02*
D03*
Y314850D02*
D03*
Y321350D02*
D03*
Y327850D02*
D03*
Y262850D02*
D03*
Y256350D02*
D03*
D84*
X2191438Y-160528D02*
D03*
X2211938D02*
D03*
X2191691Y-183388D02*
D03*
X2212191D02*
D03*
M02*
