G04*
G04 #@! TF.GenerationSoftware,Altium Limited,Altium Designer,19.0.15 (446)*
G04*
G04 Layer_Color=16711935*
%FSLAX44Y44*%
%MOMM*%
G71*
G01*
G75*
%ADD25R,0.9000X1.5000*%
%ADD32R,1.5800X1.1200*%
%ADD33R,1.1000X1.5000*%
%ADD34C,3.2500*%
%ADD35O,1.6000X2.2000*%
%ADD36R,1.7000X2.2000*%
%ADD37C,2.2500*%
%ADD38R,2.2000X1.8000*%
%ADD39C,2.4860*%
%ADD40O,1.7000X2.7000*%
%ADD41R,1.7000X2.7000*%
%ADD42O,2.7000X1.7000*%
%ADD43R,2.2000X2.2000*%
%ADD44C,2.2000*%
G04:AMPARAMS|DCode=45|XSize=2.7mm|YSize=1.4mm|CornerRadius=0mm|HoleSize=0mm|Usage=FLASHONLY|Rotation=45.000|XOffset=0mm|YOffset=0mm|HoleType=Round|Shape=Round|*
%AMOVALD45*
21,1,1.3000,1.4000,0.0000,0.0000,45.0*
1,1,1.4000,-0.4596,-0.4596*
1,1,1.4000,0.4596,0.4596*
%
%ADD45OVALD45*%

G04:AMPARAMS|DCode=46|XSize=2.7mm|YSize=1.4mm|CornerRadius=0mm|HoleSize=0mm|Usage=FLASHONLY|Rotation=45.000|XOffset=0mm|YOffset=0mm|HoleType=Round|Shape=Rectangle|*
%AMROTATEDRECTD46*
4,1,4,-0.4596,-1.4496,-1.4496,-0.4596,0.4596,1.4496,1.4496,0.4596,-0.4596,-1.4496,0.0*
%
%ADD46ROTATEDRECTD46*%

%ADD47C,0.8000*%
%ADD63R,1.5000X1.5000*%
%ADD64R,6.8326X6.5000*%
%ADD65R,1.8970X5.7038*%
%ADD85R,1.1200X1.5800*%
%ADD86R,1.5000X1.1000*%
%ADD87R,1.5500X1.2000*%
G04:AMPARAMS|DCode=88|XSize=1.1mm|YSize=1.5mm|CornerRadius=0mm|HoleSize=0mm|Usage=FLASHONLY|Rotation=225.000|XOffset=0mm|YOffset=0mm|HoleType=Round|Shape=Rectangle|*
%AMROTATEDRECTD88*
4,1,4,-0.1414,0.9192,0.9192,-0.1414,0.1414,-0.9192,-0.9192,0.1414,-0.1414,0.9192,0.0*
%
%ADD88ROTATEDRECTD88*%

%ADD89R,2.3500X1.9000*%
%ADD90R,3.7000X5.6000*%
%ADD91R,11.2000X11.5000*%
%ADD92R,1.4500X3.2000*%
%ADD93R,5.1500X2.1500*%
G04:AMPARAMS|DCode=94|XSize=0.89mm|YSize=1.77mm|CornerRadius=0mm|HoleSize=0mm|Usage=FLASHONLY|Rotation=110.000|XOffset=0mm|YOffset=0mm|HoleType=Round|Shape=Rectangle|*
%AMROTATEDRECTD94*
4,1,4,0.9838,-0.1155,-0.6794,-0.7209,-0.9838,0.1155,0.6794,0.7209,0.9838,-0.1155,0.0*
%
%ADD94ROTATEDRECTD94*%

G04:AMPARAMS|DCode=95|XSize=0.89mm|YSize=1.77mm|CornerRadius=0mm|HoleSize=0mm|Usage=FLASHONLY|Rotation=130.000|XOffset=0mm|YOffset=0mm|HoleType=Round|Shape=Rectangle|*
%AMROTATEDRECTD95*
4,1,4,0.9640,0.2280,-0.3919,-0.9098,-0.9640,-0.2280,0.3919,0.9098,0.9640,0.2280,0.0*
%
%ADD95ROTATEDRECTD95*%

G04:AMPARAMS|DCode=96|XSize=0.75mm|YSize=1.6mm|CornerRadius=0mm|HoleSize=0mm|Usage=FLASHONLY|Rotation=45.000|XOffset=0mm|YOffset=0mm|HoleType=Round|Shape=Round|*
%AMOVALD96*
21,1,0.8500,0.7500,0.0000,0.0000,135.0*
1,1,0.7500,0.3005,-0.3005*
1,1,0.7500,-0.3005,0.3005*
%
%ADD96OVALD96*%

G04:AMPARAMS|DCode=97|XSize=0.75mm|YSize=1.6mm|CornerRadius=0mm|HoleSize=0mm|Usage=FLASHONLY|Rotation=135.000|XOffset=0mm|YOffset=0mm|HoleType=Round|Shape=Round|*
%AMOVALD97*
21,1,0.8500,0.7500,0.0000,0.0000,225.0*
1,1,0.7500,0.3005,0.3005*
1,1,0.7500,-0.3005,-0.3005*
%
%ADD97OVALD97*%

G04:AMPARAMS|DCode=98|XSize=0.89mm|YSize=1.77mm|CornerRadius=0mm|HoleSize=0mm|Usage=FLASHONLY|Rotation=50.000|XOffset=0mm|YOffset=0mm|HoleType=Round|Shape=Rectangle|*
%AMROTATEDRECTD98*
4,1,4,0.3919,-0.9098,-0.9640,0.2280,-0.3919,0.9098,0.9640,-0.2280,0.3919,-0.9098,0.0*
%
%ADD98ROTATEDRECTD98*%

%ADD99R,1.7500X1.2000*%
G04:AMPARAMS|DCode=100|XSize=0.89mm|YSize=1.77mm|CornerRadius=0mm|HoleSize=0mm|Usage=FLASHONLY|Rotation=70.000|XOffset=0mm|YOffset=0mm|HoleType=Round|Shape=Rectangle|*
%AMROTATEDRECTD100*
4,1,4,0.6794,-0.7209,-0.9838,-0.1155,-0.6794,0.7209,0.9838,0.1155,0.6794,-0.7209,0.0*
%
%ADD100ROTATEDRECTD100*%

%ADD101R,1.7700X0.8900*%
%ADD102R,1.7000X0.6000*%
%ADD103R,1.2000X1.7500*%
D25*
X1981150Y-33274D02*
D03*
X1962150D02*
D03*
D32*
X2114414Y335382D02*
D03*
Y354482D02*
D03*
D33*
X1962404Y-8890D02*
D03*
X1981404D02*
D03*
X2169058Y390398D02*
D03*
X2188058D02*
D03*
X1579830Y143510D02*
D03*
X1560830D02*
D03*
X1600708Y143764D02*
D03*
X1619708D02*
D03*
D34*
X1758534Y-105096D02*
D03*
X1958284D02*
D03*
X1957370Y366328D02*
D03*
X1757620D02*
D03*
D35*
X2116836Y-164592D02*
D03*
Y-37846D02*
D03*
X2115922Y433578D02*
D03*
Y306832D02*
D03*
D36*
X2139534Y-37746D02*
D03*
Y-164646D02*
D03*
X2138620Y306778D02*
D03*
Y433678D02*
D03*
D37*
X1926560Y482553D02*
D03*
X1776560D02*
D03*
D38*
X1956508Y151722D02*
D03*
Y53170D02*
D03*
X1747320Y152062D02*
D03*
Y53510D02*
D03*
D39*
X2167382Y192446D02*
D03*
X2167382Y12446D02*
D03*
X1536446Y192786D02*
D03*
X1536446Y12786D02*
D03*
D40*
X1776672Y155194D02*
D03*
X1802072D02*
D03*
X1827472D02*
D03*
X1852872D02*
D03*
X1878272D02*
D03*
X1903672D02*
D03*
X1802072Y66040D02*
D03*
X1827472D02*
D03*
X1852872D02*
D03*
X1878272D02*
D03*
X1903672D02*
D03*
X1802072Y109982D02*
D03*
X1827472D02*
D03*
X1852872D02*
D03*
X1878272D02*
D03*
X1903672D02*
D03*
D41*
X1929072Y155194D02*
D03*
D42*
X1571752Y329946D02*
D03*
Y355346D02*
D03*
Y380746D02*
D03*
Y406146D02*
D03*
Y431546D02*
D03*
D43*
X1567942Y-136906D02*
D03*
D44*
X1502918D02*
D03*
X1775816Y196088D02*
D03*
X1801216D02*
D03*
X1826616D02*
D03*
X1852016D02*
D03*
X1877416D02*
D03*
X1902816D02*
D03*
X1928216D02*
D03*
X1953616D02*
D03*
X1775816Y221488D02*
D03*
X1801216D02*
D03*
X1826616D02*
D03*
X1852016D02*
D03*
X1877416D02*
D03*
X1902816D02*
D03*
X1928216D02*
D03*
X1953616D02*
D03*
D45*
X2204991Y418829D02*
D03*
D46*
X2151109Y472711D02*
D03*
D47*
X1677924Y43180D02*
D03*
Y54102D02*
D03*
X1691132Y43180D02*
D03*
X1704848Y53848D02*
D03*
X1582500Y-194000D02*
D03*
X2009000Y-47498D02*
D03*
X2168902Y393881D02*
D03*
X1639316Y305000D02*
D03*
X1735000Y466000D02*
D03*
X1803654Y408000D02*
D03*
X1588000Y-235000D02*
D03*
X1917000Y348742D02*
D03*
X2080262Y-64043D02*
D03*
X1726492Y466000D02*
D03*
X2168902Y403000D02*
D03*
X1966808Y113096D02*
D03*
X1973000Y113000D02*
D03*
X1966904Y94096D02*
D03*
X1973000Y94234D02*
D03*
X1754904Y299816D02*
D03*
Y325096D02*
D03*
X2060786Y288000D02*
D03*
Y296000D02*
D03*
X1968500Y328000D02*
D03*
Y337000D02*
D03*
X1747320Y325096D02*
D03*
X1746000Y299720D02*
D03*
X1678178Y291000D02*
D03*
X1617218Y-32258D02*
D03*
X1608328Y-32666D02*
D03*
X1861262Y537972D02*
D03*
X1946910Y33274D02*
D03*
X1877822Y42672D02*
D03*
X2080262Y-55116D02*
D03*
X1647190Y-32766D02*
D03*
X1657350Y-32666D02*
D03*
X1637030Y-32512D02*
D03*
X1803654Y417000D02*
D03*
X1796796Y239268D02*
D03*
X1951482Y-1270D02*
D03*
X1938528Y49022D02*
D03*
X1639316Y296164D02*
D03*
X1989417Y-272620D02*
D03*
X1872426Y-311090D02*
D03*
X1756711Y-286130D02*
D03*
X1681124Y-245824D02*
D03*
X2062632Y-187858D02*
D03*
X1914859Y-254968D02*
D03*
X1795424Y-284432D02*
D03*
X1567332Y-164236D02*
D03*
X1824736Y406146D02*
D03*
X1581290Y-242316D02*
D03*
X2018792Y-47498D02*
D03*
X1909318Y348742D02*
D03*
X2175418Y-210814D02*
D03*
X1969961Y-321489D02*
D03*
X1867455Y-354262D02*
D03*
X1708658Y-314706D02*
D03*
X1996694Y170434D02*
D03*
X1797304Y261366D02*
D03*
X1627632Y-32666D02*
D03*
X1610799Y-95181D02*
D03*
X1653402Y-85482D02*
D03*
X1616456Y-100838D02*
D03*
X1659059Y-79825D02*
D03*
X1672708Y-116144D02*
D03*
X1664716Y-74168D02*
D03*
X1979930Y180848D02*
D03*
X1712722Y24384D02*
D03*
X1684528D02*
D03*
X2073148Y520551D02*
D03*
X1624838Y521155D02*
D03*
X2218690Y397510D02*
D03*
D63*
X2006702Y-46736D02*
D03*
X2052422D02*
D03*
D64*
X2029816Y3302D02*
D03*
D65*
X1857096Y363164D02*
D03*
Y266248D02*
D03*
D85*
X1968754Y299466D02*
D03*
X1949654D02*
D03*
Y316992D02*
D03*
X1968754D02*
D03*
D86*
X2080262Y-44144D02*
D03*
Y-25144D02*
D03*
X2137612Y354278D02*
D03*
Y335278D02*
D03*
X1580998Y-183236D02*
D03*
Y-164236D02*
D03*
X1694790Y-264824D02*
D03*
Y-245824D02*
D03*
X1809090Y-303432D02*
D03*
Y-284432D02*
D03*
X1928525Y-273968D02*
D03*
X1928525Y-254968D02*
D03*
X1956816Y94132D02*
D03*
Y113132D02*
D03*
X2076298Y-206858D02*
D03*
Y-187858D02*
D03*
X1746866Y94132D02*
D03*
Y113132D02*
D03*
D87*
X1939900Y-29812D02*
D03*
Y-9812D02*
D03*
D88*
X1594725Y29832D02*
D03*
X1581290Y16396D02*
D03*
X1719440Y-89549D02*
D03*
X1706004Y-102984D02*
D03*
D89*
X1988796Y273812D02*
D03*
X1941296D02*
D03*
D90*
X2120838Y221488D02*
D03*
X2017838D02*
D03*
D91*
X2043786Y398526D02*
D03*
D92*
X2009786Y314526D02*
D03*
X2026786D02*
D03*
X2043786D02*
D03*
X2060786D02*
D03*
X2077786D02*
D03*
D93*
X1539118Y105156D02*
D03*
X1638118D02*
D03*
D94*
X1989417Y-286286D02*
D03*
X1995573Y-303200D02*
D03*
X1952299Y-299796D02*
D03*
X1958455Y-316710D02*
D03*
D95*
X2152342Y-192247D02*
D03*
X2163912Y-206035D02*
D03*
X2122083Y-217637D02*
D03*
X2133654Y-231425D02*
D03*
D96*
X1671541Y-92328D02*
D03*
X1716795Y-47073D02*
D03*
X1711138Y-52730D02*
D03*
X1705482Y-58387D02*
D03*
X1699825Y-64043D02*
D03*
X1694168Y-69700D02*
D03*
X1688511Y-75357D02*
D03*
X1682854Y-81014D02*
D03*
X1677197Y-86671D02*
D03*
X1665884Y-97985D02*
D03*
X1660227Y-103641D02*
D03*
X1579617Y-23031D02*
D03*
X1585273Y-17374D02*
D03*
X1590930Y-11717D02*
D03*
X1596587Y-6061D02*
D03*
X1602244Y-404D02*
D03*
X1607901Y5253D02*
D03*
X1613558Y10910D02*
D03*
X1619215Y16567D02*
D03*
X1624872Y22224D02*
D03*
X1630528Y27880D02*
D03*
X1636185Y33537D02*
D03*
D97*
Y-103641D02*
D03*
X1630528Y-97985D02*
D03*
X1624872Y-92328D02*
D03*
X1619215Y-86671D02*
D03*
X1613558Y-81014D02*
D03*
X1607901Y-75357D02*
D03*
X1602244Y-69700D02*
D03*
X1596587Y-64043D02*
D03*
X1590930Y-58387D02*
D03*
X1585273Y-52730D02*
D03*
X1579617Y-47073D02*
D03*
X1660227Y33537D02*
D03*
X1665884Y27880D02*
D03*
X1671541Y22224D02*
D03*
X1677197Y16567D02*
D03*
X1682854Y10910D02*
D03*
X1688511Y5253D02*
D03*
X1694168Y-404D02*
D03*
X1699825Y-6061D02*
D03*
X1705482Y-11717D02*
D03*
X1711138Y-17374D02*
D03*
X1716795Y-23031D02*
D03*
D98*
X1581745Y-217637D02*
D03*
X1570174Y-231425D02*
D03*
X1551486Y-192247D02*
D03*
X1539916Y-206035D02*
D03*
D99*
X1604366Y-183986D02*
D03*
Y-163486D02*
D03*
X1719682Y-265574D02*
D03*
Y-245074D02*
D03*
X1832966Y-304182D02*
D03*
Y-283682D02*
D03*
X1952401Y-274718D02*
D03*
X1952401Y-254218D02*
D03*
X2099666Y-207862D02*
D03*
Y-187362D02*
D03*
D100*
X1756711Y-299796D02*
D03*
X1750555Y-316710D02*
D03*
X1719593Y-286286D02*
D03*
X1713437Y-303200D02*
D03*
D101*
X1872426Y-324756D02*
D03*
Y-342756D02*
D03*
X1832926Y-324756D02*
D03*
Y-342756D02*
D03*
D102*
X1732818Y327850D02*
D03*
Y321350D02*
D03*
Y314850D02*
D03*
Y308350D02*
D03*
Y301850D02*
D03*
Y295350D02*
D03*
Y288850D02*
D03*
Y282350D02*
D03*
Y275850D02*
D03*
Y269350D02*
D03*
Y262850D02*
D03*
Y256350D02*
D03*
X1660318Y269350D02*
D03*
Y275850D02*
D03*
Y282350D02*
D03*
Y288850D02*
D03*
Y295350D02*
D03*
Y301850D02*
D03*
Y308350D02*
D03*
Y314850D02*
D03*
Y321350D02*
D03*
Y327850D02*
D03*
Y262850D02*
D03*
Y256350D02*
D03*
D103*
X2191438Y-160528D02*
D03*
X2211938D02*
D03*
X2191691Y-183388D02*
D03*
X2212191D02*
D03*
M02*
