G04*
G04 #@! TF.GenerationSoftware,Altium Limited,Altium Designer,19.0.15 (446)*
G04*
G04 Layer_Physical_Order=1*
G04 Layer_Color=255*
%FSLAX44Y44*%
%MOMM*%
G71*
G01*
G75*
%ADD14C,0.5000*%
%ADD16R,0.7000X1.3000*%
%ADD17R,1.3000X0.7000*%
%ADD18R,2.0000X1.5000*%
G04:AMPARAMS|DCode=19|XSize=2mm|YSize=1.5mm|CornerRadius=0mm|HoleSize=0mm|Usage=FLASHONLY|Rotation=20.000|XOffset=0mm|YOffset=0mm|HoleType=Round|Shape=Rectangle|*
%AMROTATEDRECTD19*
4,1,4,-0.6832,-1.0468,-1.1962,0.3628,0.6832,1.0468,1.1962,-0.3628,-0.6832,-1.0468,0.0*
%
%ADD19ROTATEDRECTD19*%

G04:AMPARAMS|DCode=20|XSize=2mm|YSize=1.5mm|CornerRadius=0mm|HoleSize=0mm|Usage=FLASHONLY|Rotation=160.000|XOffset=0mm|YOffset=0mm|HoleType=Round|Shape=Rectangle|*
%AMROTATEDRECTD20*
4,1,4,1.1962,0.3628,0.6832,-1.0468,-1.1962,-0.3628,-0.6832,1.0468,1.1962,0.3628,0.0*
%
%ADD20ROTATEDRECTD20*%

%ADD21R,1.2000X1.2000*%
%ADD22R,1.5000X1.6000*%
%ADD23R,1.3800X0.9200*%
%ADD24R,0.9000X1.3000*%
%ADD48C,0.3000*%
%ADD49C,3.0500*%
%ADD50O,1.4000X2.0000*%
%ADD51R,1.5000X2.0000*%
%ADD52C,2.0500*%
%ADD53R,2.0000X1.6000*%
%ADD54C,2.2860*%
%ADD55O,1.5000X2.5000*%
%ADD56R,1.5000X2.5000*%
%ADD57O,2.5000X1.5000*%
%ADD58R,2.0000X2.0000*%
%ADD59C,2.0000*%
G04:AMPARAMS|DCode=60|XSize=2.5mm|YSize=1.2mm|CornerRadius=0mm|HoleSize=0mm|Usage=FLASHONLY|Rotation=45.000|XOffset=0mm|YOffset=0mm|HoleType=Round|Shape=Round|*
%AMOVALD60*
21,1,1.3000,1.2000,0.0000,0.0000,45.0*
1,1,1.2000,-0.4596,-0.4596*
1,1,1.2000,0.4596,0.4596*
%
%ADD60OVALD60*%

G04:AMPARAMS|DCode=61|XSize=2.5mm|YSize=1.2mm|CornerRadius=0mm|HoleSize=0mm|Usage=FLASHONLY|Rotation=45.000|XOffset=0mm|YOffset=0mm|HoleType=Round|Shape=Rectangle|*
%AMROTATEDRECTD61*
4,1,4,-0.4596,-1.3082,-1.3082,-0.4596,0.4596,1.3082,1.3082,0.4596,-0.4596,-1.3082,0.0*
%
%ADD61ROTATEDRECTD61*%

%ADD62C,0.6000*%
G36*
X1945000Y566000D02*
X1995000D01*
Y510000D01*
X1916000D01*
Y573000D01*
X1849000D01*
Y537000D01*
X1747320D01*
Y423164D01*
X1810000Y423000D01*
Y403000D01*
X1710000D01*
Y542000D01*
Y572000D01*
X1829000D01*
Y589000D01*
X1945000D01*
Y566000D01*
D02*
G37*
G36*
X2168000Y475000D02*
Y420000D01*
X2106000D01*
Y487000D01*
X2156000D01*
X2168000Y475000D01*
D02*
G37*
G36*
X1849000Y513000D02*
X1913000D01*
Y507000D01*
X2104000D01*
Y496000D01*
X2100000D01*
Y417000D01*
X2156000D01*
Y385000D01*
X2184000D01*
Y360000D01*
X2104000D01*
Y-225000D01*
X2066000Y-263000D01*
X1821000D01*
X1821000Y-269000D01*
X1800000Y-290000D01*
X1781736D01*
X1760368Y-268632D01*
X1565632Y-268632D01*
X1540000Y-243000D01*
X1540000Y-157000D01*
X1573000D01*
Y-204000D01*
X1933448Y-204000D01*
Y-111732D01*
X1938528D01*
X1938528Y-217000D01*
X1584000Y-217000D01*
X1562000Y-239000D01*
Y-254000D01*
X1664316D01*
X1677316Y-241000D01*
X1999000D01*
Y-18000D01*
X2038000D01*
Y-87000D01*
X2094586D01*
Y-30586D01*
X2094000Y-30000D01*
X2076000D01*
Y261000D01*
X2077000Y262000D01*
X2090000D01*
Y390000D01*
X2076000Y404000D01*
X1893372D01*
Y337000D01*
X1719000D01*
Y282000D01*
X1688000D01*
Y297000D01*
X1687000Y298000D01*
X1657350D01*
Y286015D01*
X1656734Y285000D01*
X1613000D01*
Y397000D01*
X1612490Y397510D01*
X1559000D01*
Y416000D01*
X1587000D01*
Y507000D01*
X1707000D01*
Y400000D01*
X1813000D01*
Y426000D01*
X1750000D01*
Y534000D01*
X1849000D01*
Y513000D01*
D02*
G37*
G36*
X2068000Y283000D02*
X2054000D01*
X2054000Y324000D01*
X1963000D01*
X1963000Y341000D01*
X2068000D01*
Y283000D01*
D02*
G37*
G36*
X2178000Y407050D02*
X2178904Y406146D01*
X2237854Y406146D01*
X2254000Y390000D01*
X2254000Y378000D01*
X2264000Y378000D01*
Y355346D01*
X2276000D01*
Y313000D01*
X2202000D01*
Y-97000D01*
X2175000D01*
X2162762Y-109238D01*
Y-215762D01*
X2163000Y-216000D01*
X2072000Y-307000D01*
X1960000D01*
Y-321000D01*
X1868000D01*
X1853000Y-306000D01*
X1583000D01*
X1480000Y-203000D01*
Y-110000D01*
X1589000D01*
Y-200000D01*
X1576000D01*
Y-154000D01*
X1575000Y-153000D01*
X1537000D01*
X1537000Y-244000D01*
X1567000Y-274000D01*
X1760711Y-274000D01*
X1780711Y-294000D01*
X1801000D01*
X1824736Y-270264D01*
X1824736Y-267000D01*
X2070000D01*
X2108000Y-229000D01*
Y-55116D01*
X2153884D01*
X2154000Y-55000D01*
Y6340D01*
X2155270Y6593D01*
X2155651Y5673D01*
X2157804Y2868D01*
X2160609Y715D01*
X2163876Y-638D01*
X2167382Y-1100D01*
X2170888Y-638D01*
X2174155Y715D01*
X2176960Y2868D01*
X2179113Y5673D01*
X2180466Y8940D01*
X2180928Y12446D01*
X2180466Y15952D01*
X2179113Y19219D01*
X2176960Y22024D01*
X2174155Y24177D01*
X2170888Y25530D01*
X2167382Y25992D01*
X2163876Y25530D01*
X2160609Y24177D01*
X2157804Y22024D01*
X2155651Y19219D01*
X2155270Y18299D01*
X2154000Y18552D01*
Y186340D01*
X2155270Y186592D01*
X2155651Y185673D01*
X2157803Y182868D01*
X2160609Y180715D01*
X2163876Y179362D01*
X2167382Y178900D01*
X2170888Y179362D01*
X2174155Y180715D01*
X2176960Y182868D01*
X2179113Y185673D01*
X2180466Y188940D01*
X2180928Y192446D01*
X2180466Y195952D01*
X2179113Y199219D01*
X2176960Y202024D01*
X2174155Y204177D01*
X2170888Y205530D01*
X2167382Y205992D01*
X2163876Y205530D01*
X2160609Y204177D01*
X2157803Y202024D01*
X2155651Y199219D01*
X2155270Y198300D01*
X2154000Y198552D01*
Y313000D01*
X2184000D01*
Y328000D01*
X2224000D01*
Y353000D01*
X2244000D01*
Y380746D01*
X2229254D01*
X2229000Y381000D01*
X2228000Y380000D01*
Y374000D01*
X2206000D01*
Y388000D01*
X2159000D01*
Y417000D01*
X2178000D01*
Y407050D01*
D02*
G37*
G36*
X2024000Y310100D02*
Y106000D01*
X1945000D01*
Y162000D01*
X2002000D01*
Y291000D01*
X1723000D01*
Y310000D01*
X2023100Y310997D01*
X2024000Y310100D01*
D02*
G37*
G36*
X1958086Y332802D02*
Y322000D01*
X1962803D01*
X1963000Y321961D01*
X2051000D01*
Y43000D01*
X1945000D01*
Y101000D01*
X2027000D01*
Y305000D01*
Y315000D01*
X1723000D01*
Y333000D01*
X1958004D01*
X1958086Y332802D01*
D02*
G37*
G36*
X2149000Y318000D02*
Y-26000D01*
Y-50000D01*
X2108000D01*
Y318000D01*
X2149000Y318000D01*
D02*
G37*
G36*
X2087000Y386000D02*
Y265000D01*
X2073000D01*
X2073148Y264852D01*
Y-34000D01*
X2090000D01*
Y-84000D01*
X2041000D01*
X2041000Y-15000D01*
X1995000Y-15000D01*
Y-238000D01*
X1676000Y-238000D01*
X1663000Y-251000D01*
X1568000D01*
Y-244348D01*
X1592348Y-220000D01*
X1930000D01*
X1976884Y-220000D01*
X1976880Y37102D01*
X1977778Y38000D01*
X2054000Y38000D01*
X2054000Y280000D01*
X2071000D01*
Y344000D01*
X1960000D01*
Y336000D01*
X1897000D01*
Y398731D01*
X1897190Y398810D01*
X2074190D01*
X2087000Y386000D01*
D02*
G37*
G36*
X2190000Y-217000D02*
X2135523Y-279523D01*
X2093523Y-321523D01*
X2087000Y-330000D01*
X1963000D01*
Y-311000D01*
X2072000D01*
X2166000Y-217000D01*
Y-200000D01*
X2190000D01*
Y-217000D01*
D02*
G37*
G36*
X1875000Y-335000D02*
Y-362000D01*
X1860898D01*
X1860000Y-361102D01*
X1860000Y-343000D01*
X1839000Y-322000D01*
X1704000Y-322000D01*
X1704000Y-309000D01*
X1849000D01*
X1875000Y-335000D01*
D02*
G37*
%LPC*%
G36*
X1926560Y494909D02*
X1923362Y494488D01*
X1920383Y493254D01*
X1917824Y491290D01*
X1915860Y488731D01*
X1914626Y485751D01*
X1914205Y482553D01*
X1914626Y479356D01*
X1915860Y476376D01*
X1917824Y473817D01*
X1920383Y471853D01*
X1923362Y470619D01*
X1926560Y470198D01*
X1929758Y470619D01*
X1932738Y471853D01*
X1935297Y473817D01*
X1937261Y476376D01*
X1938495Y479356D01*
X1938916Y482553D01*
X1938495Y485751D01*
X1937261Y488731D01*
X1935297Y491290D01*
X1932738Y493254D01*
X1929758Y494488D01*
X1926560Y494909D01*
D02*
G37*
G36*
X1776560D02*
X1773362Y494488D01*
X1770383Y493254D01*
X1767824Y491290D01*
X1765860Y488731D01*
X1764626Y485751D01*
X1764205Y482553D01*
X1764626Y479356D01*
X1765860Y476376D01*
X1767824Y473817D01*
X1770383Y471853D01*
X1773362Y470619D01*
X1776560Y470198D01*
X1779758Y470619D01*
X1782738Y471853D01*
X1785297Y473817D01*
X1787261Y476376D01*
X1788495Y479356D01*
X1788916Y482553D01*
X1788495Y485751D01*
X1787261Y488731D01*
X1785297Y491290D01*
X1782738Y493254D01*
X1779758Y494488D01*
X1776560Y494909D01*
D02*
G37*
G36*
X1757620Y383661D02*
X1754238Y383328D01*
X1750987Y382342D01*
X1747990Y380740D01*
X1745363Y378585D01*
X1743208Y375958D01*
X1741606Y372961D01*
X1740620Y369710D01*
X1740287Y366328D01*
X1740620Y362946D01*
X1741606Y359695D01*
X1743208Y356698D01*
X1745363Y354071D01*
X1747990Y351916D01*
X1750987Y350314D01*
X1754238Y349328D01*
X1757620Y348995D01*
X1761002Y349328D01*
X1764253Y350314D01*
X1767250Y351916D01*
X1769877Y354071D01*
X1772032Y356698D01*
X1773634Y359695D01*
X1774620Y362946D01*
X1774953Y366328D01*
X1774620Y369710D01*
X1773634Y372961D01*
X1772032Y375958D01*
X1769877Y378585D01*
X1767250Y380740D01*
X1764253Y382342D01*
X1761002Y383328D01*
X1757620Y383661D01*
D02*
G37*
G36*
X2218690Y402608D02*
X2216739Y402220D01*
X2215085Y401115D01*
X2213980Y399461D01*
X2213592Y397510D01*
X2213980Y395559D01*
X2215085Y393905D01*
X2215121Y393881D01*
Y390292D01*
X2208368D01*
Y377092D01*
X2226168D01*
Y390292D01*
X2222259D01*
Y393881D01*
X2222295Y393905D01*
X2223400Y395559D01*
X2223788Y397510D01*
X2223400Y399461D01*
X2222295Y401115D01*
X2220641Y402220D01*
X2218690Y402608D01*
D02*
G37*
G36*
X1579942Y-124906D02*
X1555942D01*
Y-148906D01*
X1579942D01*
Y-124906D01*
D02*
G37*
G36*
X1957370Y383661D02*
X1953988Y383328D01*
X1950737Y382342D01*
X1947740Y380740D01*
X1945113Y378585D01*
X1942958Y375958D01*
X1941356Y372961D01*
X1940370Y369710D01*
X1940036Y366328D01*
X1940370Y362946D01*
X1941356Y359695D01*
X1942958Y356698D01*
X1945113Y354071D01*
X1947740Y351916D01*
X1950737Y350314D01*
X1953988Y349328D01*
X1957370Y348995D01*
X1960752Y349328D01*
X1964003Y350314D01*
X1967000Y351916D01*
X1969627Y354071D01*
X1971782Y356698D01*
X1973384Y359695D01*
X1974370Y362946D01*
X1974703Y366328D01*
X1974370Y369710D01*
X1973384Y372961D01*
X1971782Y375958D01*
X1969627Y378585D01*
X1967000Y380740D01*
X1964003Y382342D01*
X1960752Y383328D01*
X1957370Y383661D01*
D02*
G37*
%LPD*%
D14*
X1935988Y-126500D02*
Y46482D01*
X1938528Y49022D01*
X1946910Y33274D02*
X1951482Y28702D01*
Y-1270D02*
Y28702D01*
X1681734Y274320D02*
Y287444D01*
X1678178Y291000D02*
X1681734Y287444D01*
X1592254Y380746D02*
X1602000Y371000D01*
Y282000D02*
Y371000D01*
Y282000D02*
X1609680Y274320D01*
X1681734D01*
X1571752Y380746D02*
X1592254D01*
X1877822Y42672D02*
Y65590D01*
X1878272Y66040D01*
X1681734Y274320D02*
X1944878D01*
X1958086Y284734D02*
X1971548Y271272D01*
Y199898D02*
Y271272D01*
X1967738Y196088D02*
X1971548Y199898D01*
X1953616Y196088D02*
X1967738D01*
X1699260Y284734D02*
X1958086D01*
X1944878Y274320D02*
X1953616Y265582D01*
Y221488D02*
Y265582D01*
X1876358Y67953D02*
X1878272Y66040D01*
X1876358Y67953D02*
Y81495D01*
X1852872Y104982D02*
X1876358Y81495D01*
X1852872Y104982D02*
Y109982D01*
X1850958Y67953D02*
X1852872Y66040D01*
X1850958Y67953D02*
Y81495D01*
X1827472Y104982D02*
X1850958Y81495D01*
X1827472Y104982D02*
Y109982D01*
X1768348Y232664D02*
X1775816Y225196D01*
Y221488D02*
Y225196D01*
X1711875Y232664D02*
X1768348D01*
X1708946Y229735D02*
X1711875Y232664D01*
X1708946Y218280D02*
Y229735D01*
X1755902Y198280D02*
Y221488D01*
X1752092Y225298D02*
X1755902Y221488D01*
X1728724Y225298D02*
X1752092D01*
X1724660Y221234D02*
X1728724Y225298D01*
X1755902Y198280D02*
X1758094Y196088D01*
X1775816D01*
X1724660Y201209D02*
Y221234D01*
X1721731Y198280D02*
X1724660Y201209D01*
X1708946Y198280D02*
X1721731D01*
D16*
X2197050Y369316D02*
D03*
X2178050D02*
D03*
X1861262Y521970D02*
D03*
X1842262D02*
D03*
D17*
X1608430Y520548D02*
D03*
Y501548D02*
D03*
X2094586Y520802D02*
D03*
Y501802D02*
D03*
D18*
X2168648Y331470D02*
D03*
X2250648D02*
D03*
X1811372Y562610D02*
D03*
X1893372D02*
D03*
D19*
X1725443Y550140D02*
D03*
X1648389Y522095D02*
D03*
D20*
X1973763Y549201D02*
D03*
X2050817Y521155D02*
D03*
D21*
X1708946Y218280D02*
D03*
Y198280D02*
D03*
D22*
X1741446Y208280D02*
D03*
D23*
X2217268Y383692D02*
D03*
Y364592D02*
D03*
D24*
X2237232Y369062D02*
D03*
X2256232D02*
D03*
D48*
X2168902Y331724D02*
G03*
X2168648Y331470I0J-254D01*
G01*
X2221738Y369062D02*
G03*
X2217268Y364592I0J-4470D01*
G01*
X2210816Y331724D02*
G03*
X2217268Y338176I0J6452D01*
G01*
X2197050Y369316D02*
G03*
X2201774Y364592I4724J0D01*
G01*
X1861262Y537972D02*
Y554432D01*
Y521970D02*
Y537972D01*
X2073148Y520551D02*
X2094335D01*
X2051422D02*
X2073148D01*
X1677924Y43180D02*
X1691132D01*
X1677924Y54102D02*
X1678051Y53975D01*
X1704721D02*
X1704848Y53848D01*
X1678051Y53975D02*
X1704721D01*
X1745168Y-87319D02*
Y188D01*
X1682373Y-150114D02*
X1745168Y-87319D01*
X1609426Y-150114D02*
X1682373D01*
X1739406Y-86010D02*
Y1624D01*
X1681224Y-144192D02*
X1739406Y-86010D01*
X1610575Y-144192D02*
X1681224D01*
X1679153Y-139192D02*
X1734406Y-83939D01*
X1612646Y-139192D02*
X1679153D01*
X1734406Y-83939D02*
Y3695D01*
X1729406Y-81868D02*
Y108886D01*
X1695130Y-116144D02*
X1729406Y-81868D01*
X1672708Y-116144D02*
X1695130D01*
X1724406Y-79207D02*
Y111506D01*
X1702775Y-100838D02*
X1724406Y-79207D01*
X1616456Y-100838D02*
X1702775D01*
X1719222Y-77320D02*
Y114704D01*
X1704560Y-91982D02*
X1719222Y-77320D01*
X1613999Y-91982D02*
X1704560D01*
X1745168Y188D02*
X1764284Y19304D01*
X1739406Y1624D02*
X1764452Y26670D01*
X1734406Y3695D02*
X1763731Y33020D01*
X1729406Y108886D02*
X1746502Y125982D01*
X1724406Y111506D02*
X1743964Y131064D01*
X1719222Y114704D02*
X1740662Y136144D01*
X1672366Y261366D02*
X1797304D01*
X1647190Y236190D02*
X1672366Y261366D01*
X1647190Y-32766D02*
Y236190D01*
X1669134Y239268D02*
X1796796D01*
X1657350Y227484D02*
X1669134Y239268D01*
X1657350Y-32666D02*
Y227484D01*
X1663866Y267866D02*
X1804266D01*
X1637538Y241538D02*
X1663866Y267866D01*
X1637538Y221488D02*
Y241538D01*
X1908810Y19304D02*
X1929072Y39566D01*
Y155194D01*
X1764284Y19304D02*
X1908810D01*
X1915414Y131064D02*
X1923034Y123444D01*
Y41656D02*
Y123444D01*
X1908048Y26670D02*
X1923034Y41656D01*
X1764452Y26670D02*
X1908048D01*
X1908556Y131064D02*
X1915414D01*
X1911524Y125984D02*
X1917446Y120062D01*
Y43942D02*
Y120062D01*
X1906524Y33020D02*
X1917446Y43942D01*
X1885950Y125984D02*
X1911524D01*
X1763731Y33020D02*
X1906524D01*
X1617218Y-32258D02*
Y228092D01*
X1605360Y239950D02*
X1617218Y228092D01*
X1537796Y239950D02*
X1605360D01*
X1627632Y-32666D02*
Y227584D01*
X1610266Y244950D02*
X1627632Y227584D01*
X1540416Y244950D02*
X1610266D01*
X1524000Y246675D02*
X1535725Y234950D01*
X1524000Y246675D02*
Y423164D01*
X1608328Y-32666D02*
Y225552D01*
X1598930Y234950D02*
X1608328Y225552D01*
X1535725Y234950D02*
X1598930D01*
X1637030Y-32512D02*
Y-31496D01*
X1637538Y-30988D01*
X2168902Y331724D02*
X2210816D01*
X2201774Y364592D02*
X2217268D01*
Y338176D02*
Y364592D01*
X2221738Y369062D02*
X2237232D01*
X1981152Y170434D02*
X1996694D01*
X1976420Y175166D02*
X1981152Y170434D01*
X1804266Y267866D02*
X1812036Y260096D01*
X1637538Y221488D02*
X1637538Y-30988D01*
X1812036Y232308D02*
Y260096D01*
X1801216Y221488D02*
X1812036Y232308D01*
X1746502Y125982D02*
X1842514D01*
X1743964Y131064D02*
X1820926D01*
X1740662Y136144D02*
X1799082D01*
X1610799Y-95181D02*
X1613999Y-91982D01*
X1592967Y-133655D02*
X1609426Y-150114D01*
X1592967Y-133655D02*
Y-84785D01*
X1597967Y-131584D02*
X1610575Y-144192D01*
X1597967Y-131584D02*
Y-86856D01*
X1602967Y-129513D02*
X1612646Y-139192D01*
X1602967Y-129513D02*
Y-88927D01*
X1903672Y135948D02*
X1908556Y131064D01*
X1903672Y135948D02*
Y155194D01*
X1878272Y133662D02*
X1885950Y125984D01*
X1607394Y-70358D02*
X1660906D01*
X1592967Y-84785D02*
X1607394Y-70358D01*
X1609131Y-75692D02*
X1654926D01*
X1597967Y-86856D02*
X1609131Y-75692D01*
X1648693Y-80772D02*
X1653402Y-85482D01*
X1611122Y-80772D02*
X1648693D01*
X1602967Y-88927D02*
X1611122Y-80772D01*
X1654926Y-75692D02*
X1659059Y-79825D01*
X1660906Y-70358D02*
X1664716Y-74168D01*
X1908142Y175166D02*
X1976420D01*
X1930400Y180848D02*
X1979930D01*
X1928216Y183032D02*
X1930400Y180848D01*
X1928216Y183032D02*
Y196088D01*
X1902816D02*
X1903476Y195428D01*
Y179832D02*
Y195428D01*
Y179832D02*
X1908142Y175166D01*
X1878272Y133662D02*
Y155194D01*
X1802072Y139134D02*
Y155194D01*
X1799082Y136144D02*
X1802072Y139134D01*
X1820926Y131064D02*
X1827472Y137610D01*
Y155194D01*
X1842514Y125982D02*
X1852872Y136340D01*
Y155194D01*
X1529588Y248158D02*
X1537796Y239950D01*
X1532382Y431546D02*
X1571752D01*
X1524000Y423164D02*
X1532382Y431546D01*
X1535176Y323008D02*
X1542114Y329946D01*
X1535176Y250190D02*
Y323008D01*
Y250190D02*
X1540416Y244950D01*
X1542114Y329946D02*
X1571752D01*
X1535938Y355346D02*
X1571752D01*
X1529588Y348996D02*
X1535938Y355346D01*
X1529588Y248158D02*
Y348996D01*
X1798287Y177800D02*
X1801216Y180729D01*
Y196088D01*
X1748028Y177800D02*
X1798287D01*
X1741446Y184382D02*
X1748028Y177800D01*
X1741446Y184382D02*
Y208280D01*
X1684528Y24384D02*
X1712722D01*
X2094335Y520551D02*
X2094586Y520802D01*
X2050817Y521155D02*
X2051422Y520551D01*
X1861262Y554432D02*
X1869440Y562610D01*
X1893372D01*
X1647188Y520894D02*
X1648389Y522095D01*
X1608776Y520894D02*
X1647188D01*
X1608430Y520548D02*
X1608776Y520894D01*
X2217268Y383692D02*
X2218690Y385114D01*
Y397510D01*
D49*
X1758534Y-105096D02*
D03*
X1958284D02*
D03*
X1957370Y366328D02*
D03*
X1757620D02*
D03*
D50*
X2116836Y-164592D02*
D03*
Y-37846D02*
D03*
X2115922Y433578D02*
D03*
Y306832D02*
D03*
D51*
X2139534Y-37746D02*
D03*
Y-164646D02*
D03*
X2138620Y306778D02*
D03*
Y433678D02*
D03*
D52*
X1926560Y482553D02*
D03*
X1776560D02*
D03*
D53*
X1956508Y151722D02*
D03*
Y53170D02*
D03*
X1747320Y152062D02*
D03*
Y53510D02*
D03*
D54*
X2167382Y192446D02*
D03*
X2167382Y12446D02*
D03*
X1536446Y192786D02*
D03*
X1536446Y12786D02*
D03*
D55*
X1776672Y155194D02*
D03*
X1802072D02*
D03*
X1827472D02*
D03*
X1852872D02*
D03*
X1878272D02*
D03*
X1903672D02*
D03*
X1802072Y66040D02*
D03*
X1827472D02*
D03*
X1852872D02*
D03*
X1878272D02*
D03*
X1903672D02*
D03*
X1802072Y109982D02*
D03*
X1827472D02*
D03*
X1852872D02*
D03*
X1878272D02*
D03*
X1903672D02*
D03*
D56*
X1929072Y155194D02*
D03*
D57*
X1571752Y329946D02*
D03*
Y355346D02*
D03*
Y380746D02*
D03*
Y406146D02*
D03*
Y431546D02*
D03*
D58*
X1567942Y-136906D02*
D03*
D59*
X1502918D02*
D03*
X1775816Y196088D02*
D03*
X1801216D02*
D03*
X1826616D02*
D03*
X1852016D02*
D03*
X1877416D02*
D03*
X1902816D02*
D03*
X1928216D02*
D03*
X1953616D02*
D03*
X1775816Y221488D02*
D03*
X1801216D02*
D03*
X1826616D02*
D03*
X1852016D02*
D03*
X1877416D02*
D03*
X1902816D02*
D03*
X1928216D02*
D03*
X1953616D02*
D03*
D60*
X2204991Y418829D02*
D03*
D61*
X2151109Y472711D02*
D03*
D62*
X1677924Y43180D02*
D03*
Y54102D02*
D03*
X1691132Y43180D02*
D03*
X1704848Y53848D02*
D03*
X1582500Y-194000D02*
D03*
X2009000Y-47498D02*
D03*
X2168902Y393881D02*
D03*
X1639316Y305000D02*
D03*
X1735000Y466000D02*
D03*
X1803654Y408000D02*
D03*
X1588000Y-235000D02*
D03*
X1917000Y348742D02*
D03*
X2080262Y-64043D02*
D03*
X1726492Y466000D02*
D03*
X2168902Y403000D02*
D03*
X1966808Y113096D02*
D03*
X1973000Y113000D02*
D03*
X1966904Y94096D02*
D03*
X1973000Y94234D02*
D03*
X1754904Y299816D02*
D03*
Y325096D02*
D03*
X2060786Y288000D02*
D03*
Y296000D02*
D03*
X1968500Y328000D02*
D03*
Y337000D02*
D03*
X1747320Y325096D02*
D03*
X1746000Y299720D02*
D03*
X1678178Y291000D02*
D03*
X1617218Y-32258D02*
D03*
X1608328Y-32666D02*
D03*
X1861262Y537972D02*
D03*
X1946910Y33274D02*
D03*
X1877822Y42672D02*
D03*
X2080262Y-55116D02*
D03*
X1647190Y-32766D02*
D03*
X1657350Y-32666D02*
D03*
X1637030Y-32512D02*
D03*
X1803654Y417000D02*
D03*
X1796796Y239268D02*
D03*
X1951482Y-1270D02*
D03*
X1938528Y49022D02*
D03*
X1639316Y296164D02*
D03*
X1989417Y-272620D02*
D03*
X1872426Y-311090D02*
D03*
X1756711Y-286130D02*
D03*
X1681124Y-245824D02*
D03*
X2062632Y-187858D02*
D03*
X1914859Y-254968D02*
D03*
X1795424Y-284432D02*
D03*
X1567332Y-164236D02*
D03*
X1824736Y406146D02*
D03*
X1581290Y-242316D02*
D03*
X2018792Y-47498D02*
D03*
X1909318Y348742D02*
D03*
X2175418Y-210814D02*
D03*
X1969961Y-321489D02*
D03*
X1867455Y-354262D02*
D03*
X1708658Y-314706D02*
D03*
X1996694Y170434D02*
D03*
X1797304Y261366D02*
D03*
X1627632Y-32666D02*
D03*
X1610799Y-95181D02*
D03*
X1653402Y-85482D02*
D03*
X1616456Y-100838D02*
D03*
X1659059Y-79825D02*
D03*
X1672708Y-116144D02*
D03*
X1664716Y-74168D02*
D03*
X1979930Y180848D02*
D03*
X1712722Y24384D02*
D03*
X1684528D02*
D03*
X2073148Y520551D02*
D03*
X1624838Y521155D02*
D03*
X2218690Y397510D02*
D03*
M02*
