G04*
G04 #@! TF.GenerationSoftware,Altium Limited,Altium Designer,19.0.15 (446)*
G04*
G04 Layer_Color=255*
%FSLAX44Y44*%
%MOMM*%
G71*
G01*
G75*
%ADD16R,0.7000X1.3000*%
%ADD17R,1.3000X0.7000*%
%ADD18R,2.0000X1.5000*%
G04:AMPARAMS|DCode=19|XSize=2mm|YSize=1.5mm|CornerRadius=0mm|HoleSize=0mm|Usage=FLASHONLY|Rotation=20.000|XOffset=0mm|YOffset=0mm|HoleType=Round|Shape=Rectangle|*
%AMROTATEDRECTD19*
4,1,4,-0.6832,-1.0468,-1.1962,0.3628,0.6832,1.0468,1.1962,-0.3628,-0.6832,-1.0468,0.0*
%
%ADD19ROTATEDRECTD19*%

G04:AMPARAMS|DCode=20|XSize=2mm|YSize=1.5mm|CornerRadius=0mm|HoleSize=0mm|Usage=FLASHONLY|Rotation=160.000|XOffset=0mm|YOffset=0mm|HoleType=Round|Shape=Rectangle|*
%AMROTATEDRECTD20*
4,1,4,1.1962,0.3628,0.6832,-1.0468,-1.1962,-0.3628,-0.6832,1.0468,1.1962,0.3628,0.0*
%
%ADD20ROTATEDRECTD20*%

%ADD21R,1.2000X1.2000*%
%ADD22R,1.5000X1.6000*%
%ADD23R,1.3800X0.9200*%
%ADD24R,0.9000X1.3000*%
%ADD49C,3.0500*%
%ADD50O,1.4000X2.0000*%
%ADD51R,1.5000X2.0000*%
%ADD52C,2.0500*%
%ADD53R,2.0000X1.6000*%
%ADD54C,2.2860*%
%ADD55O,1.5000X2.5000*%
%ADD56R,1.5000X2.5000*%
%ADD57O,2.5000X1.5000*%
%ADD58R,2.0000X2.0000*%
%ADD59C,2.0000*%
G04:AMPARAMS|DCode=60|XSize=2.5mm|YSize=1.2mm|CornerRadius=0mm|HoleSize=0mm|Usage=FLASHONLY|Rotation=45.000|XOffset=0mm|YOffset=0mm|HoleType=Round|Shape=Round|*
%AMOVALD60*
21,1,1.3000,1.2000,0.0000,0.0000,45.0*
1,1,1.2000,-0.4596,-0.4596*
1,1,1.2000,0.4596,0.4596*
%
%ADD60OVALD60*%

G04:AMPARAMS|DCode=61|XSize=2.5mm|YSize=1.2mm|CornerRadius=0mm|HoleSize=0mm|Usage=FLASHONLY|Rotation=45.000|XOffset=0mm|YOffset=0mm|HoleType=Round|Shape=Rectangle|*
%AMROTATEDRECTD61*
4,1,4,-0.4596,-1.3082,-1.3082,-0.4596,0.4596,1.3082,1.3082,0.4596,-0.4596,-1.3082,0.0*
%
%ADD61ROTATEDRECTD61*%

D16*
X2197050Y369316D02*
D03*
X2178050D02*
D03*
X1861262Y521970D02*
D03*
X1842262D02*
D03*
D17*
X1608430Y520548D02*
D03*
Y501548D02*
D03*
X2094586Y520802D02*
D03*
Y501802D02*
D03*
D18*
X2168648Y331470D02*
D03*
X2250648D02*
D03*
X1811372Y562610D02*
D03*
X1893372D02*
D03*
D19*
X1725443Y550140D02*
D03*
X1648389Y522095D02*
D03*
D20*
X1973763Y549201D02*
D03*
X2050817Y521155D02*
D03*
D21*
X1708946Y218280D02*
D03*
Y198280D02*
D03*
D22*
X1741446Y208280D02*
D03*
D23*
X2217268Y383692D02*
D03*
Y364592D02*
D03*
D24*
X2237232Y369062D02*
D03*
X2256232D02*
D03*
D49*
X1758534Y-105096D02*
D03*
X1958284D02*
D03*
X1957370Y366328D02*
D03*
X1757620D02*
D03*
D50*
X2116836Y-164592D02*
D03*
Y-37846D02*
D03*
X2115922Y433578D02*
D03*
Y306832D02*
D03*
D51*
X2139534Y-37746D02*
D03*
Y-164646D02*
D03*
X2138620Y306778D02*
D03*
Y433678D02*
D03*
D52*
X1926560Y482553D02*
D03*
X1776560D02*
D03*
D53*
X1956508Y151722D02*
D03*
Y53170D02*
D03*
X1747320Y152062D02*
D03*
Y53510D02*
D03*
D54*
X2167382Y192446D02*
D03*
X2167382Y12446D02*
D03*
X1536446Y192786D02*
D03*
X1536446Y12786D02*
D03*
D55*
X1776672Y155194D02*
D03*
X1802072D02*
D03*
X1827472D02*
D03*
X1852872D02*
D03*
X1878272D02*
D03*
X1903672D02*
D03*
X1802072Y66040D02*
D03*
X1827472D02*
D03*
X1852872D02*
D03*
X1878272D02*
D03*
X1903672D02*
D03*
X1802072Y109982D02*
D03*
X1827472D02*
D03*
X1852872D02*
D03*
X1878272D02*
D03*
X1903672D02*
D03*
D56*
X1929072Y155194D02*
D03*
D57*
X1571752Y329946D02*
D03*
Y355346D02*
D03*
Y380746D02*
D03*
Y406146D02*
D03*
Y431546D02*
D03*
D58*
X1567942Y-136906D02*
D03*
D59*
X1502918D02*
D03*
X1775816Y196088D02*
D03*
X1801216D02*
D03*
X1826616D02*
D03*
X1852016D02*
D03*
X1877416D02*
D03*
X1902816D02*
D03*
X1928216D02*
D03*
X1953616D02*
D03*
X1775816Y221488D02*
D03*
X1801216D02*
D03*
X1826616D02*
D03*
X1852016D02*
D03*
X1877416D02*
D03*
X1902816D02*
D03*
X1928216D02*
D03*
X1953616D02*
D03*
D60*
X2204991Y418829D02*
D03*
D61*
X2151109Y472711D02*
D03*
M02*
