G04*
G04 #@! TF.GenerationSoftware,Altium Limited,Altium Designer,19.0.15 (446)*
G04*
G04 Layer_Color=32896*
%FSLAX44Y44*%
%MOMM*%
G71*
G01*
G75*
%ADD13C,0.2000*%
%ADD15C,0.1270*%
%ADD104C,0.1524*%
%ADD105C,0.2500*%
%ADD106C,0.6000*%
%ADD107C,0.0000*%
%ADD108C,0.2032*%
G36*
X2195000Y105000D02*
X2170000D01*
Y115000D01*
X2195000D01*
Y105000D01*
D02*
G37*
G36*
X2196000Y81000D02*
X2171000D01*
Y91000D01*
X2196000D01*
Y81000D01*
D02*
G37*
G36*
X2039000Y57000D02*
X2014000D01*
Y67000D01*
X2039000D01*
Y57000D01*
D02*
G37*
G36*
Y81000D02*
X2014000D01*
Y91000D01*
X2039000D01*
Y81000D01*
D02*
G37*
G36*
X2075000D02*
X2050000D01*
Y91000D01*
X2075000D01*
Y81000D01*
D02*
G37*
G36*
X2133000Y105000D02*
X2108000D01*
Y115000D01*
X2133000D01*
Y105000D01*
D02*
G37*
G36*
X2071000D02*
X2046000D01*
Y115000D01*
X2071000D01*
Y105000D01*
D02*
G37*
G36*
X2155000Y57000D02*
X2130000D01*
Y67000D01*
X2155000D01*
Y57000D01*
D02*
G37*
G36*
X2164000Y105000D02*
X2139000D01*
Y115000D01*
X2164000D01*
Y105000D01*
D02*
G37*
G36*
X2114000Y57000D02*
X2089000D01*
Y67000D01*
X2114000D01*
Y57000D01*
D02*
G37*
G36*
X2155000Y81000D02*
X2130000D01*
Y91000D01*
X2155000D01*
Y81000D01*
D02*
G37*
G36*
X2075000Y57000D02*
X2050000D01*
Y67000D01*
X2075000D01*
Y57000D01*
D02*
G37*
G36*
X2102000Y105000D02*
X2077000D01*
Y115000D01*
X2102000D01*
Y105000D01*
D02*
G37*
G36*
X2040000D02*
X2015000D01*
Y115000D01*
X2040000D01*
Y105000D01*
D02*
G37*
G36*
X2114000Y81000D02*
X2089000D01*
Y91000D01*
X2114000D01*
Y81000D01*
D02*
G37*
%LPC*%
G36*
X2184437Y113241D02*
X2181626D01*
X2181460Y113231D01*
X2181275Y113222D01*
X2181090Y113213D01*
X2180914Y113194D01*
X2180757Y113176D01*
X2180739D01*
X2180692Y113167D01*
X2180628Y113148D01*
X2180535Y113120D01*
X2180434Y113083D01*
X2180323Y113037D01*
X2180202Y112982D01*
X2180092Y112908D01*
X2180082Y112899D01*
X2180045Y112871D01*
X2179990Y112824D01*
X2179916Y112769D01*
X2179842Y112686D01*
X2179759Y112593D01*
X2179675Y112492D01*
X2179601Y112372D01*
X2179592Y112353D01*
X2179574Y112316D01*
X2179537Y112242D01*
X2179500Y112150D01*
X2179463Y112039D01*
X2179426Y111918D01*
X2179407Y111770D01*
X2179398Y111623D01*
Y111613D01*
Y111604D01*
Y111549D01*
X2179407Y111465D01*
X2179426Y111355D01*
X2179463Y111225D01*
X2179500Y111086D01*
X2179565Y110948D01*
X2179648Y110800D01*
X2179657Y110781D01*
X2179694Y110735D01*
X2179749Y110670D01*
X2179814Y110587D01*
X2179907Y110504D01*
X2180018Y110402D01*
X2180147Y110319D01*
X2180295Y110236D01*
X2180286D01*
X2180267Y110226D01*
X2180239Y110217D01*
X2180202Y110208D01*
X2180092Y110162D01*
X2179962Y110097D01*
X2179823Y110023D01*
X2179666Y109921D01*
X2179527Y109801D01*
X2179398Y109653D01*
X2179389Y109635D01*
X2179352Y109579D01*
X2179296Y109496D01*
X2179241Y109385D01*
X2179185Y109237D01*
X2179130Y109080D01*
X2179093Y108895D01*
X2179084Y108692D01*
Y113241D01*
D01*
Y106843D01*
X2184437D01*
Y113241D01*
D02*
G37*
G36*
X2190890D02*
X2188006D01*
X2187923Y113231D01*
X2187821D01*
X2187719Y113222D01*
X2187599D01*
X2187359Y113194D01*
X2187109Y113167D01*
X2186878Y113120D01*
X2186776Y113093D01*
X2186684Y113065D01*
X2186674D01*
X2186665Y113056D01*
X2186610Y113028D01*
X2186526Y112982D01*
X2186416Y112926D01*
X2186295Y112834D01*
X2186175Y112732D01*
X2186055Y112603D01*
X2185944Y112445D01*
Y112436D01*
X2185935Y112427D01*
X2185916Y112399D01*
X2185898Y112372D01*
X2185851Y112279D01*
X2185796Y112159D01*
X2185750Y112011D01*
X2185704Y111845D01*
X2185667Y111650D01*
X2185657Y111447D01*
Y111438D01*
Y111419D01*
Y111373D01*
X2185667Y111327D01*
Y111262D01*
X2185676Y111197D01*
X2185713Y111031D01*
X2185759Y110837D01*
X2185833Y110643D01*
X2185944Y110439D01*
X2186009Y110347D01*
X2186083Y110254D01*
X2186092Y110245D01*
X2186101Y110236D01*
X2186129Y110208D01*
X2186166Y110180D01*
X2186203Y110143D01*
X2186258Y110097D01*
X2186323Y110051D01*
X2186397Y110005D01*
X2186480Y109949D01*
X2186582Y109903D01*
X2186684Y109857D01*
X2186794Y109810D01*
X2186924Y109764D01*
X2187053Y109727D01*
X2187192Y109690D01*
X2187349Y109663D01*
X2187340D01*
X2187331Y109653D01*
X2187275Y109616D01*
X2187201Y109570D01*
X2187109Y109505D01*
X2186998Y109422D01*
X2186887Y109339D01*
X2186767Y109237D01*
X2186665Y109126D01*
X2186656Y109117D01*
X2186610Y109071D01*
X2186554Y108997D01*
X2186471Y108886D01*
X2186360Y108747D01*
X2186304Y108655D01*
X2186240Y108562D01*
X2186166Y108461D01*
X2186092Y108350D01*
X2186009Y108220D01*
X2185925Y108091D01*
X2185140Y106843D01*
X2190890D01*
Y113241D01*
D02*
G37*
G36*
X2185140D02*
X2185140D01*
Y106843D01*
Y113241D01*
X2185140D01*
D02*
G37*
G36*
X2178261Y113278D02*
X2174110D01*
X2176097D01*
X2176033Y113268D01*
X2175959Y113259D01*
X2175866Y113241D01*
X2175774Y113222D01*
X2175663Y113194D01*
X2175543Y113157D01*
X2175432Y113111D01*
X2175311Y113065D01*
X2175191Y113000D01*
X2175071Y112917D01*
X2174951Y112834D01*
X2174840Y112732D01*
X2174738Y112612D01*
X2174729Y112603D01*
X2174711Y112575D01*
X2174683Y112529D01*
X2174637Y112464D01*
X2174590Y112372D01*
X2174535Y112261D01*
X2174479Y112140D01*
X2174424Y111983D01*
X2174368Y111817D01*
X2174304Y111623D01*
X2174258Y111410D01*
X2174211Y111170D01*
X2174165Y110911D01*
X2174137Y110633D01*
X2174119Y110328D01*
X2174110Y109995D01*
Y109820D01*
X2174119Y109699D01*
X2174128Y109552D01*
X2174147Y109376D01*
X2174165Y109191D01*
X2174184Y108988D01*
X2174220Y108775D01*
X2174267Y108553D01*
X2174313Y108340D01*
X2174378Y108128D01*
X2174442Y107915D01*
X2174535Y107721D01*
X2174627Y107536D01*
X2174738Y107379D01*
X2174747Y107370D01*
X2174766Y107351D01*
X2174794Y107314D01*
X2174831Y107277D01*
X2174886Y107231D01*
X2174951Y107176D01*
X2175034Y107111D01*
X2175117Y107055D01*
X2175219Y106991D01*
X2175321Y106926D01*
X2175441Y106870D01*
X2175570Y106824D01*
X2175709Y106787D01*
X2175866Y106750D01*
X2176023Y106732D01*
X2176190Y106722D01*
X2176227D01*
X2176282Y106732D01*
X2176347D01*
X2176421Y106741D01*
X2176513Y106759D01*
X2176615Y106778D01*
X2176726Y106815D01*
X2176846Y106852D01*
X2176967Y106898D01*
X2177096Y106954D01*
X2177216Y107028D01*
X2177345Y107101D01*
X2177466Y107203D01*
X2177586Y107305D01*
X2177697Y107434D01*
X2177706Y107444D01*
X2177725Y107471D01*
X2177752Y107518D01*
X2177780Y107573D01*
X2177826Y107656D01*
X2177872Y107758D01*
X2177928Y107887D01*
X2177974Y108026D01*
X2178030Y108193D01*
X2178085Y108377D01*
X2178131Y108590D01*
X2178168Y108821D01*
X2178205Y109080D01*
X2178233Y109367D01*
X2178252Y109672D01*
X2178261Y110005D01*
Y106741D01*
Y110180D01*
X2178252Y110301D01*
X2178242Y110448D01*
X2178224Y110624D01*
X2178205Y110809D01*
X2178187Y111012D01*
X2178150Y111225D01*
X2178113Y111438D01*
X2178057Y111660D01*
X2178002Y111872D01*
X2177928Y112076D01*
X2177845Y112270D01*
X2177752Y112455D01*
X2177641Y112612D01*
X2177632Y112621D01*
X2177614Y112640D01*
X2177586Y112677D01*
X2177540Y112714D01*
X2177493Y112769D01*
X2177429Y112824D01*
X2177345Y112880D01*
X2177262Y112945D01*
X2177161Y113010D01*
X2177059Y113065D01*
X2176939Y113120D01*
X2176809Y113176D01*
X2176671Y113213D01*
X2176513Y113250D01*
X2176356Y113268D01*
X2176190Y113278D01*
X2178261D01*
D01*
D02*
G37*
%LPD*%
G36*
X2183143Y110698D02*
X2181904D01*
X2181746Y110707D01*
X2181460D01*
X2181404Y110716D01*
X2181349D01*
X2181312Y110726D01*
X2181256Y110735D01*
X2181173Y110763D01*
X2181090Y110791D01*
X2181007Y110828D01*
X2180924Y110874D01*
X2180850Y110938D01*
X2180840Y110948D01*
X2180822Y110975D01*
X2180785Y111012D01*
X2180748Y111077D01*
X2180720Y111151D01*
X2180683Y111234D01*
X2180665Y111336D01*
X2180656Y111447D01*
Y111456D01*
Y111493D01*
X2180665Y111549D01*
X2180674Y111623D01*
X2180692Y111697D01*
X2180729Y111770D01*
X2180766Y111854D01*
X2180822Y111928D01*
X2180831Y111937D01*
X2180850Y111955D01*
X2180896Y111992D01*
X2180942Y112029D01*
X2181016Y112066D01*
X2181099Y112103D01*
X2181201Y112131D01*
X2181312Y112150D01*
X2181321D01*
X2181358Y112159D01*
X2181460D01*
X2181515Y112168D01*
X2181756D01*
X2181857Y112177D01*
X2183143D01*
Y110698D01*
D02*
G37*
G36*
Y107924D02*
X2181719D01*
X2181580Y107934D01*
X2181432D01*
X2181284Y107943D01*
X2181164Y107952D01*
X2181109D01*
X2181071Y107961D01*
X2181062D01*
X2181025Y107971D01*
X2180970Y107989D01*
X2180905Y108008D01*
X2180831Y108045D01*
X2180748Y108091D01*
X2180674Y108146D01*
X2180600Y108211D01*
X2180591Y108220D01*
X2180572Y108248D01*
X2180544Y108294D01*
X2180508Y108359D01*
X2180470Y108433D01*
X2180443Y108525D01*
X2180424Y108636D01*
X2180415Y108757D01*
Y108766D01*
Y108803D01*
X2180424Y108858D01*
X2180434Y108923D01*
X2180452Y109006D01*
X2180480Y109080D01*
X2180517Y109163D01*
X2180563Y109247D01*
X2180572Y109256D01*
X2180591Y109284D01*
X2180618Y109320D01*
X2180665Y109357D01*
X2180720Y109413D01*
X2180794Y109459D01*
X2180877Y109505D01*
X2180970Y109542D01*
X2180979D01*
X2181025Y109561D01*
X2181099Y109570D01*
X2181145Y109579D01*
X2181210Y109589D01*
X2181275Y109598D01*
X2181358Y109607D01*
X2181451Y109616D01*
X2181561D01*
X2181673Y109626D01*
X2181802Y109635D01*
X2183143D01*
Y107924D01*
D02*
G37*
G36*
X2179093Y108535D02*
X2179111Y108424D01*
X2179130Y108294D01*
X2179167Y108146D01*
X2179222Y107998D01*
X2179287Y107841D01*
X2179296Y107823D01*
X2179324Y107776D01*
X2179370Y107703D01*
X2179435Y107610D01*
X2179509Y107499D01*
X2179611Y107397D01*
X2179712Y107286D01*
X2179842Y107185D01*
X2179860Y107176D01*
X2179907Y107148D01*
X2179980Y107101D01*
X2180082Y107055D01*
X2180212Y107000D01*
X2180360Y106954D01*
X2180526Y106907D01*
X2180711Y106880D01*
X2180748D01*
X2180785Y106870D01*
X2180877D01*
X2180942Y106861D01*
X2181118D01*
X2181229Y106852D01*
X2181506D01*
X2181663Y106843D01*
X2179084D01*
Y108618D01*
X2179093Y108535D01*
D02*
G37*
G36*
X2189596Y110532D02*
X2188338D01*
X2188154Y110541D01*
X2187959Y110550D01*
X2187765Y110559D01*
X2187682Y110569D01*
X2187608Y110578D01*
X2187534Y110596D01*
X2187488Y110606D01*
X2187479D01*
X2187451Y110624D01*
X2187405Y110643D01*
X2187359Y110670D01*
X2187238Y110753D01*
X2187183Y110809D01*
X2187127Y110874D01*
X2187118Y110883D01*
X2187109Y110911D01*
X2187081Y110948D01*
X2187053Y111003D01*
X2187035Y111077D01*
X2187007Y111160D01*
X2186998Y111253D01*
X2186989Y111355D01*
Y111373D01*
Y111410D01*
X2186998Y111465D01*
X2187007Y111539D01*
X2187035Y111623D01*
X2187063Y111706D01*
X2187109Y111798D01*
X2187164Y111872D01*
X2187174Y111882D01*
X2187192Y111909D01*
X2187238Y111937D01*
X2187294Y111983D01*
X2187359Y112029D01*
X2187442Y112066D01*
X2187543Y112103D01*
X2187654Y112131D01*
X2187664D01*
X2187691Y112140D01*
X2187747D01*
X2187830Y112150D01*
X2188033D01*
X2188117Y112159D01*
X2189596D01*
Y110532D01*
D02*
G37*
G36*
Y106843D02*
X2186693D01*
X2187617Y108230D01*
X2187627Y108239D01*
X2187636Y108266D01*
X2187664Y108303D01*
X2187701Y108350D01*
X2187738Y108405D01*
X2187784Y108479D01*
X2187885Y108627D01*
X2188006Y108793D01*
X2188117Y108941D01*
X2188218Y109080D01*
X2188265Y109126D01*
X2188302Y109172D01*
X2188311Y109182D01*
X2188329Y109200D01*
X2188366Y109237D01*
X2188412Y109284D01*
X2188477Y109320D01*
X2188542Y109367D01*
X2188616Y109404D01*
X2188690Y109441D01*
X2188699D01*
X2188727Y109450D01*
X2188773Y109468D01*
X2188847Y109478D01*
X2188940Y109496D01*
X2189050Y109505D01*
X2189180Y109515D01*
X2189596D01*
Y106843D01*
D02*
G37*
G36*
X2176273Y112251D02*
X2176319Y112242D01*
X2176384Y112224D01*
X2176449Y112196D01*
X2176523Y112159D01*
X2176587Y112113D01*
X2176597Y112103D01*
X2176615Y112085D01*
X2176643Y112048D01*
X2176680Y112002D01*
X2176726Y111928D01*
X2176763Y111845D01*
X2176809Y111734D01*
X2176846Y111604D01*
Y111595D01*
X2176855Y111586D01*
Y111549D01*
X2176865Y111512D01*
X2176874Y111456D01*
X2176883Y111391D01*
X2176893Y111318D01*
X2176902Y111225D01*
X2176920Y111114D01*
X2176929Y111003D01*
X2176939Y110864D01*
X2176948Y110726D01*
X2176957Y110559D01*
Y110393D01*
X2176967Y110199D01*
Y109995D01*
Y109986D01*
Y109949D01*
Y109884D01*
Y109810D01*
Y109718D01*
X2176957Y109616D01*
Y109496D01*
X2176948Y109376D01*
X2176939Y109117D01*
X2176920Y108858D01*
X2176911Y108738D01*
X2176893Y108627D01*
X2176874Y108525D01*
X2176855Y108433D01*
X2176846Y108414D01*
X2176837Y108368D01*
X2176809Y108294D01*
X2176781Y108211D01*
X2176735Y108118D01*
X2176689Y108026D01*
X2176634Y107943D01*
X2176578Y107878D01*
X2176569Y107869D01*
X2176550Y107860D01*
X2176513Y107832D01*
X2176467Y107813D01*
X2176412Y107786D01*
X2176347Y107758D01*
X2176273Y107749D01*
X2176190Y107739D01*
X2176153D01*
X2176107Y107749D01*
X2176060Y107758D01*
X2175996Y107776D01*
X2175931Y107795D01*
X2175866Y107832D01*
X2175802Y107878D01*
X2175792Y107887D01*
X2175774Y107906D01*
X2175737Y107943D01*
X2175700Y107998D01*
X2175663Y108063D01*
X2175617Y108155D01*
X2175570Y108257D01*
X2175533Y108387D01*
Y108396D01*
X2175524Y108405D01*
Y108442D01*
X2175515Y108479D01*
X2175506Y108535D01*
X2175496Y108599D01*
X2175478Y108673D01*
X2175469Y108766D01*
X2175459Y108867D01*
X2175441Y108988D01*
X2175432Y109117D01*
X2175422Y109265D01*
X2175413Y109422D01*
Y109598D01*
X2175404Y109792D01*
Y109995D01*
Y110005D01*
Y110042D01*
Y110106D01*
Y110180D01*
Y110273D01*
X2175413Y110374D01*
Y110495D01*
X2175422Y110615D01*
X2175432Y110874D01*
X2175450Y111123D01*
X2175469Y111243D01*
X2175487Y111364D01*
X2175506Y111465D01*
X2175524Y111549D01*
Y111558D01*
X2175533Y111567D01*
X2175543Y111613D01*
X2175570Y111687D01*
X2175598Y111780D01*
X2175644Y111872D01*
X2175691Y111965D01*
X2175746Y112048D01*
X2175802Y112113D01*
X2175811Y112122D01*
X2175829Y112140D01*
X2175866Y112159D01*
X2175912Y112187D01*
X2175968Y112214D01*
X2176033Y112242D01*
X2176107Y112251D01*
X2176190Y112261D01*
X2176227D01*
X2176273Y112251D01*
D02*
G37*
%LPC*%
G36*
X2186075Y89319D02*
Y86018D01*
X2186066Y86102D01*
Y86213D01*
X2186047Y86342D01*
X2186029Y86499D01*
X2186010Y86666D01*
X2185973Y86860D01*
X2185927Y87054D01*
X2185871Y87257D01*
X2185807Y87461D01*
X2185724Y87673D01*
X2185631Y87877D01*
X2185520Y88071D01*
X2185400Y88256D01*
X2185252Y88432D01*
X2185243Y88441D01*
X2185215Y88469D01*
X2185169Y88515D01*
X2185104Y88570D01*
X2185021Y88635D01*
X2184919Y88709D01*
X2184808Y88792D01*
X2184670Y88875D01*
X2184522Y88959D01*
X2184364Y89042D01*
X2184180Y89116D01*
X2183995Y89180D01*
X2183782Y89236D01*
X2183569Y89282D01*
X2183329Y89310D01*
X2183089Y89319D01*
X2182978D01*
X2182894Y89310D01*
X2182793Y89301D01*
X2182682Y89282D01*
X2182552Y89264D01*
X2182414Y89236D01*
X2182266Y89199D01*
X2182108Y89153D01*
X2181951Y89097D01*
X2181785Y89023D01*
X2181628Y88949D01*
X2181480Y88857D01*
X2181323Y88746D01*
X2181184Y88626D01*
X2181175D01*
X2181165Y88607D01*
X2181138Y88580D01*
X2181110Y88552D01*
X2181073Y88505D01*
X2181036Y88450D01*
X2180934Y88321D01*
X2180833Y88154D01*
X2180722Y87951D01*
X2180620Y87720D01*
X2180527Y87451D01*
X2181803Y87146D01*
Y87156D01*
X2181813Y87165D01*
Y87193D01*
X2181831Y87230D01*
X2181859Y87313D01*
X2181905Y87424D01*
X2181970Y87553D01*
X2182053Y87683D01*
X2182164Y87812D01*
X2182284Y87923D01*
X2182303Y87932D01*
X2182349Y87969D01*
X2182423Y88015D01*
X2182525Y88071D01*
X2182654Y88126D01*
X2182802Y88173D01*
X2182968Y88210D01*
X2183153Y88219D01*
X2183218D01*
X2183273Y88210D01*
X2183329Y88200D01*
X2183403Y88191D01*
X2183560Y88154D01*
X2183745Y88090D01*
X2183939Y87997D01*
X2184041Y87942D01*
X2184133Y87877D01*
X2184226Y87794D01*
X2184309Y87701D01*
Y87692D01*
X2184328Y87673D01*
X2184346Y87646D01*
X2184374Y87599D01*
X2184411Y87544D01*
X2184448Y87479D01*
X2184485Y87396D01*
X2184522Y87304D01*
X2184568Y87193D01*
X2184605Y87072D01*
X2184642Y86934D01*
X2184679Y86786D01*
X2184707Y86619D01*
X2184725Y86444D01*
X2184734Y86250D01*
X2184743Y86037D01*
Y86028D01*
Y85982D01*
Y85917D01*
X2184734Y85843D01*
Y85741D01*
X2184716Y85621D01*
X2184707Y85501D01*
X2184688Y85362D01*
X2184633Y85075D01*
X2184559Y84789D01*
X2184512Y84650D01*
X2184448Y84521D01*
X2184383Y84401D01*
X2184309Y84299D01*
X2184300Y84290D01*
X2184290Y84280D01*
X2184263Y84253D01*
X2184226Y84216D01*
X2184133Y84142D01*
X2184004Y84049D01*
X2183847Y83947D01*
X2183653Y83874D01*
X2183431Y83809D01*
X2183311Y83799D01*
X2183181Y83790D01*
X2183135D01*
X2183098Y83799D01*
X2182996Y83809D01*
X2182876Y83827D01*
X2182746Y83874D01*
X2182599Y83929D01*
X2182451Y84003D01*
X2182303Y84114D01*
X2182284Y84132D01*
X2182238Y84179D01*
X2182173Y84253D01*
X2182099Y84363D01*
X2182007Y84511D01*
X2181924Y84687D01*
X2181840Y84900D01*
X2181767Y85149D01*
X2180509Y84761D01*
Y84752D01*
X2180518Y84715D01*
X2180537Y84659D01*
X2180565Y84585D01*
X2180602Y84502D01*
X2180638Y84401D01*
X2180685Y84290D01*
X2180740Y84169D01*
X2180870Y83920D01*
X2181036Y83661D01*
X2181239Y83411D01*
X2181350Y83300D01*
X2181471Y83199D01*
X2181480Y83189D01*
X2181498Y83180D01*
X2181535Y83152D01*
X2181591Y83115D01*
X2181655Y83078D01*
X2181739Y83041D01*
X2181831Y82995D01*
X2181933Y82949D01*
X2182053Y82893D01*
X2182182Y82847D01*
X2182321Y82810D01*
X2182469Y82773D01*
X2182626Y82736D01*
X2182802Y82709D01*
X2182978Y82699D01*
X2183172Y82690D01*
X2180509D01*
D01*
X2186075D01*
Y89319D01*
D02*
G37*
G36*
X2189579D02*
X2189468D01*
X2189385Y89310D01*
X2189283Y89301D01*
X2189163Y89291D01*
X2189043Y89273D01*
X2188904Y89254D01*
X2188608Y89190D01*
X2188460Y89143D01*
X2188312Y89097D01*
X2188164Y89032D01*
X2188026Y88959D01*
X2187896Y88875D01*
X2187776Y88783D01*
X2187767Y88774D01*
X2187748Y88755D01*
X2187721Y88727D01*
X2187684Y88690D01*
X2187637Y88635D01*
X2187582Y88570D01*
X2187527Y88496D01*
X2187462Y88413D01*
X2187406Y88311D01*
X2187351Y88210D01*
X2187295Y88090D01*
X2187249Y87960D01*
X2187203Y87831D01*
X2187166Y87683D01*
X2187138Y87535D01*
X2187129Y87368D01*
X2188423Y87322D01*
Y87331D01*
Y87341D01*
X2188442Y87405D01*
X2188460Y87488D01*
X2188497Y87590D01*
X2188544Y87710D01*
X2188608Y87821D01*
X2188691Y87932D01*
X2188784Y88025D01*
X2188793Y88034D01*
X2188830Y88062D01*
X2188895Y88099D01*
X2188987Y88136D01*
X2189098Y88173D01*
X2189237Y88210D01*
X2189403Y88237D01*
X2189597Y88247D01*
X2189690D01*
X2189792Y88237D01*
X2189912Y88219D01*
X2190051Y88191D01*
X2190198Y88145D01*
X2190337Y88090D01*
X2190467Y88006D01*
X2190476Y87997D01*
X2190494Y87978D01*
X2190531Y87951D01*
X2190568Y87905D01*
X2190605Y87849D01*
X2190642Y87775D01*
X2190661Y87701D01*
X2190670Y87609D01*
Y87599D01*
Y87572D01*
X2190661Y87526D01*
X2190642Y87479D01*
X2190624Y87415D01*
X2190596Y87350D01*
X2190550Y87285D01*
X2190485Y87220D01*
X2190476Y87211D01*
X2190430Y87183D01*
X2190402Y87165D01*
X2190356Y87146D01*
X2190309Y87119D01*
X2190245Y87091D01*
X2190171Y87063D01*
X2190087Y87026D01*
X2189986Y86989D01*
X2189884Y86952D01*
X2189755Y86915D01*
X2189616Y86878D01*
X2189468Y86841D01*
X2189302Y86795D01*
X2189292D01*
X2189255Y86786D01*
X2189209Y86777D01*
X2189144Y86758D01*
X2189070Y86740D01*
X2188978Y86712D01*
X2188876Y86684D01*
X2188775Y86656D01*
X2188553Y86582D01*
X2188322Y86509D01*
X2188100Y86425D01*
X2188007Y86379D01*
X2187915Y86333D01*
X2187905D01*
X2187896Y86324D01*
X2187841Y86287D01*
X2187758Y86231D01*
X2187656Y86157D01*
X2187545Y86065D01*
X2187425Y85954D01*
X2187305Y85824D01*
X2187203Y85676D01*
X2187194Y85658D01*
X2187166Y85602D01*
X2187120Y85519D01*
X2187073Y85399D01*
X2187027Y85251D01*
X2186981Y85075D01*
X2186953Y84881D01*
X2186944Y84659D01*
D01*
Y82681D01*
X2192149D01*
D01*
X2189635D01*
X2189718Y82690D01*
X2189819Y82699D01*
X2189930Y82709D01*
X2190060Y82727D01*
X2190198Y82755D01*
X2190504Y82819D01*
X2190661Y82866D01*
X2190809Y82912D01*
X2190966Y82977D01*
X2191114Y83051D01*
X2191252Y83134D01*
X2191382Y83236D01*
X2191391Y83245D01*
X2191410Y83263D01*
X2191447Y83291D01*
X2191484Y83337D01*
X2191539Y83402D01*
X2191595Y83476D01*
X2191659Y83559D01*
X2191724Y83652D01*
X2191789Y83763D01*
X2191853Y83883D01*
X2191918Y84021D01*
X2191983Y84169D01*
X2192029Y84326D01*
X2192085Y84502D01*
X2192121Y84687D01*
X2192149Y84881D01*
X2190892Y85001D01*
Y84992D01*
X2190883Y84974D01*
Y84937D01*
X2190873Y84900D01*
X2190836Y84789D01*
X2190790Y84650D01*
X2190735Y84493D01*
X2190652Y84336D01*
X2190559Y84197D01*
X2190439Y84068D01*
X2190420Y84058D01*
X2190374Y84021D01*
X2190300Y83975D01*
X2190189Y83920D01*
X2190051Y83864D01*
X2189893Y83818D01*
X2189708Y83781D01*
X2189496Y83772D01*
X2189394D01*
X2189283Y83790D01*
X2189144Y83809D01*
X2188996Y83836D01*
X2188839Y83883D01*
X2188691Y83947D01*
X2188562Y84031D01*
X2188544Y84040D01*
X2188506Y84077D01*
X2188460Y84132D01*
X2188396Y84206D01*
X2188340Y84299D01*
X2188285Y84410D01*
X2188248Y84521D01*
X2188238Y84650D01*
Y84659D01*
Y84687D01*
X2188248Y84733D01*
X2188257Y84789D01*
X2188275Y84844D01*
X2188294Y84909D01*
X2188331Y84974D01*
X2188377Y85038D01*
X2188386Y85048D01*
X2188405Y85066D01*
X2188432Y85094D01*
X2188479Y85131D01*
X2188544Y85177D01*
X2188627Y85223D01*
X2188719Y85270D01*
X2188839Y85316D01*
X2188849D01*
X2188886Y85334D01*
X2188950Y85353D01*
X2188996Y85371D01*
X2189052Y85380D01*
X2189117Y85399D01*
X2189191Y85427D01*
X2189274Y85445D01*
X2189366Y85473D01*
X2189477Y85501D01*
X2189597Y85528D01*
X2189727Y85565D01*
X2189875Y85602D01*
X2189884D01*
X2189921Y85612D01*
X2189977Y85630D01*
X2190041Y85649D01*
X2190125Y85676D01*
X2190226Y85704D01*
X2190328Y85741D01*
X2190448Y85778D01*
X2190688Y85871D01*
X2190920Y85982D01*
X2191040Y86037D01*
X2191142Y86102D01*
X2191243Y86166D01*
X2191326Y86231D01*
X2191336Y86240D01*
X2191354Y86259D01*
X2191382Y86287D01*
X2191419Y86324D01*
X2191465Y86379D01*
X2191511Y86444D01*
X2191567Y86509D01*
X2191613Y86592D01*
X2191724Y86786D01*
X2191816Y87008D01*
X2191853Y87128D01*
X2191881Y87248D01*
X2191900Y87387D01*
X2191909Y87526D01*
Y87535D01*
Y87544D01*
Y87572D01*
Y87609D01*
X2191890Y87701D01*
X2191872Y87821D01*
X2191844Y87960D01*
X2191798Y88117D01*
X2191733Y88284D01*
X2191641Y88441D01*
Y88450D01*
X2191631Y88459D01*
X2191585Y88515D01*
X2191530Y88589D01*
X2191437Y88681D01*
X2191326Y88783D01*
X2191188Y88894D01*
X2191030Y88996D01*
X2190846Y89088D01*
X2190836D01*
X2190818Y89097D01*
X2190790Y89107D01*
X2190753Y89125D01*
X2190698Y89143D01*
X2190642Y89162D01*
X2190568Y89180D01*
X2190485Y89208D01*
X2190300Y89245D01*
X2190087Y89282D01*
X2189847Y89310D01*
X2189579Y89319D01*
D02*
G37*
G36*
X2179363Y89153D02*
X2174851D01*
X2178068D01*
Y83883D01*
X2174851D01*
Y82801D01*
X2179363D01*
Y89153D01*
D02*
G37*
%LPD*%
G36*
X2186075Y82690D02*
X2183227D01*
X2183292Y82699D01*
X2183384Y82709D01*
X2183486Y82718D01*
X2183616Y82736D01*
X2183754Y82764D01*
X2183911Y82801D01*
X2184069Y82847D01*
X2184235Y82903D01*
X2184411Y82977D01*
X2184586Y83060D01*
X2184762Y83152D01*
X2184938Y83272D01*
X2185104Y83402D01*
X2185261Y83559D01*
X2185271Y83568D01*
X2185298Y83596D01*
X2185335Y83652D01*
X2185391Y83716D01*
X2185446Y83809D01*
X2185520Y83911D01*
X2185594Y84040D01*
X2185668Y84188D01*
X2185742Y84345D01*
X2185816Y84521D01*
X2185890Y84724D01*
X2185945Y84937D01*
X2186001Y85159D01*
X2186038Y85408D01*
X2186066Y85667D01*
X2186075Y85944D01*
Y82690D01*
D02*
G37*
G36*
X2186953Y84521D02*
X2186962Y84456D01*
X2186981Y84326D01*
X2187018Y84160D01*
X2187073Y83984D01*
X2187157Y83809D01*
X2187258Y83624D01*
Y83615D01*
X2187277Y83605D01*
X2187314Y83550D01*
X2187388Y83457D01*
X2187480Y83356D01*
X2187600Y83236D01*
X2187758Y83125D01*
X2187924Y83014D01*
X2188127Y82912D01*
X2188137D01*
X2188155Y82903D01*
X2188183Y82893D01*
X2188229Y82875D01*
X2188285Y82857D01*
X2188349Y82838D01*
X2188423Y82819D01*
X2188506Y82801D01*
X2188608Y82773D01*
X2188710Y82755D01*
X2188950Y82718D01*
X2189218Y82690D01*
X2189514Y82681D01*
X2186944D01*
Y84567D01*
X2186953Y84521D01*
D02*
G37*
%LPC*%
G36*
X2026371Y65199D02*
X2024863D01*
X2023597Y63285D01*
X2022330Y65199D01*
X2020629D01*
Y58801D01*
Y65199D01*
X2020823D01*
X2022829Y62129D01*
X2020629Y58801D01*
X2022182D01*
X2023597Y60964D01*
X2025021Y58801D01*
X2023602D01*
X2026574D01*
X2024364Y62129D01*
X2026371Y65199D01*
D02*
G37*
G36*
X2032371D02*
X2029486D01*
X2029403Y65190D01*
X2029301D01*
X2029200Y65181D01*
X2029079D01*
X2028839Y65153D01*
X2028589Y65125D01*
X2028358Y65079D01*
X2028257Y65051D01*
X2028164Y65023D01*
X2028155D01*
X2028146Y65014D01*
X2028090Y64986D01*
X2028007Y64940D01*
X2027896Y64885D01*
X2027776Y64792D01*
X2027656Y64690D01*
X2027536Y64561D01*
X2027425Y64404D01*
Y64395D01*
X2027415Y64385D01*
X2027397Y64358D01*
X2027378Y64330D01*
X2027332Y64237D01*
X2027277Y64117D01*
X2027230Y63969D01*
X2027184Y63803D01*
X2027147Y63609D01*
X2027138Y63405D01*
Y63396D01*
Y63378D01*
Y63331D01*
X2027147Y63285D01*
Y63220D01*
X2027156Y63156D01*
X2027193Y62989D01*
X2027240Y62795D01*
X2027314Y62601D01*
X2027425Y62397D01*
X2027489Y62305D01*
X2027563Y62213D01*
X2027572Y62203D01*
X2027582Y62194D01*
X2027610Y62166D01*
X2027646Y62139D01*
X2027683Y62102D01*
X2027739Y62056D01*
X2027804Y62009D01*
X2027878Y61963D01*
X2027961Y61908D01*
X2028062Y61861D01*
X2028164Y61815D01*
X2028275Y61769D01*
X2028405Y61723D01*
X2028534Y61686D01*
X2028673Y61649D01*
X2028830Y61621D01*
X2028821D01*
X2028811Y61612D01*
X2028756Y61575D01*
X2028682Y61529D01*
X2028589Y61464D01*
X2028479Y61381D01*
X2028368Y61297D01*
X2028247Y61196D01*
X2028146Y61085D01*
X2028136Y61075D01*
X2028090Y61029D01*
X2028035Y60955D01*
X2027952Y60844D01*
X2027841Y60706D01*
X2027785Y60613D01*
X2027720Y60521D01*
X2027646Y60419D01*
X2027572Y60308D01*
X2027489Y60179D01*
X2027406Y60049D01*
X2026620Y58801D01*
X2032371D01*
Y65199D01*
D02*
G37*
G36*
X2026620D02*
X2026620D01*
Y58801D01*
Y65199D01*
X2026620D01*
D02*
G37*
%LPD*%
G36*
X2031077Y62490D02*
X2029819D01*
X2029634Y62499D01*
X2029440Y62509D01*
X2029246Y62518D01*
X2029163Y62527D01*
X2029089Y62536D01*
X2029015Y62555D01*
X2028969Y62564D01*
X2028959D01*
X2028932Y62583D01*
X2028885Y62601D01*
X2028839Y62629D01*
X2028719Y62712D01*
X2028663Y62767D01*
X2028608Y62832D01*
X2028599Y62841D01*
X2028589Y62869D01*
X2028562Y62906D01*
X2028534Y62962D01*
X2028516Y63035D01*
X2028488Y63119D01*
X2028479Y63211D01*
X2028469Y63313D01*
Y63331D01*
Y63368D01*
X2028479Y63424D01*
X2028488Y63498D01*
X2028516Y63581D01*
X2028543Y63664D01*
X2028589Y63757D01*
X2028645Y63831D01*
X2028654Y63840D01*
X2028673Y63868D01*
X2028719Y63895D01*
X2028774Y63942D01*
X2028839Y63988D01*
X2028922Y64025D01*
X2029024Y64062D01*
X2029135Y64089D01*
X2029144D01*
X2029172Y64099D01*
X2029227D01*
X2029311Y64108D01*
X2029514D01*
X2029597Y64117D01*
X2031077D01*
Y62490D01*
D02*
G37*
G36*
Y58801D02*
X2028174D01*
X2029098Y60188D01*
X2029107Y60197D01*
X2029117Y60225D01*
X2029144Y60262D01*
X2029181Y60308D01*
X2029218Y60363D01*
X2029264Y60437D01*
X2029366Y60585D01*
X2029486Y60752D01*
X2029597Y60900D01*
X2029699Y61038D01*
X2029745Y61085D01*
X2029782Y61131D01*
X2029791Y61140D01*
X2029810Y61159D01*
X2029847Y61196D01*
X2029893Y61242D01*
X2029958Y61279D01*
X2030023Y61325D01*
X2030096Y61362D01*
X2030170Y61399D01*
X2030180D01*
X2030208Y61408D01*
X2030254Y61427D01*
X2030328Y61436D01*
X2030420Y61455D01*
X2030531Y61464D01*
X2030661Y61473D01*
X2031077D01*
Y58801D01*
D02*
G37*
%LPC*%
G36*
X2023356Y89319D02*
X2017153D01*
X2020204D01*
X2020130Y89310D01*
X2020037D01*
X2019917Y89291D01*
X2019778Y89273D01*
X2019621Y89245D01*
X2019455Y89208D01*
X2019279Y89162D01*
X2019094Y89107D01*
X2018909Y89032D01*
X2018715Y88949D01*
X2018530Y88848D01*
X2018345Y88727D01*
X2018170Y88589D01*
X2018003Y88432D01*
X2017994Y88422D01*
X2017966Y88395D01*
X2017920Y88339D01*
X2017874Y88274D01*
X2017809Y88182D01*
X2017735Y88071D01*
X2017661Y87942D01*
X2017578Y87794D01*
X2017495Y87636D01*
X2017421Y87451D01*
X2017347Y87248D01*
X2017282Y87036D01*
X2017227Y86795D01*
X2017190Y86545D01*
X2017162Y86277D01*
X2017153Y85991D01*
D01*
Y85926D01*
X2017162Y85843D01*
Y85732D01*
X2017180Y85602D01*
X2017199Y85455D01*
X2017227Y85279D01*
X2017254Y85103D01*
X2017301Y84909D01*
X2017356Y84706D01*
X2017430Y84502D01*
X2017513Y84299D01*
X2017606Y84105D01*
X2017726Y83911D01*
X2017855Y83726D01*
X2018003Y83550D01*
X2018013Y83541D01*
X2018040Y83513D01*
X2018087Y83467D01*
X2018161Y83411D01*
X2018244Y83347D01*
X2018345Y83272D01*
X2018466Y83199D01*
X2018595Y83115D01*
X2018752Y83032D01*
X2018919Y82958D01*
X2019104Y82884D01*
X2019307Y82819D01*
X2019520Y82764D01*
X2019751Y82718D01*
X2019991Y82690D01*
X2020250Y82681D01*
X2017153D01*
X2020315D01*
X2020389Y82690D01*
X2020481Y82699D01*
X2020601Y82709D01*
X2020740Y82727D01*
X2020897Y82755D01*
X2021064Y82792D01*
X2021248Y82838D01*
X2021424Y82893D01*
X2021618Y82967D01*
X2021803Y83051D01*
X2021997Y83143D01*
X2022173Y83263D01*
X2022349Y83393D01*
X2022515Y83550D01*
X2022524Y83559D01*
X2022552Y83587D01*
X2022589Y83642D01*
X2022645Y83707D01*
X2022709Y83799D01*
X2022783Y83911D01*
X2022857Y84031D01*
X2022931Y84179D01*
X2023014Y84336D01*
X2023088Y84521D01*
X2023162Y84715D01*
X2023227Y84928D01*
X2023282Y85159D01*
X2023320Y85408D01*
X2023347Y85676D01*
X2023356Y85954D01*
Y83272D01*
Y86046D01*
X2023347Y86120D01*
Y86203D01*
X2023338Y86296D01*
X2023329Y86407D01*
X2023320Y86527D01*
X2023282Y86786D01*
X2023236Y87063D01*
X2023162Y87341D01*
X2023070Y87599D01*
Y87609D01*
X2023061Y87618D01*
X2023042Y87646D01*
X2023033Y87683D01*
X2022977Y87775D01*
X2022913Y87895D01*
X2022829Y88034D01*
X2022728Y88173D01*
X2022608Y88330D01*
X2022478Y88478D01*
X2022469Y88487D01*
X2022460Y88496D01*
X2022413Y88542D01*
X2022330Y88617D01*
X2022229Y88700D01*
X2022108Y88792D01*
X2021970Y88894D01*
X2021812Y88986D01*
X2021646Y89060D01*
X2021637D01*
X2021618Y89069D01*
X2021581Y89088D01*
X2021535Y89097D01*
X2021480Y89125D01*
X2021415Y89143D01*
X2021332Y89162D01*
X2021248Y89190D01*
X2021045Y89236D01*
X2020814Y89282D01*
X2020546Y89310D01*
X2020269Y89319D01*
X2023356D01*
D01*
D02*
G37*
G36*
X2035847D02*
X2030642D01*
D01*
X2033166D01*
X2033083Y89310D01*
X2032981Y89301D01*
X2032861Y89291D01*
X2032741Y89273D01*
X2032602Y89254D01*
X2032306Y89190D01*
X2032158Y89143D01*
X2032010Y89097D01*
X2031862Y89032D01*
X2031724Y88959D01*
X2031594Y88875D01*
X2031474Y88783D01*
X2031465Y88774D01*
X2031446Y88755D01*
X2031419Y88727D01*
X2031382Y88690D01*
X2031335Y88635D01*
X2031280Y88570D01*
X2031225Y88496D01*
X2031160Y88413D01*
X2031104Y88311D01*
X2031049Y88210D01*
X2030993Y88090D01*
X2030947Y87960D01*
X2030901Y87831D01*
X2030864Y87683D01*
X2030836Y87535D01*
X2030827Y87368D01*
X2032121Y87322D01*
Y87331D01*
Y87341D01*
X2032140Y87405D01*
X2032158Y87488D01*
X2032195Y87590D01*
X2032242Y87710D01*
X2032306Y87821D01*
X2032390Y87932D01*
X2032482Y88025D01*
X2032491Y88034D01*
X2032528Y88062D01*
X2032593Y88099D01*
X2032685Y88136D01*
X2032796Y88173D01*
X2032935Y88210D01*
X2033101Y88237D01*
X2033295Y88247D01*
X2033388D01*
X2033490Y88237D01*
X2033610Y88219D01*
X2033749Y88191D01*
X2033896Y88145D01*
X2034035Y88090D01*
X2034165Y88006D01*
X2034174Y87997D01*
X2034192Y87978D01*
X2034229Y87951D01*
X2034266Y87905D01*
X2034303Y87849D01*
X2034340Y87775D01*
X2034359Y87701D01*
X2034368Y87609D01*
Y87599D01*
Y87572D01*
X2034359Y87526D01*
X2034340Y87479D01*
X2034322Y87415D01*
X2034294Y87350D01*
X2034248Y87285D01*
X2034183Y87220D01*
X2034174Y87211D01*
X2034128Y87183D01*
X2034100Y87165D01*
X2034054Y87146D01*
X2034007Y87119D01*
X2033943Y87091D01*
X2033869Y87063D01*
X2033786Y87026D01*
X2033684Y86989D01*
X2033582Y86952D01*
X2033453Y86915D01*
X2033314Y86878D01*
X2033166Y86841D01*
X2033000Y86795D01*
X2032990D01*
X2032953Y86786D01*
X2032907Y86777D01*
X2032843Y86758D01*
X2032769Y86740D01*
X2032676Y86712D01*
X2032574Y86684D01*
X2032473Y86656D01*
X2032251Y86582D01*
X2032020Y86509D01*
X2031798Y86425D01*
X2031705Y86379D01*
X2031613Y86333D01*
X2031604D01*
X2031594Y86324D01*
X2031539Y86287D01*
X2031456Y86231D01*
X2031354Y86157D01*
X2031243Y86065D01*
X2031123Y85954D01*
X2031003Y85824D01*
X2030901Y85676D01*
X2030892Y85658D01*
X2030864Y85602D01*
X2030818Y85519D01*
X2030771Y85399D01*
X2030725Y85251D01*
X2030679Y85075D01*
X2030651Y84881D01*
X2030642Y84659D01*
D01*
Y82681D01*
Y84567D01*
X2030651Y84521D01*
X2030661Y84456D01*
X2030679Y84326D01*
X2030716Y84160D01*
X2030771Y83984D01*
X2030855Y83809D01*
X2030956Y83624D01*
Y83615D01*
X2030975Y83605D01*
X2031012Y83550D01*
X2031086Y83457D01*
X2031178Y83356D01*
X2031299Y83236D01*
X2031456Y83125D01*
X2031622Y83014D01*
X2031826Y82912D01*
X2031835D01*
X2031853Y82903D01*
X2031881Y82893D01*
X2031927Y82875D01*
X2031983Y82857D01*
X2032047Y82838D01*
X2032121Y82819D01*
X2032204Y82801D01*
X2032306Y82773D01*
X2032408Y82755D01*
X2032648Y82718D01*
X2032917Y82690D01*
X2033212Y82681D01*
X2033333D01*
X2033416Y82690D01*
X2033517Y82699D01*
X2033628Y82709D01*
X2033758Y82727D01*
X2033896Y82755D01*
X2034202Y82819D01*
X2034359Y82866D01*
X2034507Y82912D01*
X2034664Y82977D01*
X2034812Y83051D01*
X2034951Y83134D01*
X2035080Y83236D01*
X2035089Y83245D01*
X2035108Y83263D01*
X2035145Y83291D01*
X2035182Y83337D01*
X2035237Y83402D01*
X2035293Y83476D01*
X2035357Y83559D01*
X2035422Y83652D01*
X2035487Y83763D01*
X2035551Y83883D01*
X2035616Y84021D01*
X2035681Y84169D01*
X2035727Y84326D01*
X2035783Y84502D01*
X2035820Y84687D01*
X2035847Y84881D01*
X2034590Y85001D01*
Y84992D01*
X2034581Y84974D01*
Y84937D01*
X2034571Y84900D01*
X2034534Y84789D01*
X2034488Y84650D01*
X2034433Y84493D01*
X2034350Y84336D01*
X2034257Y84197D01*
X2034137Y84068D01*
X2034118Y84058D01*
X2034072Y84021D01*
X2033998Y83975D01*
X2033887Y83920D01*
X2033749Y83864D01*
X2033591Y83818D01*
X2033407Y83781D01*
X2033194Y83772D01*
X2033092D01*
X2032981Y83790D01*
X2032843Y83809D01*
X2032695Y83836D01*
X2032537Y83883D01*
X2032390Y83947D01*
X2032260Y84031D01*
X2032242Y84040D01*
X2032204Y84077D01*
X2032158Y84132D01*
X2032094Y84206D01*
X2032038Y84299D01*
X2031983Y84410D01*
X2031946Y84521D01*
X2031936Y84650D01*
Y84659D01*
Y84687D01*
X2031946Y84733D01*
X2031955Y84789D01*
X2031973Y84844D01*
X2031992Y84909D01*
X2032029Y84974D01*
X2032075Y85038D01*
X2032084Y85048D01*
X2032103Y85066D01*
X2032131Y85094D01*
X2032177Y85131D01*
X2032242Y85177D01*
X2032325Y85223D01*
X2032417Y85270D01*
X2032537Y85316D01*
X2032547D01*
X2032584Y85334D01*
X2032648Y85353D01*
X2032695Y85371D01*
X2032750Y85380D01*
X2032815Y85399D01*
X2032889Y85427D01*
X2032972Y85445D01*
X2033064Y85473D01*
X2033175Y85501D01*
X2033295Y85528D01*
X2033425Y85565D01*
X2033573Y85602D01*
X2033582D01*
X2033619Y85612D01*
X2033675Y85630D01*
X2033739Y85649D01*
X2033822Y85676D01*
X2033924Y85704D01*
X2034026Y85741D01*
X2034146Y85778D01*
X2034386Y85871D01*
X2034618Y85982D01*
X2034738Y86037D01*
X2034839Y86102D01*
X2034941Y86166D01*
X2035025Y86231D01*
X2035034Y86240D01*
X2035052Y86259D01*
X2035080Y86287D01*
X2035117Y86324D01*
X2035163Y86379D01*
X2035209Y86444D01*
X2035265Y86509D01*
X2035311Y86592D01*
X2035422Y86786D01*
X2035515Y87008D01*
X2035551Y87128D01*
X2035579Y87248D01*
X2035598Y87387D01*
X2035607Y87526D01*
Y87535D01*
Y87544D01*
Y87572D01*
Y87609D01*
X2035588Y87701D01*
X2035570Y87821D01*
X2035542Y87960D01*
X2035496Y88117D01*
X2035431Y88284D01*
X2035339Y88441D01*
Y88450D01*
X2035330Y88459D01*
X2035283Y88515D01*
X2035228Y88589D01*
X2035135Y88681D01*
X2035025Y88783D01*
X2034886Y88894D01*
X2034729Y88996D01*
X2034544Y89088D01*
X2034534D01*
X2034516Y89097D01*
X2034488Y89107D01*
X2034451Y89125D01*
X2034396Y89143D01*
X2034340Y89162D01*
X2034266Y89180D01*
X2034183Y89208D01*
X2033998Y89245D01*
X2033786Y89282D01*
X2033545Y89310D01*
X2033277Y89319D01*
X2035847D01*
D02*
G37*
G36*
X2029542Y89199D02*
X2026990D01*
X2026916Y89190D01*
X2026740Y89180D01*
X2026546Y89171D01*
X2026343Y89143D01*
X2026149Y89116D01*
X2025973Y89069D01*
X2025964D01*
X2025945Y89060D01*
X2025918Y89051D01*
X2025881Y89042D01*
X2025770Y88996D01*
X2025640Y88931D01*
X2025492Y88848D01*
X2025326Y88746D01*
X2025169Y88626D01*
X2025011Y88478D01*
X2025002D01*
X2024993Y88459D01*
X2024947Y88404D01*
X2024873Y88311D01*
X2024790Y88191D01*
X2024688Y88043D01*
X2024586Y87868D01*
X2024485Y87664D01*
X2024401Y87442D01*
Y87433D01*
X2024392Y87415D01*
X2024383Y87378D01*
X2024364Y87331D01*
X2024355Y87276D01*
X2024337Y87202D01*
X2024318Y87119D01*
X2024290Y87026D01*
X2024272Y86924D01*
X2024253Y86804D01*
X2024235Y86684D01*
X2024226Y86545D01*
X2024198Y86259D01*
X2024189Y85935D01*
Y85806D01*
X2024198Y85732D01*
Y85658D01*
X2024207Y85565D01*
X2024216Y85464D01*
X2024235Y85251D01*
X2024272Y85029D01*
X2024327Y84798D01*
X2024392Y84576D01*
Y84567D01*
X2024401Y84548D01*
X2024420Y84511D01*
X2024438Y84456D01*
X2024457Y84401D01*
X2024494Y84336D01*
X2024568Y84169D01*
X2024660Y83994D01*
X2024780Y83799D01*
X2024919Y83615D01*
X2025076Y83439D01*
X2025095Y83420D01*
X2025141Y83384D01*
X2025215Y83328D01*
X2025317Y83254D01*
X2025446Y83171D01*
X2025594Y83088D01*
X2025779Y83004D01*
X2025982Y82930D01*
X2025992D01*
X2026001Y82921D01*
X2026028D01*
X2026056Y82912D01*
X2026158Y82893D01*
X2026287Y82866D01*
X2026445Y82838D01*
X2026639Y82819D01*
X2026870Y82810D01*
X2027119Y82801D01*
X2024189D01*
D01*
X2029542D01*
Y89199D01*
D02*
G37*
%LPD*%
G36*
X2020379Y88210D02*
X2020453Y88200D01*
X2020527Y88191D01*
X2020712Y88154D01*
X2020916Y88080D01*
X2021027Y88043D01*
X2021138Y87988D01*
X2021239Y87923D01*
X2021350Y87849D01*
X2021452Y87766D01*
X2021544Y87664D01*
X2021554Y87655D01*
X2021563Y87636D01*
X2021591Y87609D01*
X2021618Y87563D01*
X2021655Y87498D01*
X2021692Y87433D01*
X2021738Y87350D01*
X2021785Y87248D01*
X2021831Y87137D01*
X2021877Y87017D01*
X2021914Y86878D01*
X2021951Y86730D01*
X2021979Y86564D01*
X2022007Y86388D01*
X2022016Y86203D01*
X2022025Y86000D01*
Y85991D01*
Y85954D01*
Y85898D01*
X2022016Y85824D01*
X2022007Y85732D01*
X2021997Y85621D01*
X2021979Y85510D01*
X2021960Y85380D01*
X2021905Y85112D01*
X2021812Y84844D01*
X2021757Y84706D01*
X2021692Y84576D01*
X2021609Y84456D01*
X2021526Y84345D01*
X2021517Y84336D01*
X2021498Y84317D01*
X2021470Y84290D01*
X2021433Y84262D01*
X2021387Y84216D01*
X2021322Y84169D01*
X2021258Y84114D01*
X2021174Y84068D01*
X2020999Y83957D01*
X2020777Y83874D01*
X2020657Y83836D01*
X2020527Y83809D01*
X2020389Y83790D01*
X2020250Y83781D01*
X2020176D01*
X2020121Y83790D01*
X2020056Y83799D01*
X2019982Y83809D01*
X2019806Y83855D01*
X2019603Y83920D01*
X2019501Y83966D01*
X2019390Y84012D01*
X2019288Y84077D01*
X2019178Y84151D01*
X2019076Y84234D01*
X2018983Y84336D01*
X2018974Y84345D01*
X2018965Y84363D01*
X2018937Y84391D01*
X2018909Y84438D01*
X2018863Y84502D01*
X2018826Y84576D01*
X2018780Y84659D01*
X2018734Y84761D01*
X2018687Y84872D01*
X2018641Y84992D01*
X2018595Y85131D01*
X2018558Y85288D01*
X2018530Y85445D01*
X2018503Y85621D01*
X2018493Y85815D01*
X2018484Y86018D01*
Y86028D01*
Y86065D01*
Y86120D01*
X2018493Y86203D01*
X2018503Y86296D01*
X2018512Y86397D01*
X2018521Y86518D01*
X2018549Y86638D01*
X2018604Y86906D01*
X2018687Y87183D01*
X2018743Y87322D01*
X2018808Y87442D01*
X2018891Y87563D01*
X2018974Y87673D01*
X2018983Y87683D01*
X2018993Y87701D01*
X2019020Y87720D01*
X2019057Y87757D01*
X2019113Y87803D01*
X2019168Y87849D01*
X2019233Y87895D01*
X2019316Y87951D01*
X2019399Y87997D01*
X2019501Y88043D01*
X2019714Y88136D01*
X2019834Y88173D01*
X2019963Y88191D01*
X2020102Y88210D01*
X2020250Y88219D01*
X2020324D01*
X2020379Y88210D01*
D02*
G37*
G36*
X2028247Y83883D02*
X2027110D01*
X2026990Y83892D01*
X2026861D01*
X2026731Y83911D01*
X2026611Y83920D01*
X2026509Y83938D01*
X2026491D01*
X2026454Y83957D01*
X2026398Y83975D01*
X2026324Y84003D01*
X2026241Y84040D01*
X2026158Y84086D01*
X2026075Y84142D01*
X2025992Y84206D01*
X2025982Y84216D01*
X2025954Y84243D01*
X2025918Y84290D01*
X2025871Y84354D01*
X2025825Y84438D01*
X2025760Y84539D01*
X2025714Y84669D01*
X2025659Y84817D01*
Y84826D01*
X2025649Y84835D01*
Y84863D01*
X2025640Y84900D01*
X2025622Y84937D01*
X2025612Y84992D01*
X2025585Y85131D01*
X2025566Y85297D01*
X2025538Y85492D01*
X2025529Y85732D01*
X2025520Y85991D01*
Y86000D01*
Y86028D01*
Y86065D01*
Y86111D01*
Y86176D01*
X2025529Y86250D01*
X2025538Y86407D01*
X2025557Y86592D01*
X2025576Y86786D01*
X2025612Y86961D01*
X2025659Y87128D01*
Y87137D01*
X2025668Y87146D01*
X2025686Y87193D01*
X2025714Y87267D01*
X2025751Y87359D01*
X2025807Y87451D01*
X2025871Y87553D01*
X2025945Y87655D01*
X2026028Y87747D01*
X2026038Y87757D01*
X2026066Y87784D01*
X2026121Y87821D01*
X2026186Y87868D01*
X2026278Y87923D01*
X2026380Y87969D01*
X2026491Y88015D01*
X2026620Y88053D01*
X2026629D01*
X2026676Y88062D01*
X2026750Y88071D01*
X2026851Y88090D01*
X2026916D01*
X2026999Y88099D01*
X2027083D01*
X2027175Y88108D01*
X2027286D01*
X2027406Y88117D01*
X2028247D01*
Y83883D01*
D02*
G37*
%LPC*%
G36*
X2071995Y89319D02*
Y86120D01*
X2071986Y86185D01*
Y86277D01*
X2071977Y86379D01*
X2071958Y86490D01*
X2071940Y86619D01*
X2071893Y86888D01*
X2071820Y87193D01*
X2071718Y87498D01*
X2071653Y87646D01*
X2071579Y87794D01*
X2071570Y87803D01*
X2071561Y87831D01*
X2071533Y87868D01*
X2071505Y87923D01*
X2071459Y87988D01*
X2071404Y88062D01*
X2071339Y88145D01*
X2071274Y88237D01*
X2071191Y88330D01*
X2071098Y88432D01*
X2070997Y88533D01*
X2070886Y88635D01*
X2070766Y88727D01*
X2070645Y88829D01*
X2070359Y88996D01*
X2070349D01*
X2070331Y89014D01*
X2070294Y89023D01*
X2070248Y89051D01*
X2070183Y89069D01*
X2070118Y89097D01*
X2070026Y89125D01*
X2069933Y89162D01*
X2069832Y89190D01*
X2069712Y89217D01*
X2069582Y89245D01*
X2069453Y89273D01*
X2069157Y89310D01*
X2068824Y89319D01*
X2066013D01*
X2068713D01*
X2068630Y89310D01*
X2068528Y89301D01*
X2068408Y89291D01*
X2068279Y89282D01*
X2068140Y89254D01*
X2067844Y89199D01*
X2067539Y89107D01*
X2067382Y89051D01*
X2067234Y88986D01*
X2067095Y88912D01*
X2066966Y88820D01*
X2066956Y88811D01*
X2066938Y88801D01*
X2066901Y88764D01*
X2066855Y88727D01*
X2066799Y88681D01*
X2066744Y88617D01*
X2066679Y88542D01*
X2066605Y88459D01*
X2066531Y88367D01*
X2066457Y88265D01*
X2066383Y88154D01*
X2066318Y88025D01*
X2066245Y87895D01*
X2066189Y87757D01*
X2066134Y87599D01*
X2066096Y87442D01*
X2067382Y87202D01*
Y87211D01*
X2067391Y87220D01*
X2067409Y87276D01*
X2067446Y87359D01*
X2067502Y87470D01*
X2067567Y87590D01*
X2067659Y87710D01*
X2067770Y87831D01*
X2067899Y87942D01*
X2067918Y87951D01*
X2067964Y87988D01*
X2068047Y88034D01*
X2068149Y88080D01*
X2068288Y88136D01*
X2068445Y88173D01*
X2068621Y88210D01*
X2068824Y88219D01*
X2068907D01*
X2068963Y88210D01*
X2069037Y88200D01*
X2069120Y88191D01*
X2069212Y88173D01*
X2069314Y88154D01*
X2069527Y88090D01*
X2069638Y88043D01*
X2069749Y87988D01*
X2069859Y87923D01*
X2069970Y87858D01*
X2070072Y87766D01*
X2070174Y87673D01*
X2070183Y87664D01*
X2070192Y87646D01*
X2070220Y87618D01*
X2070248Y87572D01*
X2070285Y87516D01*
X2070331Y87451D01*
X2070377Y87368D01*
X2070414Y87276D01*
X2070461Y87165D01*
X2070507Y87045D01*
X2070553Y86915D01*
X2070590Y86777D01*
X2070618Y86619D01*
X2070645Y86444D01*
X2070655Y86268D01*
X2070664Y86074D01*
Y86065D01*
Y86028D01*
Y85963D01*
X2070655Y85889D01*
X2070645Y85787D01*
X2070636Y85686D01*
X2070618Y85556D01*
X2070599Y85427D01*
X2070544Y85149D01*
X2070451Y84863D01*
X2070396Y84724D01*
X2070331Y84595D01*
X2070248Y84465D01*
X2070165Y84354D01*
X2070155Y84345D01*
X2070137Y84326D01*
X2070109Y84299D01*
X2070072Y84262D01*
X2070017Y84225D01*
X2069961Y84169D01*
X2069887Y84123D01*
X2069804Y84068D01*
X2069712Y84012D01*
X2069619Y83966D01*
X2069388Y83874D01*
X2069259Y83836D01*
X2069129Y83809D01*
X2068981Y83790D01*
X2068833Y83781D01*
X2068759D01*
X2068685Y83790D01*
X2068574Y83799D01*
X2068454Y83818D01*
X2068315Y83846D01*
X2068168Y83883D01*
X2068020Y83938D01*
X2068010D01*
X2068001Y83947D01*
X2067955Y83966D01*
X2067872Y84003D01*
X2067779Y84049D01*
X2067668Y84105D01*
X2067548Y84169D01*
X2067428Y84243D01*
X2067317Y84326D01*
Y85149D01*
X2068796D01*
Y86231D01*
X2066013D01*
Y82681D01*
Y83661D01*
X2066032Y83642D01*
X2066060Y83624D01*
X2066087Y83596D01*
X2066134Y83559D01*
X2066180Y83522D01*
X2066309Y83430D01*
X2066485Y83328D01*
X2066688Y83208D01*
X2066919Y83088D01*
X2067197Y82977D01*
X2067206D01*
X2067234Y82967D01*
X2067271Y82949D01*
X2067326Y82930D01*
X2067400Y82912D01*
X2067483Y82884D01*
X2067576Y82857D01*
X2067677Y82829D01*
X2067909Y82773D01*
X2068177Y82727D01*
X2068454Y82690D01*
X2068750Y82681D01*
X2071995D01*
Y89319D01*
D02*
G37*
G36*
X2064811Y89199D02*
X2063563D01*
X2060919Y84890D01*
Y89199D01*
X2059726D01*
Y82801D01*
X2064811D01*
Y89199D01*
D02*
G37*
G36*
X2058358D02*
X2055806D01*
X2055732Y89190D01*
X2055556Y89180D01*
X2055362Y89171D01*
X2055159Y89143D01*
X2054965Y89116D01*
X2054789Y89069D01*
X2054780D01*
X2054761Y89060D01*
X2054734Y89051D01*
X2054697Y89042D01*
X2054586Y88996D01*
X2054456Y88931D01*
X2054308Y88848D01*
X2054142Y88746D01*
X2053985Y88626D01*
X2053828Y88478D01*
X2053818D01*
X2053809Y88459D01*
X2053763Y88404D01*
X2053689Y88311D01*
X2053606Y88191D01*
X2053504Y88043D01*
X2053402Y87868D01*
X2053301Y87664D01*
X2053217Y87442D01*
Y87433D01*
X2053208Y87415D01*
X2053199Y87378D01*
X2053180Y87331D01*
X2053171Y87276D01*
X2053153Y87202D01*
X2053134Y87119D01*
X2053107Y87026D01*
X2053088Y86924D01*
X2053069Y86804D01*
X2053051Y86684D01*
X2053042Y86545D01*
X2053014Y86259D01*
X2053005Y85935D01*
Y85806D01*
X2053014Y85732D01*
Y85658D01*
X2053023Y85565D01*
X2053033Y85464D01*
X2053051Y85251D01*
X2053088Y85029D01*
X2053143Y84798D01*
X2053208Y84576D01*
Y84567D01*
X2053217Y84548D01*
X2053236Y84511D01*
X2053254Y84456D01*
X2053273Y84401D01*
X2053310Y84336D01*
X2053384Y84169D01*
X2053476Y83994D01*
X2053596Y83799D01*
X2053735Y83615D01*
X2053892Y83439D01*
X2053911Y83420D01*
X2053957Y83384D01*
X2054031Y83328D01*
X2054133Y83254D01*
X2054262Y83171D01*
X2054410Y83088D01*
X2054595Y83004D01*
X2054798Y82930D01*
X2054808D01*
X2054817Y82921D01*
X2054845D01*
X2054872Y82912D01*
X2054974Y82893D01*
X2055103Y82866D01*
X2055261Y82838D01*
X2055455Y82819D01*
X2055686Y82810D01*
X2055936Y82801D01*
X2053005D01*
D01*
X2058358D01*
Y89199D01*
D02*
G37*
%LPD*%
G36*
X2071995Y82681D02*
X2068852D01*
X2068916Y82690D01*
X2069009D01*
X2069111Y82699D01*
X2069221Y82718D01*
X2069351Y82736D01*
X2069619Y82782D01*
X2069915Y82857D01*
X2070220Y82958D01*
X2070359Y83023D01*
X2070507Y83097D01*
X2070516Y83106D01*
X2070534Y83115D01*
X2070581Y83143D01*
X2070627Y83180D01*
X2070692Y83217D01*
X2070756Y83272D01*
X2070840Y83337D01*
X2070923Y83411D01*
X2071108Y83578D01*
X2071293Y83790D01*
X2071468Y84031D01*
X2071625Y84308D01*
Y84317D01*
X2071644Y84345D01*
X2071662Y84391D01*
X2071681Y84447D01*
X2071709Y84521D01*
X2071746Y84604D01*
X2071773Y84706D01*
X2071810Y84817D01*
X2071847Y84937D01*
X2071875Y85075D01*
X2071940Y85362D01*
X2071977Y85676D01*
X2071995Y86018D01*
Y82681D01*
D02*
G37*
G36*
X2063619Y82801D02*
X2061021D01*
X2063619Y87017D01*
Y82801D01*
D02*
G37*
G36*
X2057064Y83883D02*
X2055926D01*
X2055806Y83892D01*
X2055677D01*
X2055547Y83911D01*
X2055427Y83920D01*
X2055325Y83938D01*
X2055307D01*
X2055270Y83957D01*
X2055215Y83975D01*
X2055141Y84003D01*
X2055057Y84040D01*
X2054974Y84086D01*
X2054891Y84142D01*
X2054808Y84206D01*
X2054798Y84216D01*
X2054771Y84243D01*
X2054734Y84290D01*
X2054688Y84354D01*
X2054641Y84438D01*
X2054577Y84539D01*
X2054530Y84669D01*
X2054475Y84817D01*
Y84826D01*
X2054466Y84835D01*
Y84863D01*
X2054456Y84900D01*
X2054438Y84937D01*
X2054429Y84992D01*
X2054401Y85131D01*
X2054382Y85297D01*
X2054355Y85492D01*
X2054345Y85732D01*
X2054336Y85991D01*
Y86000D01*
Y86028D01*
Y86065D01*
Y86111D01*
Y86176D01*
X2054345Y86250D01*
X2054355Y86407D01*
X2054373Y86592D01*
X2054392Y86786D01*
X2054429Y86961D01*
X2054475Y87128D01*
Y87137D01*
X2054484Y87146D01*
X2054503Y87193D01*
X2054530Y87267D01*
X2054567Y87359D01*
X2054623Y87451D01*
X2054688Y87553D01*
X2054761Y87655D01*
X2054845Y87747D01*
X2054854Y87757D01*
X2054882Y87784D01*
X2054937Y87821D01*
X2055002Y87868D01*
X2055094Y87923D01*
X2055196Y87969D01*
X2055307Y88015D01*
X2055436Y88053D01*
X2055446D01*
X2055492Y88062D01*
X2055566Y88071D01*
X2055668Y88090D01*
X2055732D01*
X2055815Y88099D01*
X2055899D01*
X2055991Y88108D01*
X2056102D01*
X2056222Y88117D01*
X2057064D01*
Y83883D01*
D02*
G37*
%LPC*%
G36*
X2114597Y113217D02*
X2114056D01*
X2113991Y113208D01*
X2113908Y113199D01*
X2113815Y113190D01*
X2113714Y113171D01*
X2113603Y113153D01*
X2113362Y113088D01*
X2113122Y112996D01*
X2112993Y112940D01*
X2112882Y112875D01*
X2112761Y112792D01*
X2112660Y112700D01*
X2112650Y112690D01*
X2112632Y112681D01*
X2112614Y112644D01*
X2112576Y112607D01*
X2112530Y112561D01*
X2112484Y112496D01*
X2112438Y112432D01*
X2112382Y112348D01*
X2112290Y112163D01*
X2112197Y111951D01*
X2112160Y111831D01*
X2112142Y111701D01*
X2112124Y111562D01*
X2112114Y111424D01*
Y111636D01*
Y111424D01*
Y106783D01*
X2116413D01*
Y106810D01*
X2116404Y106847D01*
X2116395Y106894D01*
X2116386Y106949D01*
X2116376Y107014D01*
X2116340Y107180D01*
X2116284Y107365D01*
X2116210Y107568D01*
X2116118Y107790D01*
X2115997Y108003D01*
Y108012D01*
X2115979Y108031D01*
X2115960Y108068D01*
X2115923Y108105D01*
X2115886Y108169D01*
X2115831Y108234D01*
X2115766Y108317D01*
X2115692Y108410D01*
X2115609Y108521D01*
X2115507Y108632D01*
X2115396Y108761D01*
X2115267Y108900D01*
X2115128Y109038D01*
X2114971Y109196D01*
X2114805Y109362D01*
X2114620Y109538D01*
X2114610Y109547D01*
X2114583Y109575D01*
X2114546Y109612D01*
X2114490Y109667D01*
X2114416Y109723D01*
X2114342Y109797D01*
X2114176Y109963D01*
X2114010Y110139D01*
X2113843Y110314D01*
X2113769Y110388D01*
X2113695Y110471D01*
X2113640Y110536D01*
X2113603Y110592D01*
X2113593Y110610D01*
X2113566Y110656D01*
X2113519Y110730D01*
X2113473Y110832D01*
X2113427Y110943D01*
X2113381Y111073D01*
X2113353Y111202D01*
X2113344Y111341D01*
Y111350D01*
Y111359D01*
Y111405D01*
X2113353Y111489D01*
X2113372Y111581D01*
X2113399Y111683D01*
X2113436Y111784D01*
X2113492Y111886D01*
X2113566Y111979D01*
X2113575Y111988D01*
X2113603Y112015D01*
X2113658Y112052D01*
X2113723Y112090D01*
X2113815Y112127D01*
X2113917Y112163D01*
X2114037Y112191D01*
X2114176Y112200D01*
X2114241D01*
X2114315Y112191D01*
X2114398Y112173D01*
X2114500Y112145D01*
X2114601Y112099D01*
X2114703Y112043D01*
X2114795Y111969D01*
X2114805Y111960D01*
X2114832Y111923D01*
X2114869Y111868D01*
X2114906Y111784D01*
X2114953Y111683D01*
X2114990Y111544D01*
X2115027Y111387D01*
X2115045Y111202D01*
X2116266Y111322D01*
Y111331D01*
X2116256Y111368D01*
Y111415D01*
X2116238Y111489D01*
X2116228Y111572D01*
X2116201Y111664D01*
X2116173Y111766D01*
X2116145Y111886D01*
X2116053Y112117D01*
X2115942Y112358D01*
X2115868Y112478D01*
X2115785Y112589D01*
X2115692Y112681D01*
X2115591Y112774D01*
X2115581Y112783D01*
X2115563Y112792D01*
X2115535Y112811D01*
X2115489Y112848D01*
X2115433Y112875D01*
X2115359Y112912D01*
X2115285Y112959D01*
X2115193Y112996D01*
X2115091Y113042D01*
X2114980Y113079D01*
X2114740Y113153D01*
X2114453Y113199D01*
X2114305Y113208D01*
X2114148Y113217D01*
X2114597D01*
D02*
G37*
G36*
X2122432Y113181D02*
X2119622D01*
X2119455Y113171D01*
X2119270Y113162D01*
X2119085Y113153D01*
X2118910Y113134D01*
X2118753Y113116D01*
X2118734D01*
X2118688Y113106D01*
X2118623Y113088D01*
X2118531Y113060D01*
X2118429Y113023D01*
X2118318Y112977D01*
X2118198Y112922D01*
X2118087Y112848D01*
X2118078Y112838D01*
X2118041Y112811D01*
X2117985Y112764D01*
X2117911Y112709D01*
X2117837Y112626D01*
X2117754Y112533D01*
X2117671Y112432D01*
X2117597Y112311D01*
X2117588Y112293D01*
X2117569Y112256D01*
X2117532Y112182D01*
X2117495Y112090D01*
X2117458Y111979D01*
X2117421Y111858D01*
X2117403Y111710D01*
X2117393Y111562D01*
Y111553D01*
Y111544D01*
Y111489D01*
X2117403Y111405D01*
X2117421Y111294D01*
X2117458Y111165D01*
X2117495Y111026D01*
X2117560Y110888D01*
X2117643Y110740D01*
X2117652Y110721D01*
X2117689Y110675D01*
X2117745Y110610D01*
X2117809Y110527D01*
X2117902Y110444D01*
X2118013Y110342D01*
X2118142Y110259D01*
X2118290Y110176D01*
X2118281D01*
X2118262Y110166D01*
X2118235Y110157D01*
X2118198Y110148D01*
X2118087Y110102D01*
X2117957Y110037D01*
X2117819Y109963D01*
X2117662Y109861D01*
X2117523Y109741D01*
X2117393Y109593D01*
X2117384Y109575D01*
X2117347Y109519D01*
X2117292Y109436D01*
X2117236Y109325D01*
X2117181Y109177D01*
X2117125Y109020D01*
X2117088Y108835D01*
X2117079Y108632D01*
Y113181D01*
D01*
Y106783D01*
X2122432D01*
Y113181D01*
D02*
G37*
G36*
X2128886D02*
X2126001D01*
X2125918Y113171D01*
X2125816D01*
X2125715Y113162D01*
X2125594D01*
X2125354Y113134D01*
X2125104Y113106D01*
X2124873Y113060D01*
X2124771Y113033D01*
X2124679Y113005D01*
X2124670D01*
X2124660Y112996D01*
X2124605Y112968D01*
X2124522Y112922D01*
X2124411Y112866D01*
X2124291Y112774D01*
X2124171Y112672D01*
X2124050Y112542D01*
X2123939Y112385D01*
Y112376D01*
X2123930Y112367D01*
X2123912Y112339D01*
X2123893Y112311D01*
X2123847Y112219D01*
X2123791Y112099D01*
X2123745Y111951D01*
X2123699Y111784D01*
X2123662Y111590D01*
X2123653Y111387D01*
Y111378D01*
Y111359D01*
Y111313D01*
X2123662Y111267D01*
Y111202D01*
X2123671Y111137D01*
X2123708Y110971D01*
X2123754Y110777D01*
X2123828Y110583D01*
X2123939Y110379D01*
X2124004Y110287D01*
X2124078Y110194D01*
X2124087Y110185D01*
X2124097Y110176D01*
X2124124Y110148D01*
X2124161Y110120D01*
X2124198Y110083D01*
X2124254Y110037D01*
X2124318Y109991D01*
X2124392Y109944D01*
X2124476Y109889D01*
X2124577Y109843D01*
X2124679Y109797D01*
X2124790Y109750D01*
X2124919Y109704D01*
X2125049Y109667D01*
X2125188Y109630D01*
X2125345Y109602D01*
X2125335D01*
X2125326Y109593D01*
X2125271Y109556D01*
X2125197Y109510D01*
X2125104Y109445D01*
X2124993Y109362D01*
X2124882Y109279D01*
X2124762Y109177D01*
X2124660Y109066D01*
X2124651Y109057D01*
X2124605Y109011D01*
X2124550Y108937D01*
X2124466Y108826D01*
X2124355Y108687D01*
X2124300Y108595D01*
X2124235Y108502D01*
X2124161Y108400D01*
X2124087Y108290D01*
X2124004Y108160D01*
X2123921Y108031D01*
X2123135Y106783D01*
Y113181D01*
D01*
Y106783D01*
X2128886D01*
Y113181D01*
D02*
G37*
%LPD*%
G36*
X2112124Y111267D02*
X2112133Y111165D01*
X2112151Y111035D01*
X2112179Y110897D01*
X2112216Y110749D01*
X2112271Y110601D01*
X2112281Y110583D01*
X2112299Y110536D01*
X2112336Y110453D01*
X2112392Y110351D01*
X2112456Y110231D01*
X2112540Y110092D01*
X2112641Y109944D01*
X2112761Y109787D01*
X2112771Y109778D01*
X2112808Y109732D01*
X2112863Y109667D01*
X2112946Y109575D01*
X2113057Y109464D01*
X2113196Y109316D01*
X2113362Y109159D01*
X2113566Y108965D01*
X2113575Y108955D01*
X2113593Y108946D01*
X2113621Y108918D01*
X2113658Y108881D01*
X2113760Y108789D01*
X2113880Y108678D01*
X2114000Y108558D01*
X2114120Y108438D01*
X2114232Y108336D01*
X2114268Y108290D01*
X2114305Y108253D01*
X2114315Y108243D01*
X2114333Y108225D01*
X2114361Y108188D01*
X2114398Y108142D01*
X2114481Y108040D01*
X2114555Y107920D01*
X2112114D01*
Y111350D01*
X2112124Y111267D01*
D02*
G37*
G36*
X2121138Y110638D02*
X2119899D01*
X2119742Y110647D01*
X2119455D01*
X2119400Y110656D01*
X2119344D01*
X2119307Y110666D01*
X2119252Y110675D01*
X2119169Y110703D01*
X2119085Y110730D01*
X2119002Y110767D01*
X2118919Y110814D01*
X2118845Y110878D01*
X2118836Y110888D01*
X2118817Y110915D01*
X2118780Y110952D01*
X2118743Y111017D01*
X2118716Y111091D01*
X2118679Y111174D01*
X2118660Y111276D01*
X2118651Y111387D01*
Y111396D01*
Y111433D01*
X2118660Y111489D01*
X2118669Y111562D01*
X2118688Y111636D01*
X2118725Y111710D01*
X2118762Y111794D01*
X2118817Y111868D01*
X2118826Y111877D01*
X2118845Y111895D01*
X2118891Y111932D01*
X2118938Y111969D01*
X2119011Y112006D01*
X2119095Y112043D01*
X2119196Y112071D01*
X2119307Y112090D01*
X2119317D01*
X2119353Y112099D01*
X2119455D01*
X2119511Y112108D01*
X2119751D01*
X2119853Y112117D01*
X2121138D01*
Y110638D01*
D02*
G37*
G36*
Y107864D02*
X2119714D01*
X2119575Y107873D01*
X2119427D01*
X2119280Y107883D01*
X2119159Y107892D01*
X2119104D01*
X2119067Y107901D01*
X2119058D01*
X2119021Y107910D01*
X2118965Y107929D01*
X2118900Y107948D01*
X2118826Y107985D01*
X2118743Y108031D01*
X2118669Y108086D01*
X2118595Y108151D01*
X2118586Y108160D01*
X2118568Y108188D01*
X2118540Y108234D01*
X2118503Y108299D01*
X2118466Y108373D01*
X2118438Y108465D01*
X2118420Y108576D01*
X2118410Y108696D01*
Y108706D01*
Y108743D01*
X2118420Y108798D01*
X2118429Y108863D01*
X2118448Y108946D01*
X2118475Y109020D01*
X2118512Y109103D01*
X2118558Y109186D01*
X2118568Y109196D01*
X2118586Y109223D01*
X2118614Y109260D01*
X2118660Y109297D01*
X2118716Y109353D01*
X2118790Y109399D01*
X2118873Y109445D01*
X2118965Y109482D01*
X2118974D01*
X2119021Y109501D01*
X2119095Y109510D01*
X2119141Y109519D01*
X2119206Y109529D01*
X2119270Y109538D01*
X2119353Y109547D01*
X2119446Y109556D01*
X2119557D01*
X2119668Y109565D01*
X2119797Y109575D01*
X2121138D01*
Y107864D01*
D02*
G37*
G36*
X2117088Y108475D02*
X2117107Y108364D01*
X2117125Y108234D01*
X2117162Y108086D01*
X2117218Y107938D01*
X2117283Y107781D01*
X2117292Y107763D01*
X2117319Y107716D01*
X2117366Y107642D01*
X2117430Y107550D01*
X2117504Y107439D01*
X2117606Y107337D01*
X2117708Y107226D01*
X2117837Y107125D01*
X2117856Y107115D01*
X2117902Y107088D01*
X2117976Y107041D01*
X2118078Y106995D01*
X2118207Y106940D01*
X2118355Y106894D01*
X2118521Y106847D01*
X2118706Y106819D01*
X2118743D01*
X2118780Y106810D01*
X2118873D01*
X2118938Y106801D01*
X2119113D01*
X2119224Y106792D01*
X2119501D01*
X2119659Y106783D01*
X2117079D01*
Y108558D01*
X2117088Y108475D01*
D02*
G37*
G36*
X2127591Y110471D02*
X2126334D01*
X2126149Y110481D01*
X2125955Y110490D01*
X2125761Y110499D01*
X2125677Y110508D01*
X2125603Y110518D01*
X2125530Y110536D01*
X2125483Y110546D01*
X2125474D01*
X2125446Y110564D01*
X2125400Y110583D01*
X2125354Y110610D01*
X2125234Y110693D01*
X2125178Y110749D01*
X2125123Y110814D01*
X2125114Y110823D01*
X2125104Y110851D01*
X2125076Y110888D01*
X2125049Y110943D01*
X2125030Y111017D01*
X2125003Y111100D01*
X2124993Y111193D01*
X2124984Y111294D01*
Y111313D01*
Y111350D01*
X2124993Y111405D01*
X2125003Y111479D01*
X2125030Y111562D01*
X2125058Y111646D01*
X2125104Y111738D01*
X2125160Y111812D01*
X2125169Y111821D01*
X2125188Y111849D01*
X2125234Y111877D01*
X2125289Y111923D01*
X2125354Y111969D01*
X2125437Y112006D01*
X2125539Y112043D01*
X2125650Y112071D01*
X2125659D01*
X2125687Y112080D01*
X2125742D01*
X2125825Y112090D01*
X2126029D01*
X2126112Y112099D01*
X2127591D01*
Y110471D01*
D02*
G37*
G36*
Y106783D02*
X2124688D01*
X2125613Y108169D01*
X2125622Y108179D01*
X2125631Y108206D01*
X2125659Y108243D01*
X2125696Y108290D01*
X2125733Y108345D01*
X2125779Y108419D01*
X2125881Y108567D01*
X2126001Y108733D01*
X2126112Y108881D01*
X2126214Y109020D01*
X2126260Y109066D01*
X2126297Y109112D01*
X2126306Y109122D01*
X2126325Y109140D01*
X2126362Y109177D01*
X2126408Y109223D01*
X2126473Y109260D01*
X2126537Y109307D01*
X2126611Y109344D01*
X2126685Y109381D01*
X2126694D01*
X2126722Y109390D01*
X2126768Y109408D01*
X2126842Y109417D01*
X2126935Y109436D01*
X2127046Y109445D01*
X2127175Y109454D01*
X2127591D01*
Y106783D01*
D02*
G37*
%LPC*%
G36*
X2054594Y113213D02*
X2049989D01*
X2050784D01*
Y109145D01*
X2049989D01*
Y108072D01*
X2050784D01*
Y106787D01*
X2051968D01*
Y108072D01*
X2054594D01*
Y107555D01*
Y109136D01*
X2051820Y113213D01*
X2054594D01*
D02*
G37*
G36*
X2067011Y113185D02*
X2064126D01*
X2064043Y113176D01*
X2063941D01*
X2063839Y113167D01*
X2063719D01*
X2063479Y113139D01*
X2063229Y113111D01*
X2062998Y113065D01*
X2062896Y113037D01*
X2062804Y113010D01*
X2062795D01*
X2062785Y113000D01*
X2062730Y112972D01*
X2062647Y112926D01*
X2062536Y112871D01*
X2062415Y112778D01*
X2062295Y112677D01*
X2062175Y112547D01*
X2062064Y112390D01*
Y112381D01*
X2062055Y112372D01*
X2062036Y112344D01*
X2062018Y112316D01*
X2061972Y112224D01*
X2061916Y112103D01*
X2061870Y111955D01*
X2061824Y111789D01*
X2061787Y111595D01*
X2061778Y111391D01*
Y111382D01*
Y111364D01*
Y111318D01*
X2061787Y111271D01*
Y111207D01*
X2061796Y111142D01*
X2061833Y110975D01*
X2061879Y110781D01*
X2061953Y110587D01*
X2062064Y110384D01*
X2062129Y110291D01*
X2062203Y110199D01*
X2062212Y110190D01*
X2062221Y110180D01*
X2062249Y110153D01*
X2062286Y110125D01*
X2062323Y110088D01*
X2062379Y110042D01*
X2062443Y109995D01*
X2062517Y109949D01*
X2062600Y109894D01*
X2062702Y109847D01*
X2062804Y109801D01*
X2062915Y109755D01*
X2063044Y109709D01*
X2063174Y109672D01*
X2063312Y109635D01*
X2063470Y109607D01*
X2063460D01*
X2063451Y109598D01*
X2063396Y109561D01*
X2063322Y109515D01*
X2063229Y109450D01*
X2063118Y109367D01*
X2063007Y109284D01*
X2062887Y109182D01*
X2062785Y109071D01*
X2062776Y109062D01*
X2062730Y109015D01*
X2062674Y108941D01*
X2062591Y108830D01*
X2062480Y108692D01*
X2062425Y108599D01*
X2062360Y108507D01*
X2062286Y108405D01*
X2062212Y108294D01*
X2062129Y108165D01*
X2062046Y108035D01*
X2061260Y106787D01*
X2067011D01*
Y113185D01*
D02*
G37*
G36*
X2060557D02*
X2055204D01*
X2057746D01*
X2057580Y113176D01*
X2057395Y113167D01*
X2057210Y113157D01*
X2057035Y113139D01*
X2056877Y113120D01*
X2056859D01*
X2056813Y113111D01*
X2056748Y113093D01*
X2056655Y113065D01*
X2056554Y113028D01*
X2056443Y112982D01*
X2056323Y112926D01*
X2056212Y112852D01*
X2056203Y112843D01*
X2056165Y112815D01*
X2056110Y112769D01*
X2056036Y112714D01*
X2055962Y112630D01*
X2055879Y112538D01*
X2055796Y112436D01*
X2055722Y112316D01*
X2055712Y112297D01*
X2055694Y112261D01*
X2055657Y112187D01*
X2055620Y112094D01*
X2055583Y111983D01*
X2055546Y111863D01*
X2055527Y111715D01*
X2055518Y111567D01*
Y111558D01*
Y111549D01*
Y111493D01*
X2055527Y111410D01*
X2055546Y111299D01*
X2055583Y111170D01*
X2055620Y111031D01*
X2055685Y110892D01*
X2055768Y110744D01*
X2055777Y110726D01*
X2055814Y110680D01*
X2055870Y110615D01*
X2055934Y110532D01*
X2056027Y110448D01*
X2056138Y110347D01*
X2056267Y110264D01*
X2056415Y110180D01*
X2056406D01*
X2056387Y110171D01*
X2056360Y110162D01*
X2056323Y110153D01*
X2056212Y110106D01*
X2056082Y110042D01*
X2055944Y109968D01*
X2055786Y109866D01*
X2055648Y109746D01*
X2055518Y109598D01*
X2055509Y109579D01*
X2055472Y109524D01*
X2055417Y109441D01*
X2055361Y109330D01*
X2055306Y109182D01*
X2055250Y109025D01*
X2055213Y108840D01*
X2055204Y108636D01*
Y108562D01*
X2055213Y108479D01*
X2055232Y108368D01*
X2055250Y108239D01*
X2055287Y108091D01*
X2055343Y107943D01*
X2055407Y107786D01*
X2055417Y107767D01*
X2055444Y107721D01*
X2055491Y107647D01*
X2055555Y107555D01*
X2055629Y107444D01*
X2055731Y107342D01*
X2055833Y107231D01*
X2055962Y107129D01*
X2055981Y107120D01*
X2056027Y107092D01*
X2056101Y107046D01*
X2056203Y107000D01*
X2056332Y106944D01*
X2056480Y106898D01*
X2056646Y106852D01*
X2056831Y106824D01*
X2056868D01*
X2056905Y106815D01*
X2056998D01*
X2057062Y106806D01*
X2057238D01*
X2057349Y106796D01*
X2057626D01*
X2057784Y106787D01*
X2060557D01*
Y113185D01*
D02*
G37*
%LPD*%
G36*
X2053457Y109145D02*
X2051968D01*
Y111345D01*
X2053457Y109145D01*
D02*
G37*
G36*
X2065716Y110476D02*
X2064459D01*
X2064274Y110485D01*
X2064080Y110495D01*
X2063886Y110504D01*
X2063802Y110513D01*
X2063728Y110522D01*
X2063654Y110541D01*
X2063608Y110550D01*
X2063599D01*
X2063571Y110569D01*
X2063525Y110587D01*
X2063479Y110615D01*
X2063359Y110698D01*
X2063303Y110753D01*
X2063248Y110818D01*
X2063238Y110828D01*
X2063229Y110855D01*
X2063201Y110892D01*
X2063174Y110948D01*
X2063155Y111022D01*
X2063127Y111105D01*
X2063118Y111197D01*
X2063109Y111299D01*
Y111318D01*
Y111355D01*
X2063118Y111410D01*
X2063127Y111484D01*
X2063155Y111567D01*
X2063183Y111650D01*
X2063229Y111743D01*
X2063285Y111817D01*
X2063294Y111826D01*
X2063312Y111854D01*
X2063359Y111882D01*
X2063414Y111928D01*
X2063479Y111974D01*
X2063562Y112011D01*
X2063664Y112048D01*
X2063775Y112076D01*
X2063784D01*
X2063812Y112085D01*
X2063867D01*
X2063950Y112094D01*
X2064154D01*
X2064237Y112103D01*
X2065716D01*
Y110476D01*
D02*
G37*
G36*
Y106787D02*
X2062813D01*
X2063738Y108174D01*
X2063747Y108183D01*
X2063756Y108211D01*
X2063784Y108248D01*
X2063821Y108294D01*
X2063858Y108350D01*
X2063904Y108424D01*
X2064006Y108572D01*
X2064126Y108738D01*
X2064237Y108886D01*
X2064339Y109025D01*
X2064385Y109071D01*
X2064422Y109117D01*
X2064431Y109126D01*
X2064449Y109145D01*
X2064487Y109182D01*
X2064533Y109228D01*
X2064597Y109265D01*
X2064662Y109311D01*
X2064736Y109348D01*
X2064810Y109385D01*
X2064819D01*
X2064847Y109394D01*
X2064893Y109413D01*
X2064967Y109422D01*
X2065060Y109441D01*
X2065171Y109450D01*
X2065300Y109459D01*
X2065716D01*
Y106787D01*
D02*
G37*
G36*
X2059263Y110643D02*
X2058024D01*
X2057867Y110652D01*
X2057580D01*
X2057525Y110661D01*
X2057469D01*
X2057432Y110670D01*
X2057377Y110680D01*
X2057293Y110707D01*
X2057210Y110735D01*
X2057127Y110772D01*
X2057044Y110818D01*
X2056970Y110883D01*
X2056961Y110892D01*
X2056942Y110920D01*
X2056905Y110957D01*
X2056868Y111022D01*
X2056840Y111096D01*
X2056803Y111179D01*
X2056785Y111280D01*
X2056776Y111391D01*
Y111401D01*
Y111438D01*
X2056785Y111493D01*
X2056794Y111567D01*
X2056813Y111641D01*
X2056850Y111715D01*
X2056887Y111798D01*
X2056942Y111872D01*
X2056951Y111882D01*
X2056970Y111900D01*
X2057016Y111937D01*
X2057062Y111974D01*
X2057136Y112011D01*
X2057220Y112048D01*
X2057321Y112076D01*
X2057432Y112094D01*
X2057441D01*
X2057478Y112103D01*
X2057580D01*
X2057635Y112113D01*
X2057876D01*
X2057978Y112122D01*
X2059263D01*
Y110643D01*
D02*
G37*
G36*
Y107869D02*
X2057839D01*
X2057700Y107878D01*
X2057552D01*
X2057404Y107887D01*
X2057284Y107897D01*
X2057229D01*
X2057192Y107906D01*
X2057182D01*
X2057146Y107915D01*
X2057090Y107934D01*
X2057025Y107952D01*
X2056951Y107989D01*
X2056868Y108035D01*
X2056794Y108091D01*
X2056720Y108155D01*
X2056711Y108165D01*
X2056693Y108193D01*
X2056665Y108239D01*
X2056628Y108303D01*
X2056591Y108377D01*
X2056563Y108470D01*
X2056545Y108581D01*
X2056535Y108701D01*
Y108710D01*
Y108747D01*
X2056545Y108803D01*
X2056554Y108867D01*
X2056572Y108951D01*
X2056600Y109025D01*
X2056637Y109108D01*
X2056683Y109191D01*
X2056693Y109200D01*
X2056711Y109228D01*
X2056739Y109265D01*
X2056785Y109302D01*
X2056840Y109357D01*
X2056914Y109404D01*
X2056998Y109450D01*
X2057090Y109487D01*
X2057099D01*
X2057146Y109505D01*
X2057220Y109515D01*
X2057266Y109524D01*
X2057330Y109533D01*
X2057395Y109542D01*
X2057478Y109552D01*
X2057571Y109561D01*
X2057682D01*
X2057793Y109570D01*
X2057922Y109579D01*
X2059263D01*
Y107869D01*
D02*
G37*
%LPC*%
G36*
X2151704Y65194D02*
X2150308D01*
X2148681Y60461D01*
X2147118Y65194D01*
X2148386D01*
X2145741D01*
Y58796D01*
Y65194D01*
X2148015Y58796D01*
X2151704D01*
X2149411D01*
X2151704Y65194D01*
D01*
D02*
G37*
G36*
X2145315Y65314D02*
X2139749D01*
Y58685D01*
Y60747D01*
X2139759Y60710D01*
X2139777Y60655D01*
X2139805Y60581D01*
X2139842Y60498D01*
X2139879Y60396D01*
X2139925Y60285D01*
X2139981Y60165D01*
X2140110Y59915D01*
X2140276Y59656D01*
X2140480Y59407D01*
X2140591Y59296D01*
X2140711Y59194D01*
X2140720Y59185D01*
X2140739Y59175D01*
X2140776Y59148D01*
X2140831Y59111D01*
X2140896Y59074D01*
X2140979Y59037D01*
X2141072Y58991D01*
X2141173Y58944D01*
X2141293Y58889D01*
X2141423Y58843D01*
X2141562Y58806D01*
X2141709Y58769D01*
X2141867Y58732D01*
X2142042Y58704D01*
X2142218Y58695D01*
X2142412Y58685D01*
X2139749D01*
X2142468D01*
X2142532Y58695D01*
X2142625Y58704D01*
X2142726Y58713D01*
X2142856Y58732D01*
X2142995Y58759D01*
X2143152Y58796D01*
X2143309Y58843D01*
X2143475Y58898D01*
X2143651Y58972D01*
X2143827Y59055D01*
X2144002Y59148D01*
X2144178Y59268D01*
X2144344Y59397D01*
X2144502Y59555D01*
X2144511Y59564D01*
X2144539Y59591D01*
X2144576Y59647D01*
X2144631Y59712D01*
X2144687Y59804D01*
X2144761Y59906D01*
X2144834Y60035D01*
X2144908Y60183D01*
X2144982Y60340D01*
X2145056Y60516D01*
X2145130Y60719D01*
X2145186Y60932D01*
X2145241Y61154D01*
X2145278Y61404D01*
X2145306Y61663D01*
X2145315Y61940D01*
Y62014D01*
X2145306Y62097D01*
Y62208D01*
X2145288Y62337D01*
X2145269Y62495D01*
X2145251Y62661D01*
X2145214Y62855D01*
X2145167Y63049D01*
X2145112Y63253D01*
X2145047Y63456D01*
X2144964Y63669D01*
X2144872Y63872D01*
X2144761Y64066D01*
X2144640Y64251D01*
X2144492Y64427D01*
X2144483Y64436D01*
X2144456Y64464D01*
X2144409Y64510D01*
X2144344Y64566D01*
X2144261Y64630D01*
X2144160Y64704D01*
X2144049Y64788D01*
X2143910Y64871D01*
X2143762Y64954D01*
X2143605Y65037D01*
X2143420Y65111D01*
X2143235Y65176D01*
X2143022Y65231D01*
X2142810Y65278D01*
X2142569Y65305D01*
X2142329Y65314D01*
X2145315D01*
D02*
G37*
G36*
X2138862D02*
X2133296D01*
Y58685D01*
Y60747D01*
X2133305Y60710D01*
X2133324Y60655D01*
X2133351Y60581D01*
X2133389Y60498D01*
X2133425Y60396D01*
X2133472Y60285D01*
X2133527Y60165D01*
X2133657Y59915D01*
X2133823Y59656D01*
X2134026Y59407D01*
X2134137Y59296D01*
X2134258Y59194D01*
X2134267Y59185D01*
X2134285Y59175D01*
X2134322Y59148D01*
X2134378Y59111D01*
X2134442Y59074D01*
X2134526Y59037D01*
X2134618Y58991D01*
X2134720Y58944D01*
X2134840Y58889D01*
X2134969Y58843D01*
X2135108Y58806D01*
X2135256Y58769D01*
X2135413Y58732D01*
X2135589Y58704D01*
X2135765Y58695D01*
X2135959Y58685D01*
X2133296D01*
X2136014D01*
X2136079Y58695D01*
X2136171Y58704D01*
X2136273Y58713D01*
X2136402Y58732D01*
X2136541Y58759D01*
X2136698Y58796D01*
X2136856Y58843D01*
X2137022Y58898D01*
X2137198Y58972D01*
X2137373Y59055D01*
X2137549Y59148D01*
X2137725Y59268D01*
X2137891Y59397D01*
X2138048Y59555D01*
X2138058Y59564D01*
X2138085Y59591D01*
X2138122Y59647D01*
X2138178Y59712D01*
X2138233Y59804D01*
X2138307Y59906D01*
X2138381Y60035D01*
X2138455Y60183D01*
X2138529Y60340D01*
X2138603Y60516D01*
X2138677Y60719D01*
X2138732Y60932D01*
X2138788Y61154D01*
X2138825Y61404D01*
X2138853Y61663D01*
X2138862Y61940D01*
Y62014D01*
X2138853Y62097D01*
Y62208D01*
X2138834Y62337D01*
X2138816Y62495D01*
X2138797Y62661D01*
X2138760Y62855D01*
X2138714Y63049D01*
X2138658Y63253D01*
X2138594Y63456D01*
X2138510Y63669D01*
X2138418Y63872D01*
X2138307Y64066D01*
X2138187Y64251D01*
X2138039Y64427D01*
X2138030Y64436D01*
X2138002Y64464D01*
X2137956Y64510D01*
X2137891Y64566D01*
X2137808Y64630D01*
X2137706Y64704D01*
X2137595Y64788D01*
X2137457Y64871D01*
X2137309Y64954D01*
X2137151Y65037D01*
X2136967Y65111D01*
X2136782Y65176D01*
X2136569Y65231D01*
X2136356Y65278D01*
X2136116Y65305D01*
X2135876Y65314D01*
X2138862D01*
D02*
G37*
%LPD*%
G36*
X2142135Y65305D02*
X2142033Y65296D01*
X2141922Y65278D01*
X2141793Y65259D01*
X2141654Y65231D01*
X2141506Y65194D01*
X2141349Y65148D01*
X2141192Y65093D01*
X2141025Y65019D01*
X2140868Y64945D01*
X2140720Y64852D01*
X2140563Y64741D01*
X2140424Y64621D01*
X2140415D01*
X2140406Y64603D01*
X2140378Y64575D01*
X2140350Y64547D01*
X2140313Y64501D01*
X2140276Y64445D01*
X2140175Y64316D01*
X2140073Y64150D01*
X2139962Y63946D01*
X2139860Y63715D01*
X2139768Y63447D01*
X2141044Y63142D01*
Y63151D01*
X2141053Y63160D01*
Y63188D01*
X2141072Y63225D01*
X2141099Y63308D01*
X2141145Y63419D01*
X2141210Y63549D01*
X2141293Y63678D01*
X2141404Y63808D01*
X2141525Y63918D01*
X2141543Y63928D01*
X2141589Y63965D01*
X2141663Y64011D01*
X2141765Y64066D01*
X2141894Y64122D01*
X2142042Y64168D01*
X2142209Y64205D01*
X2142394Y64214D01*
X2142458D01*
X2142514Y64205D01*
X2142569Y64196D01*
X2142643Y64187D01*
X2142800Y64150D01*
X2142985Y64085D01*
X2143180Y63992D01*
X2143281Y63937D01*
X2143374Y63872D01*
X2143466Y63789D01*
X2143549Y63696D01*
Y63687D01*
X2143568Y63669D01*
X2143586Y63641D01*
X2143614Y63595D01*
X2143651Y63539D01*
X2143688Y63475D01*
X2143725Y63391D01*
X2143762Y63299D01*
X2143808Y63188D01*
X2143845Y63068D01*
X2143882Y62929D01*
X2143919Y62781D01*
X2143947Y62615D01*
X2143965Y62439D01*
X2143975Y62245D01*
X2143984Y62032D01*
Y62023D01*
Y61977D01*
Y61912D01*
X2143975Y61838D01*
Y61736D01*
X2143956Y61616D01*
X2143947Y61496D01*
X2143929Y61357D01*
X2143873Y61071D01*
X2143799Y60784D01*
X2143753Y60645D01*
X2143688Y60516D01*
X2143623Y60396D01*
X2143549Y60294D01*
X2143540Y60285D01*
X2143531Y60276D01*
X2143503Y60248D01*
X2143466Y60211D01*
X2143374Y60137D01*
X2143244Y60044D01*
X2143087Y59943D01*
X2142893Y59869D01*
X2142671Y59804D01*
X2142551Y59795D01*
X2142421Y59786D01*
X2142375D01*
X2142338Y59795D01*
X2142236Y59804D01*
X2142116Y59823D01*
X2141987Y59869D01*
X2141839Y59924D01*
X2141691Y59998D01*
X2141543Y60109D01*
X2141525Y60128D01*
X2141478Y60174D01*
X2141414Y60248D01*
X2141340Y60359D01*
X2141247Y60507D01*
X2141164Y60683D01*
X2141081Y60895D01*
X2141007Y61145D01*
X2139749Y60756D01*
Y65314D01*
X2142218D01*
X2142135Y65305D01*
D02*
G37*
G36*
X2135681D02*
X2135580Y65296D01*
X2135469Y65278D01*
X2135339Y65259D01*
X2135201Y65231D01*
X2135053Y65194D01*
X2134895Y65148D01*
X2134738Y65093D01*
X2134572Y65019D01*
X2134415Y64945D01*
X2134267Y64852D01*
X2134110Y64741D01*
X2133971Y64621D01*
X2133962D01*
X2133952Y64603D01*
X2133925Y64575D01*
X2133897Y64547D01*
X2133860Y64501D01*
X2133823Y64445D01*
X2133721Y64316D01*
X2133620Y64150D01*
X2133509Y63946D01*
X2133407Y63715D01*
X2133315Y63447D01*
X2134590Y63142D01*
Y63151D01*
X2134600Y63160D01*
Y63188D01*
X2134618Y63225D01*
X2134646Y63308D01*
X2134692Y63419D01*
X2134757Y63549D01*
X2134840Y63678D01*
X2134951Y63808D01*
X2135071Y63918D01*
X2135090Y63928D01*
X2135136Y63965D01*
X2135210Y64011D01*
X2135312Y64066D01*
X2135441Y64122D01*
X2135589Y64168D01*
X2135755Y64205D01*
X2135940Y64214D01*
X2136005D01*
X2136060Y64205D01*
X2136116Y64196D01*
X2136190Y64187D01*
X2136347Y64150D01*
X2136532Y64085D01*
X2136726Y63992D01*
X2136828Y63937D01*
X2136920Y63872D01*
X2137013Y63789D01*
X2137096Y63696D01*
Y63687D01*
X2137114Y63669D01*
X2137133Y63641D01*
X2137161Y63595D01*
X2137198Y63539D01*
X2137235Y63475D01*
X2137272Y63391D01*
X2137309Y63299D01*
X2137355Y63188D01*
X2137392Y63068D01*
X2137429Y62929D01*
X2137466Y62781D01*
X2137493Y62615D01*
X2137512Y62439D01*
X2137521Y62245D01*
X2137531Y62032D01*
Y62023D01*
Y61977D01*
Y61912D01*
X2137521Y61838D01*
Y61736D01*
X2137503Y61616D01*
X2137493Y61496D01*
X2137475Y61357D01*
X2137420Y61071D01*
X2137346Y60784D01*
X2137299Y60645D01*
X2137235Y60516D01*
X2137170Y60396D01*
X2137096Y60294D01*
X2137087Y60285D01*
X2137077Y60276D01*
X2137050Y60248D01*
X2137013Y60211D01*
X2136920Y60137D01*
X2136791Y60044D01*
X2136634Y59943D01*
X2136440Y59869D01*
X2136218Y59804D01*
X2136097Y59795D01*
X2135968Y59786D01*
X2135922D01*
X2135885Y59795D01*
X2135783Y59804D01*
X2135663Y59823D01*
X2135533Y59869D01*
X2135385Y59924D01*
X2135238Y59998D01*
X2135090Y60109D01*
X2135071Y60128D01*
X2135025Y60174D01*
X2134960Y60248D01*
X2134886Y60359D01*
X2134794Y60507D01*
X2134711Y60683D01*
X2134627Y60895D01*
X2134553Y61145D01*
X2133296Y60756D01*
Y65314D01*
X2135765D01*
X2135681Y65305D01*
D02*
G37*
%LPC*%
G36*
X2146429Y113217D02*
Y111600D01*
X2146420D01*
X2146410Y111609D01*
X2146382Y111618D01*
X2146346Y111627D01*
X2146253Y111673D01*
X2146124Y111729D01*
X2145966Y111803D01*
X2145791Y111905D01*
X2145597Y112034D01*
X2145393Y112182D01*
X2145384Y112191D01*
X2145365Y112200D01*
X2145338Y112228D01*
X2145301Y112265D01*
X2145199Y112358D01*
X2145088Y112478D01*
X2144959Y112626D01*
X2144829Y112811D01*
X2144709Y113005D01*
X2144617Y113217D01*
X2146429D01*
X2143618D01*
Y106783D01*
X2146429D01*
X2144848D01*
Y111415D01*
X2144857Y111405D01*
X2144875Y111387D01*
X2144913Y111359D01*
X2144968Y111313D01*
X2145033Y111257D01*
X2145107Y111202D01*
X2145199Y111137D01*
X2145301Y111063D01*
X2145412Y110989D01*
X2145532Y110915D01*
X2145661Y110832D01*
X2145800Y110758D01*
X2146096Y110619D01*
X2146429Y110490D01*
Y113217D01*
D02*
G37*
G36*
X2159382Y113181D02*
X2153631D01*
Y106783D01*
Y113181D01*
X2156497D01*
X2156414Y113171D01*
X2156312D01*
X2156211Y113162D01*
X2156090D01*
X2155850Y113134D01*
X2155600Y113106D01*
X2155369Y113060D01*
X2155267Y113033D01*
X2155175Y113005D01*
X2155166D01*
X2155157Y112996D01*
X2155101Y112968D01*
X2155018Y112922D01*
X2154907Y112866D01*
X2154787Y112774D01*
X2154667Y112672D01*
X2154546Y112542D01*
X2154435Y112385D01*
Y112376D01*
X2154426Y112367D01*
X2154408Y112339D01*
X2154389Y112311D01*
X2154343Y112219D01*
X2154288Y112099D01*
X2154241Y111951D01*
X2154195Y111784D01*
X2154158Y111590D01*
X2154149Y111387D01*
Y111378D01*
Y111359D01*
Y111313D01*
X2154158Y111267D01*
Y111202D01*
X2154167Y111137D01*
X2154204Y110971D01*
X2154250Y110777D01*
X2154324Y110583D01*
X2154435Y110379D01*
X2154500Y110287D01*
X2154574Y110194D01*
X2154583Y110185D01*
X2154593Y110176D01*
X2154620Y110148D01*
X2154657Y110120D01*
X2154694Y110083D01*
X2154750Y110037D01*
X2154814Y109991D01*
X2154888Y109944D01*
X2154972Y109889D01*
X2155073Y109843D01*
X2155175Y109797D01*
X2155286Y109750D01*
X2155415Y109704D01*
X2155545Y109667D01*
X2155684Y109630D01*
X2155841Y109602D01*
X2155831D01*
X2155822Y109593D01*
X2155767Y109556D01*
X2155693Y109510D01*
X2155600Y109445D01*
X2155489Y109362D01*
X2155379Y109279D01*
X2155258Y109177D01*
X2155157Y109066D01*
X2155147Y109057D01*
X2155101Y109011D01*
X2155046Y108937D01*
X2154962Y108826D01*
X2154852Y108687D01*
X2154796Y108595D01*
X2154731Y108502D01*
X2154657Y108400D01*
X2154583Y108290D01*
X2154500Y108160D01*
X2154417Y108031D01*
X2153631Y106783D01*
X2155184D01*
X2156109Y108169D01*
X2156118Y108179D01*
X2156127Y108206D01*
X2156155Y108243D01*
X2156192Y108290D01*
X2156229Y108345D01*
X2156275Y108419D01*
X2156377Y108567D01*
X2156497Y108733D01*
X2156608Y108881D01*
X2156710Y109020D01*
X2156756Y109066D01*
X2156793Y109112D01*
X2156802Y109122D01*
X2156821Y109140D01*
X2156858Y109177D01*
X2156904Y109223D01*
X2156969Y109260D01*
X2157034Y109307D01*
X2157107Y109344D01*
X2157181Y109381D01*
X2157191D01*
X2157218Y109390D01*
X2157265Y109408D01*
X2157339Y109417D01*
X2157431Y109436D01*
X2157542Y109445D01*
X2157671Y109454D01*
X2158087D01*
Y106783D01*
X2159382D01*
Y113181D01*
D02*
G37*
G36*
X2152928D02*
X2147575D01*
Y106783D01*
Y108558D01*
X2147585Y108475D01*
X2147603Y108364D01*
X2147621Y108234D01*
X2147658Y108086D01*
X2147714Y107938D01*
X2147779Y107781D01*
X2147788Y107763D01*
X2147816Y107716D01*
X2147862Y107642D01*
X2147926Y107550D01*
X2148000Y107439D01*
X2148102Y107337D01*
X2148204Y107226D01*
X2148333Y107125D01*
X2148352Y107115D01*
X2148398Y107088D01*
X2148472Y107041D01*
X2148574Y106995D01*
X2148703Y106940D01*
X2148851Y106894D01*
X2149017Y106847D01*
X2149202Y106819D01*
X2149239D01*
X2149276Y106810D01*
X2149369D01*
X2149434Y106801D01*
X2149609D01*
X2149720Y106792D01*
X2149998D01*
X2150155Y106783D01*
X2152928D01*
Y113181D01*
D02*
G37*
%LPD*%
G36*
X2158087Y110471D02*
X2156830D01*
X2156645Y110481D01*
X2156451Y110490D01*
X2156257Y110499D01*
X2156174Y110508D01*
X2156100Y110518D01*
X2156026Y110536D01*
X2155979Y110546D01*
X2155970D01*
X2155943Y110564D01*
X2155896Y110583D01*
X2155850Y110610D01*
X2155730Y110693D01*
X2155674Y110749D01*
X2155619Y110814D01*
X2155610Y110823D01*
X2155600Y110851D01*
X2155573Y110888D01*
X2155545Y110943D01*
X2155526Y111017D01*
X2155499Y111100D01*
X2155489Y111193D01*
X2155480Y111294D01*
Y111313D01*
Y111350D01*
X2155489Y111405D01*
X2155499Y111479D01*
X2155526Y111562D01*
X2155554Y111646D01*
X2155600Y111738D01*
X2155656Y111812D01*
X2155665Y111821D01*
X2155684Y111849D01*
X2155730Y111877D01*
X2155785Y111923D01*
X2155850Y111969D01*
X2155933Y112006D01*
X2156035Y112043D01*
X2156146Y112071D01*
X2156155D01*
X2156183Y112080D01*
X2156238D01*
X2156322Y112090D01*
X2156525D01*
X2156608Y112099D01*
X2158087D01*
Y110471D01*
D02*
G37*
G36*
X2151634Y110638D02*
X2150395D01*
X2150238Y110647D01*
X2149951D01*
X2149896Y110656D01*
X2149840D01*
X2149803Y110666D01*
X2149748Y110675D01*
X2149665Y110703D01*
X2149581Y110730D01*
X2149498Y110767D01*
X2149415Y110814D01*
X2149341Y110878D01*
X2149332Y110888D01*
X2149313Y110915D01*
X2149276Y110952D01*
X2149239Y111017D01*
X2149212Y111091D01*
X2149175Y111174D01*
X2149156Y111276D01*
X2149147Y111387D01*
Y111396D01*
Y111433D01*
X2149156Y111489D01*
X2149165Y111562D01*
X2149184Y111636D01*
X2149221Y111710D01*
X2149258Y111794D01*
X2149313Y111868D01*
X2149323Y111877D01*
X2149341Y111895D01*
X2149387Y111932D01*
X2149434Y111969D01*
X2149507Y112006D01*
X2149591Y112043D01*
X2149692Y112071D01*
X2149803Y112090D01*
X2149813D01*
X2149850Y112099D01*
X2149951D01*
X2150007Y112108D01*
X2150247D01*
X2150349Y112117D01*
X2151634D01*
Y110638D01*
D02*
G37*
G36*
X2149951Y113171D02*
X2149766Y113162D01*
X2149581Y113153D01*
X2149406Y113134D01*
X2149249Y113116D01*
X2149230D01*
X2149184Y113106D01*
X2149119Y113088D01*
X2149027Y113060D01*
X2148925Y113023D01*
X2148814Y112977D01*
X2148694Y112922D01*
X2148583Y112848D01*
X2148574Y112838D01*
X2148537Y112811D01*
X2148481Y112764D01*
X2148407Y112709D01*
X2148333Y112626D01*
X2148250Y112533D01*
X2148167Y112432D01*
X2148093Y112311D01*
X2148084Y112293D01*
X2148065Y112256D01*
X2148028Y112182D01*
X2147991Y112090D01*
X2147954Y111979D01*
X2147917Y111858D01*
X2147899Y111710D01*
X2147890Y111562D01*
Y111553D01*
Y111544D01*
Y111489D01*
X2147899Y111405D01*
X2147917Y111294D01*
X2147954Y111165D01*
X2147991Y111026D01*
X2148056Y110888D01*
X2148139Y110740D01*
X2148148Y110721D01*
X2148185Y110675D01*
X2148241Y110610D01*
X2148306Y110527D01*
X2148398Y110444D01*
X2148509Y110342D01*
X2148638Y110259D01*
X2148786Y110176D01*
X2148777D01*
X2148759Y110166D01*
X2148731Y110157D01*
X2148694Y110148D01*
X2148583Y110102D01*
X2148454Y110037D01*
X2148315Y109963D01*
X2148158Y109861D01*
X2148019Y109741D01*
X2147890Y109593D01*
X2147880Y109575D01*
X2147843Y109519D01*
X2147788Y109436D01*
X2147732Y109325D01*
X2147677Y109177D01*
X2147621Y109020D01*
X2147585Y108835D01*
X2147575Y108632D01*
Y113181D01*
X2150118D01*
X2149951Y113171D01*
D02*
G37*
G36*
X2151634Y107864D02*
X2150210D01*
X2150072Y107873D01*
X2149924D01*
X2149776Y107883D01*
X2149655Y107892D01*
X2149600D01*
X2149563Y107901D01*
X2149554D01*
X2149517Y107910D01*
X2149461Y107929D01*
X2149397Y107948D01*
X2149323Y107985D01*
X2149239Y108031D01*
X2149165Y108086D01*
X2149091Y108151D01*
X2149082Y108160D01*
X2149064Y108188D01*
X2149036Y108234D01*
X2148999Y108299D01*
X2148962Y108373D01*
X2148934Y108465D01*
X2148916Y108576D01*
X2148907Y108696D01*
Y108706D01*
Y108743D01*
X2148916Y108798D01*
X2148925Y108863D01*
X2148944Y108946D01*
X2148971Y109020D01*
X2149008Y109103D01*
X2149055Y109186D01*
X2149064Y109196D01*
X2149082Y109223D01*
X2149110Y109260D01*
X2149156Y109297D01*
X2149212Y109353D01*
X2149286Y109399D01*
X2149369Y109445D01*
X2149461Y109482D01*
X2149471D01*
X2149517Y109501D01*
X2149591Y109510D01*
X2149637Y109519D01*
X2149702Y109529D01*
X2149766Y109538D01*
X2149850Y109547D01*
X2149942Y109556D01*
X2150053D01*
X2150164Y109565D01*
X2150293Y109575D01*
X2151634D01*
Y107864D01*
D02*
G37*
%LPC*%
G36*
X2097358Y65199D02*
X2094806D01*
X2094732Y65190D01*
X2094556Y65181D01*
X2094362Y65171D01*
X2094159Y65143D01*
X2093965Y65116D01*
X2093789Y65069D01*
X2093780D01*
X2093761Y65060D01*
X2093734Y65051D01*
X2093697Y65042D01*
X2093586Y64996D01*
X2093456Y64931D01*
X2093308Y64848D01*
X2093142Y64746D01*
X2092985Y64626D01*
X2092828Y64478D01*
X2092818D01*
X2092809Y64459D01*
X2092763Y64404D01*
X2092689Y64311D01*
X2092606Y64191D01*
X2092504Y64043D01*
X2092402Y63868D01*
X2092301Y63664D01*
X2092217Y63442D01*
Y63433D01*
X2092208Y63415D01*
X2092199Y63378D01*
X2092180Y63331D01*
X2092171Y63276D01*
X2092153Y63202D01*
X2092134Y63119D01*
X2092106Y63026D01*
X2092088Y62924D01*
X2092070Y62804D01*
X2092051Y62684D01*
X2092042Y62545D01*
X2092014Y62259D01*
X2092005Y61935D01*
Y65199D01*
D01*
D01*
Y61806D01*
X2092014Y61732D01*
Y61658D01*
X2092023Y61565D01*
X2092032Y61464D01*
X2092051Y61251D01*
X2092088Y61029D01*
X2092143Y60798D01*
X2092208Y60576D01*
Y60567D01*
X2092217Y60548D01*
X2092236Y60511D01*
X2092254Y60456D01*
X2092273Y60401D01*
X2092310Y60336D01*
X2092384Y60169D01*
X2092476Y59994D01*
X2092596Y59799D01*
X2092735Y59615D01*
X2092892Y59439D01*
X2092911Y59420D01*
X2092957Y59384D01*
X2093031Y59328D01*
X2093133Y59254D01*
X2093262Y59171D01*
X2093410Y59088D01*
X2093595Y59004D01*
X2093798Y58930D01*
X2093808D01*
X2093817Y58921D01*
X2093845D01*
X2093872Y58912D01*
X2093974Y58893D01*
X2094104Y58866D01*
X2094261Y58838D01*
X2094455Y58819D01*
X2094686Y58810D01*
X2094936Y58801D01*
X2097358D01*
Y65199D01*
D02*
G37*
G36*
X2103811D02*
X2100018D01*
X2102563D01*
X2099919Y60890D01*
Y65199D01*
X2098726D01*
Y58801D01*
X2100021D01*
X2102619Y63017D01*
Y58801D01*
X2103811D01*
Y65199D01*
D02*
G37*
G36*
X2107824Y65319D02*
X2105013D01*
Y58681D01*
D01*
Y59661D01*
X2105032Y59642D01*
X2105060Y59624D01*
X2105087Y59596D01*
X2105134Y59559D01*
X2105180Y59522D01*
X2105309Y59430D01*
X2105485Y59328D01*
X2105688Y59208D01*
X2105919Y59088D01*
X2106197Y58977D01*
X2106206D01*
X2106234Y58967D01*
X2106271Y58949D01*
X2106326Y58930D01*
X2106400Y58912D01*
X2106483Y58884D01*
X2106576Y58857D01*
X2106678Y58829D01*
X2106909Y58773D01*
X2107177Y58727D01*
X2107454Y58690D01*
X2107750Y58681D01*
X2110995D01*
X2107852D01*
X2107916Y58690D01*
X2108009D01*
X2108111Y58699D01*
X2108221Y58718D01*
X2108351Y58736D01*
X2108619Y58783D01*
X2108915Y58857D01*
X2109220Y58958D01*
X2109359Y59023D01*
X2109507Y59097D01*
X2109516Y59106D01*
X2109534Y59115D01*
X2109581Y59143D01*
X2109627Y59180D01*
X2109692Y59217D01*
X2109756Y59272D01*
X2109839Y59337D01*
X2109923Y59411D01*
X2110108Y59578D01*
X2110293Y59790D01*
X2110468Y60031D01*
X2110625Y60308D01*
Y60317D01*
X2110644Y60345D01*
X2110662Y60391D01*
X2110681Y60447D01*
X2110709Y60521D01*
X2110746Y60604D01*
X2110773Y60706D01*
X2110810Y60816D01*
X2110847Y60937D01*
X2110875Y61075D01*
X2110940Y61362D01*
X2110977Y61676D01*
X2110995Y62018D01*
Y62120D01*
X2110986Y62185D01*
Y62277D01*
X2110977Y62379D01*
X2110958Y62490D01*
X2110940Y62619D01*
X2110894Y62888D01*
X2110820Y63193D01*
X2110718Y63498D01*
X2110653Y63646D01*
X2110579Y63794D01*
X2110570Y63803D01*
X2110561Y63831D01*
X2110533Y63868D01*
X2110505Y63923D01*
X2110459Y63988D01*
X2110403Y64062D01*
X2110339Y64145D01*
X2110274Y64237D01*
X2110191Y64330D01*
X2110098Y64432D01*
X2109997Y64533D01*
X2109886Y64635D01*
X2109766Y64727D01*
X2109645Y64829D01*
X2109359Y64996D01*
X2109350D01*
X2109331Y65014D01*
X2109294Y65023D01*
X2109248Y65051D01*
X2109183Y65069D01*
X2109118Y65097D01*
X2109026Y65125D01*
X2108934Y65162D01*
X2108832Y65190D01*
X2108712Y65217D01*
X2108582Y65245D01*
X2108453Y65273D01*
X2108157Y65310D01*
X2107824Y65319D01*
D02*
G37*
%LPD*%
G36*
X2096064Y59883D02*
X2094926D01*
X2094806Y59892D01*
X2094677D01*
X2094547Y59910D01*
X2094427Y59920D01*
X2094325Y59938D01*
X2094307D01*
X2094270Y59957D01*
X2094214Y59975D01*
X2094140Y60003D01*
X2094057Y60040D01*
X2093974Y60086D01*
X2093891Y60142D01*
X2093808Y60206D01*
X2093798Y60216D01*
X2093771Y60243D01*
X2093734Y60290D01*
X2093687Y60354D01*
X2093641Y60437D01*
X2093577Y60539D01*
X2093530Y60669D01*
X2093475Y60816D01*
Y60826D01*
X2093466Y60835D01*
Y60863D01*
X2093456Y60900D01*
X2093438Y60937D01*
X2093429Y60992D01*
X2093401Y61131D01*
X2093382Y61297D01*
X2093355Y61491D01*
X2093345Y61732D01*
X2093336Y61991D01*
Y62000D01*
Y62028D01*
Y62065D01*
Y62111D01*
Y62176D01*
X2093345Y62250D01*
X2093355Y62407D01*
X2093373Y62592D01*
X2093392Y62786D01*
X2093429Y62962D01*
X2093475Y63128D01*
Y63137D01*
X2093484Y63146D01*
X2093503Y63193D01*
X2093530Y63267D01*
X2093567Y63359D01*
X2093623Y63451D01*
X2093687Y63553D01*
X2093761Y63655D01*
X2093845Y63747D01*
X2093854Y63757D01*
X2093882Y63784D01*
X2093937Y63821D01*
X2094002Y63868D01*
X2094094Y63923D01*
X2094196Y63969D01*
X2094307Y64015D01*
X2094436Y64053D01*
X2094446D01*
X2094492Y64062D01*
X2094566Y64071D01*
X2094668Y64089D01*
X2094732D01*
X2094815Y64099D01*
X2094899D01*
X2094991Y64108D01*
X2095102D01*
X2095222Y64117D01*
X2096064D01*
Y59883D01*
D02*
G37*
G36*
X2107630Y65310D02*
X2107528Y65301D01*
X2107408Y65291D01*
X2107278Y65282D01*
X2107140Y65254D01*
X2106844Y65199D01*
X2106539Y65107D01*
X2106382Y65051D01*
X2106234Y64986D01*
X2106095Y64912D01*
X2105966Y64820D01*
X2105956Y64811D01*
X2105938Y64801D01*
X2105901Y64764D01*
X2105855Y64727D01*
X2105799Y64681D01*
X2105744Y64616D01*
X2105679Y64542D01*
X2105605Y64459D01*
X2105531Y64367D01*
X2105457Y64265D01*
X2105383Y64154D01*
X2105318Y64025D01*
X2105244Y63895D01*
X2105189Y63757D01*
X2105134Y63600D01*
X2105096Y63442D01*
X2106382Y63202D01*
Y63211D01*
X2106391Y63220D01*
X2106409Y63276D01*
X2106446Y63359D01*
X2106502Y63470D01*
X2106567Y63590D01*
X2106659Y63710D01*
X2106770Y63831D01*
X2106899Y63942D01*
X2106918Y63951D01*
X2106964Y63988D01*
X2107047Y64034D01*
X2107149Y64080D01*
X2107288Y64136D01*
X2107445Y64173D01*
X2107621Y64210D01*
X2107824Y64219D01*
X2107907D01*
X2107963Y64210D01*
X2108037Y64200D01*
X2108120Y64191D01*
X2108212Y64173D01*
X2108314Y64154D01*
X2108527Y64089D01*
X2108638Y64043D01*
X2108748Y63988D01*
X2108860Y63923D01*
X2108970Y63858D01*
X2109072Y63766D01*
X2109174Y63673D01*
X2109183Y63664D01*
X2109192Y63646D01*
X2109220Y63618D01*
X2109248Y63572D01*
X2109285Y63516D01*
X2109331Y63451D01*
X2109377Y63368D01*
X2109414Y63276D01*
X2109460Y63165D01*
X2109507Y63045D01*
X2109553Y62915D01*
X2109590Y62777D01*
X2109618Y62619D01*
X2109645Y62444D01*
X2109655Y62268D01*
X2109664Y62074D01*
Y62065D01*
Y62028D01*
Y61963D01*
X2109655Y61889D01*
X2109645Y61787D01*
X2109636Y61686D01*
X2109618Y61556D01*
X2109599Y61427D01*
X2109544Y61149D01*
X2109451Y60863D01*
X2109396Y60724D01*
X2109331Y60595D01*
X2109248Y60465D01*
X2109165Y60354D01*
X2109155Y60345D01*
X2109137Y60326D01*
X2109109Y60299D01*
X2109072Y60262D01*
X2109017Y60225D01*
X2108961Y60169D01*
X2108887Y60123D01*
X2108804Y60068D01*
X2108712Y60012D01*
X2108619Y59966D01*
X2108388Y59873D01*
X2108259Y59837D01*
X2108129Y59809D01*
X2107981Y59790D01*
X2107833Y59781D01*
X2107759D01*
X2107685Y59790D01*
X2107574Y59799D01*
X2107454Y59818D01*
X2107316Y59846D01*
X2107168Y59883D01*
X2107020Y59938D01*
X2107010D01*
X2107001Y59948D01*
X2106955Y59966D01*
X2106872Y60003D01*
X2106779Y60049D01*
X2106668Y60105D01*
X2106548Y60169D01*
X2106428Y60243D01*
X2106317Y60326D01*
Y61149D01*
X2107796D01*
Y62231D01*
X2105013D01*
Y65319D01*
X2107713D01*
X2107630Y65310D01*
D02*
G37*
%LPC*%
G36*
X2149189Y89319D02*
X2149078D01*
X2148995Y89310D01*
X2148893Y89301D01*
X2148773Y89291D01*
X2148653Y89273D01*
X2148514Y89254D01*
X2148218Y89190D01*
X2148071Y89143D01*
X2147923Y89097D01*
X2147775Y89032D01*
X2147636Y88959D01*
X2147507Y88875D01*
X2147386Y88783D01*
X2147377Y88774D01*
X2147359Y88755D01*
X2147331Y88727D01*
X2147294Y88690D01*
X2147248Y88635D01*
X2147192Y88570D01*
X2147137Y88496D01*
X2147072Y88413D01*
X2147016Y88311D01*
X2146961Y88210D01*
X2146906Y88090D01*
X2146859Y87960D01*
X2146813Y87831D01*
X2146776Y87683D01*
X2146748Y87535D01*
X2146739Y87368D01*
X2148033Y87322D01*
Y87331D01*
Y87341D01*
X2148052Y87405D01*
X2148071Y87488D01*
X2148107Y87590D01*
X2148154Y87710D01*
X2148218Y87821D01*
X2148302Y87932D01*
X2148394Y88025D01*
X2148403Y88034D01*
X2148440Y88062D01*
X2148505Y88099D01*
X2148598Y88136D01*
X2148708Y88173D01*
X2148847Y88210D01*
X2149014Y88237D01*
X2149208Y88247D01*
X2149300D01*
X2149402Y88237D01*
X2149522Y88219D01*
X2149661Y88191D01*
X2149809Y88145D01*
X2149947Y88090D01*
X2150077Y88006D01*
X2150086Y87997D01*
X2150105Y87978D01*
X2150141Y87951D01*
X2150179Y87905D01*
X2150215Y87849D01*
X2150252Y87775D01*
X2150271Y87701D01*
X2150280Y87609D01*
Y87599D01*
Y87572D01*
X2150271Y87526D01*
X2150252Y87479D01*
X2150234Y87415D01*
X2150206Y87350D01*
X2150160Y87285D01*
X2150095Y87220D01*
X2150086Y87211D01*
X2150040Y87183D01*
X2150012Y87165D01*
X2149966Y87146D01*
X2149920Y87119D01*
X2149855Y87091D01*
X2149781Y87063D01*
X2149698Y87026D01*
X2149596Y86989D01*
X2149494Y86952D01*
X2149365Y86915D01*
X2149226Y86878D01*
X2149078Y86841D01*
X2148912Y86795D01*
X2148903D01*
X2148866Y86786D01*
X2148819Y86777D01*
X2148755Y86758D01*
X2148681Y86740D01*
X2148588Y86712D01*
X2148486Y86684D01*
X2148385Y86656D01*
X2148163Y86582D01*
X2147932Y86509D01*
X2147710Y86425D01*
X2147617Y86379D01*
X2147525Y86333D01*
X2147516D01*
X2147507Y86324D01*
X2147451Y86287D01*
X2147368Y86231D01*
X2147266Y86157D01*
X2147155Y86065D01*
X2147035Y85954D01*
X2146915Y85824D01*
X2146813Y85676D01*
X2146804Y85658D01*
X2146776Y85602D01*
X2146730Y85519D01*
X2146684Y85399D01*
X2146637Y85251D01*
X2146591Y85075D01*
X2146563Y84881D01*
X2146554Y84659D01*
D01*
Y82681D01*
Y84567D01*
X2146563Y84521D01*
X2146573Y84456D01*
X2146591Y84326D01*
X2146628Y84160D01*
X2146684Y83984D01*
X2146767Y83809D01*
X2146869Y83624D01*
Y83615D01*
X2146887Y83605D01*
X2146924Y83550D01*
X2146998Y83457D01*
X2147090Y83356D01*
X2147211Y83236D01*
X2147368Y83125D01*
X2147534Y83014D01*
X2147738Y82912D01*
X2147747D01*
X2147765Y82903D01*
X2147793Y82893D01*
X2147839Y82875D01*
X2147895Y82857D01*
X2147959Y82838D01*
X2148033Y82819D01*
X2148117Y82801D01*
X2148218Y82773D01*
X2148320Y82755D01*
X2148560Y82718D01*
X2148829Y82690D01*
X2149124Y82681D01*
X2149245D01*
X2149328Y82690D01*
X2149430Y82699D01*
X2149541Y82709D01*
X2149670Y82727D01*
X2149809Y82755D01*
X2150114Y82819D01*
X2150271Y82866D01*
X2150419Y82912D01*
X2150576Y82977D01*
X2150724Y83051D01*
X2150863Y83134D01*
X2150992Y83236D01*
X2151001Y83245D01*
X2151020Y83263D01*
X2151057Y83291D01*
X2151094Y83337D01*
X2151149Y83402D01*
X2151205Y83476D01*
X2151270Y83559D01*
X2151334Y83652D01*
X2151399Y83763D01*
X2151464Y83883D01*
X2151528Y84021D01*
X2151593Y84169D01*
X2151639Y84326D01*
X2151695Y84502D01*
X2151732Y84687D01*
X2151759Y84881D01*
X2150502Y85001D01*
Y84992D01*
X2150493Y84974D01*
Y84937D01*
X2150484Y84900D01*
X2150447Y84789D01*
X2150400Y84650D01*
X2150345Y84493D01*
X2150262Y84336D01*
X2150169Y84197D01*
X2150049Y84068D01*
X2150031Y84058D01*
X2149984Y84021D01*
X2149910Y83975D01*
X2149799Y83920D01*
X2149661Y83864D01*
X2149503Y83818D01*
X2149319Y83781D01*
X2149106Y83772D01*
X2149004D01*
X2148893Y83790D01*
X2148755Y83809D01*
X2148607Y83836D01*
X2148450Y83883D01*
X2148302Y83947D01*
X2148172Y84031D01*
X2148154Y84040D01*
X2148117Y84077D01*
X2148071Y84132D01*
X2148006Y84206D01*
X2147950Y84299D01*
X2147895Y84410D01*
X2147858Y84521D01*
X2147849Y84650D01*
Y84659D01*
Y84687D01*
X2147858Y84733D01*
X2147867Y84789D01*
X2147886Y84844D01*
X2147904Y84909D01*
X2147941Y84974D01*
X2147987Y85038D01*
X2147997Y85048D01*
X2148015Y85066D01*
X2148043Y85094D01*
X2148089Y85131D01*
X2148154Y85177D01*
X2148237Y85223D01*
X2148329Y85270D01*
X2148450Y85316D01*
X2148459D01*
X2148496Y85334D01*
X2148560Y85353D01*
X2148607Y85371D01*
X2148662Y85380D01*
X2148727Y85399D01*
X2148801Y85427D01*
X2148884Y85445D01*
X2148977Y85473D01*
X2149088Y85501D01*
X2149208Y85528D01*
X2149337Y85565D01*
X2149485Y85602D01*
X2149494D01*
X2149531Y85612D01*
X2149587Y85630D01*
X2149651Y85649D01*
X2149735Y85676D01*
X2149836Y85704D01*
X2149938Y85741D01*
X2150058Y85778D01*
X2150299Y85871D01*
X2150530Y85982D01*
X2150650Y86037D01*
X2150752Y86102D01*
X2150853Y86166D01*
X2150937Y86231D01*
X2150946Y86240D01*
X2150964Y86259D01*
X2150992Y86287D01*
X2151029Y86324D01*
X2151075Y86379D01*
X2151122Y86444D01*
X2151177Y86509D01*
X2151223Y86592D01*
X2151334Y86786D01*
X2151427Y87008D01*
X2151464Y87128D01*
X2151491Y87248D01*
X2151510Y87387D01*
X2151519Y87526D01*
Y87535D01*
Y87544D01*
Y87572D01*
Y87609D01*
X2151501Y87701D01*
X2151482Y87821D01*
X2151454Y87960D01*
X2151408Y88117D01*
X2151343Y88284D01*
X2151251Y88441D01*
Y88450D01*
X2151242Y88459D01*
X2151196Y88515D01*
X2151140Y88589D01*
X2151048Y88681D01*
X2150937Y88783D01*
X2150798Y88894D01*
X2150641Y88996D01*
X2150456Y89088D01*
X2150447D01*
X2150428Y89097D01*
X2150400Y89107D01*
X2150363Y89125D01*
X2150308Y89143D01*
X2150252Y89162D01*
X2150179Y89180D01*
X2150095Y89208D01*
X2149910Y89245D01*
X2149698Y89282D01*
X2149457Y89310D01*
X2149189Y89319D01*
D02*
G37*
G36*
X2145454Y89199D02*
X2142902D01*
X2142828Y89190D01*
X2142653Y89180D01*
X2142458Y89171D01*
X2142255Y89143D01*
X2142061Y89116D01*
X2141885Y89069D01*
X2141876D01*
X2141857Y89060D01*
X2141830Y89051D01*
X2141793Y89042D01*
X2141682Y88996D01*
X2141552Y88931D01*
X2141404Y88848D01*
X2141238Y88746D01*
X2141081Y88626D01*
X2140924Y88478D01*
X2140914D01*
X2140905Y88459D01*
X2140859Y88404D01*
X2140785Y88311D01*
X2140702Y88191D01*
X2140600Y88043D01*
X2140498Y87868D01*
X2140397Y87664D01*
X2140313Y87442D01*
Y87433D01*
X2140304Y87415D01*
X2140295Y87378D01*
X2140276Y87331D01*
X2140267Y87276D01*
X2140249Y87202D01*
X2140230Y87119D01*
X2140202Y87026D01*
X2140184Y86924D01*
X2140166Y86804D01*
X2140147Y86684D01*
X2140138Y86545D01*
X2140110Y86259D01*
X2140101Y85935D01*
Y85806D01*
X2140110Y85732D01*
Y85658D01*
X2140119Y85565D01*
X2140128Y85464D01*
X2140147Y85251D01*
X2140184Y85029D01*
X2140240Y84798D01*
X2140304Y84576D01*
Y84567D01*
X2140313Y84548D01*
X2140332Y84511D01*
X2140350Y84456D01*
X2140369Y84401D01*
X2140406Y84336D01*
X2140480Y84169D01*
X2140572Y83994D01*
X2140692Y83799D01*
X2140831Y83615D01*
X2140988Y83439D01*
X2141007Y83420D01*
X2141053Y83384D01*
X2141127Y83328D01*
X2141229Y83254D01*
X2141358Y83171D01*
X2141506Y83088D01*
X2141691Y83004D01*
X2141894Y82930D01*
X2141904D01*
X2141913Y82921D01*
X2141941D01*
X2141968Y82912D01*
X2142070Y82893D01*
X2142200Y82866D01*
X2142357Y82838D01*
X2142551Y82819D01*
X2142782Y82810D01*
X2143032Y82801D01*
X2140101D01*
D01*
X2145454D01*
Y89199D01*
D02*
G37*
G36*
X2139657D02*
Y82801D01*
X2137179Y89199D01*
X2139657D01*
X2133241D01*
X2135811D01*
X2133241Y82801D01*
D01*
X2134637D01*
X2135191Y84253D01*
X2137762D01*
X2138289Y82801D01*
X2137108D01*
X2139657D01*
Y89199D01*
D02*
G37*
%LPD*%
G36*
X2144160Y83883D02*
X2143022D01*
X2142902Y83892D01*
X2142773D01*
X2142643Y83911D01*
X2142523Y83920D01*
X2142421Y83938D01*
X2142403D01*
X2142366Y83957D01*
X2142310Y83975D01*
X2142236Y84003D01*
X2142153Y84040D01*
X2142070Y84086D01*
X2141987Y84142D01*
X2141904Y84206D01*
X2141894Y84216D01*
X2141867Y84243D01*
X2141830Y84290D01*
X2141783Y84354D01*
X2141737Y84438D01*
X2141673Y84539D01*
X2141626Y84669D01*
X2141571Y84817D01*
Y84826D01*
X2141562Y84835D01*
Y84863D01*
X2141552Y84900D01*
X2141534Y84937D01*
X2141525Y84992D01*
X2141497Y85131D01*
X2141478Y85297D01*
X2141451Y85492D01*
X2141441Y85732D01*
X2141432Y85991D01*
Y86000D01*
Y86028D01*
Y86065D01*
Y86111D01*
Y86176D01*
X2141441Y86250D01*
X2141451Y86407D01*
X2141469Y86592D01*
X2141488Y86786D01*
X2141525Y86961D01*
X2141571Y87128D01*
Y87137D01*
X2141580Y87146D01*
X2141599Y87193D01*
X2141626Y87267D01*
X2141663Y87359D01*
X2141719Y87451D01*
X2141783Y87553D01*
X2141857Y87655D01*
X2141941Y87747D01*
X2141950Y87757D01*
X2141978Y87784D01*
X2142033Y87821D01*
X2142098Y87868D01*
X2142190Y87923D01*
X2142292Y87969D01*
X2142403Y88015D01*
X2142532Y88053D01*
X2142542D01*
X2142588Y88062D01*
X2142662Y88071D01*
X2142764Y88090D01*
X2142828D01*
X2142911Y88099D01*
X2142995D01*
X2143087Y88108D01*
X2143198D01*
X2143318Y88117D01*
X2144160D01*
Y83883D01*
D02*
G37*
G36*
X2137373Y85334D02*
X2135607D01*
X2136504Y87710D01*
X2137373Y85334D01*
D02*
G37*
%LPC*%
G36*
X2062639Y65199D02*
X2061132D01*
X2059865Y63285D01*
X2058598Y65199D01*
X2057091D01*
X2059098Y62129D01*
X2056897Y58801D01*
X2062842D01*
X2060632Y62129D01*
X2062639Y65199D01*
D02*
G37*
G36*
X2068103D02*
X2063027D01*
Y58801D01*
X2068103D01*
D01*
X2066207D01*
Y64117D01*
X2068103D01*
Y65199D01*
D02*
G37*
G36*
X2056897D02*
D01*
Y58801D01*
Y65199D01*
D02*
G37*
%LPD*%
G36*
X2061289Y58801D02*
X2058450D01*
X2059865Y60964D01*
X2061289Y58801D01*
D02*
G37*
G36*
X2064913D02*
X2063027D01*
Y64117D01*
X2064913D01*
Y58801D01*
D02*
G37*
%LPC*%
G36*
X2083273Y113278D02*
X2083190D01*
X2083125Y113268D01*
X2083042Y113259D01*
X2082959Y113250D01*
X2082857Y113231D01*
X2082755Y113204D01*
X2082524Y113139D01*
X2082404Y113093D01*
X2082275Y113028D01*
X2082154Y112963D01*
X2082043Y112889D01*
X2081923Y112797D01*
X2081821Y112695D01*
X2081812Y112686D01*
X2081803Y112677D01*
X2081775Y112649D01*
X2081748Y112612D01*
X2081674Y112519D01*
X2081590Y112390D01*
X2081507Y112233D01*
X2081442Y112048D01*
X2081387Y111845D01*
X2081378Y111743D01*
X2081369Y111632D01*
Y111623D01*
Y111595D01*
X2081378Y111549D01*
X2081387Y111493D01*
X2081396Y111419D01*
X2081415Y111336D01*
X2081442Y111243D01*
X2081479Y111142D01*
X2081535Y111040D01*
X2081590Y110929D01*
X2081664Y110818D01*
X2081757Y110707D01*
X2081868Y110596D01*
X2081988Y110485D01*
X2082127Y110384D01*
X2082293Y110282D01*
X2082284D01*
X2082265Y110273D01*
X2082238D01*
X2082201Y110254D01*
X2082099Y110226D01*
X2081979Y110171D01*
X2081840Y110097D01*
X2081692Y110005D01*
X2081544Y109884D01*
X2081415Y109746D01*
X2081396Y109727D01*
X2081359Y109672D01*
X2081313Y109589D01*
X2081248Y109468D01*
X2081184Y109330D01*
X2081137Y109154D01*
X2081100Y108969D01*
X2081082Y108757D01*
D01*
D01*
Y106722D01*
Y108673D01*
X2081091Y108618D01*
X2081100Y108544D01*
X2081119Y108461D01*
X2081137Y108359D01*
X2081156Y108257D01*
X2081230Y108035D01*
X2081285Y107915D01*
X2081341Y107786D01*
X2081415Y107666D01*
X2081498Y107545D01*
X2081590Y107425D01*
X2081701Y107314D01*
X2081711Y107305D01*
X2081729Y107286D01*
X2081766Y107259D01*
X2081812Y107222D01*
X2081877Y107176D01*
X2081942Y107129D01*
X2082034Y107074D01*
X2082127Y107018D01*
X2082228Y106963D01*
X2082348Y106907D01*
X2082478Y106861D01*
X2082607Y106815D01*
X2082755Y106778D01*
X2082903Y106750D01*
X2083070Y106732D01*
X2083236Y106722D01*
X2081082D01*
X2085335D01*
D01*
X2083319D01*
X2083384Y106732D01*
X2083458Y106741D01*
X2083541Y106750D01*
X2083634Y106769D01*
X2083745Y106787D01*
X2083967Y106843D01*
X2084207Y106935D01*
X2084336Y106991D01*
X2084447Y107055D01*
X2084568Y107139D01*
X2084678Y107222D01*
X2084688Y107231D01*
X2084706Y107249D01*
X2084734Y107277D01*
X2084771Y107314D01*
X2084817Y107360D01*
X2084863Y107425D01*
X2084919Y107490D01*
X2084974Y107573D01*
X2085030Y107666D01*
X2085094Y107758D01*
X2085196Y107980D01*
X2085279Y108239D01*
X2085316Y108377D01*
X2085335Y108525D01*
X2084151Y108673D01*
Y108664D01*
Y108655D01*
X2084142Y108599D01*
X2084124Y108516D01*
X2084096Y108414D01*
X2084050Y108303D01*
X2084003Y108183D01*
X2083929Y108072D01*
X2083846Y107971D01*
X2083837Y107961D01*
X2083800Y107934D01*
X2083745Y107897D01*
X2083680Y107860D01*
X2083587Y107813D01*
X2083486Y107776D01*
X2083375Y107749D01*
X2083245Y107739D01*
X2083227D01*
X2083181Y107749D01*
X2083116Y107758D01*
X2083023Y107776D01*
X2082922Y107813D01*
X2082820Y107860D01*
X2082709Y107934D01*
X2082607Y108026D01*
X2082598Y108035D01*
X2082561Y108082D01*
X2082524Y108146D01*
X2082469Y108230D01*
X2082422Y108340D01*
X2082376Y108479D01*
X2082348Y108636D01*
X2082339Y108812D01*
Y108821D01*
Y108830D01*
Y108886D01*
X2082348Y108969D01*
X2082367Y109080D01*
X2082404Y109200D01*
X2082450Y109320D01*
X2082515Y109441D01*
X2082598Y109552D01*
X2082607Y109561D01*
X2082644Y109598D01*
X2082700Y109644D01*
X2082765Y109690D01*
X2082857Y109746D01*
X2082959Y109783D01*
X2083070Y109820D01*
X2083199Y109829D01*
X2083292D01*
X2083356Y109820D01*
X2083439Y109810D01*
X2083541Y109792D01*
X2083643Y109764D01*
X2083763Y109736D01*
X2083634Y110726D01*
X2083550D01*
X2083458Y110735D01*
X2083347Y110744D01*
X2083227Y110772D01*
X2083097Y110809D01*
X2082977Y110864D01*
X2082866Y110938D01*
X2082857Y110948D01*
X2082820Y110985D01*
X2082783Y111031D01*
X2082728Y111105D01*
X2082681Y111188D01*
X2082635Y111290D01*
X2082607Y111410D01*
X2082598Y111549D01*
Y111567D01*
Y111604D01*
X2082607Y111660D01*
X2082626Y111734D01*
X2082644Y111817D01*
X2082681Y111900D01*
X2082728Y111992D01*
X2082792Y112066D01*
X2082802Y112076D01*
X2082829Y112094D01*
X2082866Y112131D01*
X2082931Y112168D01*
X2083005Y112196D01*
X2083088Y112233D01*
X2083199Y112251D01*
X2083310Y112261D01*
X2083365D01*
X2083421Y112251D01*
X2083495Y112233D01*
X2083578Y112205D01*
X2083671Y112168D01*
X2083763Y112113D01*
X2083846Y112039D01*
X2083855Y112029D01*
X2083883Y112002D01*
X2083920Y111946D01*
X2083967Y111872D01*
X2084013Y111789D01*
X2084050Y111678D01*
X2084087Y111549D01*
X2084114Y111401D01*
X2085242Y111586D01*
Y111595D01*
X2085233Y111613D01*
Y111641D01*
X2085224Y111687D01*
X2085196Y111789D01*
X2085159Y111928D01*
X2085104Y112076D01*
X2085048Y112233D01*
X2084974Y112381D01*
X2084891Y112519D01*
X2084882Y112538D01*
X2084845Y112575D01*
X2084789Y112640D01*
X2084715Y112723D01*
X2084623Y112806D01*
X2084512Y112899D01*
X2084373Y112991D01*
X2084225Y113074D01*
X2084216D01*
X2084207Y113083D01*
X2084151Y113102D01*
X2084059Y113139D01*
X2083948Y113176D01*
X2083809Y113213D01*
X2083643Y113250D01*
X2083467Y113268D01*
X2083273Y113278D01*
D02*
G37*
G36*
X2091465Y113241D02*
X2088654D01*
X2088488Y113231D01*
X2088303Y113222D01*
X2088118Y113213D01*
X2087942Y113194D01*
X2087785Y113176D01*
X2087766D01*
X2087720Y113167D01*
X2087655Y113148D01*
X2087563Y113120D01*
X2087461Y113083D01*
X2087350Y113037D01*
X2087230Y112982D01*
X2087119Y112908D01*
X2087110Y112899D01*
X2087073Y112871D01*
X2087018Y112824D01*
X2086944Y112769D01*
X2086870Y112686D01*
X2086786Y112593D01*
X2086703Y112492D01*
X2086629Y112372D01*
X2086620Y112353D01*
X2086602Y112316D01*
X2086564Y112242D01*
X2086528Y112150D01*
X2086490Y112039D01*
X2086454Y111918D01*
X2086435Y111770D01*
X2086426Y111623D01*
Y111613D01*
Y111604D01*
Y111549D01*
X2086435Y111465D01*
X2086454Y111355D01*
X2086490Y111225D01*
X2086528Y111086D01*
X2086592Y110948D01*
X2086676Y110800D01*
X2086685Y110781D01*
X2086722Y110735D01*
X2086777Y110670D01*
X2086842Y110587D01*
X2086934Y110504D01*
X2087045Y110402D01*
X2087175Y110319D01*
X2087323Y110236D01*
X2087313D01*
X2087295Y110226D01*
X2087267Y110217D01*
X2087230Y110208D01*
X2087119Y110162D01*
X2086990Y110097D01*
X2086851Y110023D01*
X2086694Y109921D01*
X2086555Y109801D01*
X2086426Y109653D01*
X2086417Y109635D01*
X2086380Y109579D01*
X2086324Y109496D01*
X2086269Y109385D01*
X2086213Y109237D01*
X2086158Y109080D01*
X2086121Y108895D01*
X2086111Y108692D01*
Y113241D01*
D01*
D01*
Y106843D01*
Y108618D01*
X2086121Y108535D01*
X2086139Y108424D01*
X2086158Y108294D01*
X2086195Y108146D01*
X2086250Y107998D01*
X2086315Y107841D01*
X2086324Y107823D01*
X2086352Y107776D01*
X2086398Y107703D01*
X2086463Y107610D01*
X2086537Y107499D01*
X2086638Y107397D01*
X2086740Y107286D01*
X2086870Y107185D01*
X2086888Y107176D01*
X2086934Y107148D01*
X2087008Y107101D01*
X2087110Y107055D01*
X2087239Y107000D01*
X2087387Y106954D01*
X2087554Y106907D01*
X2087739Y106880D01*
X2087776D01*
X2087813Y106870D01*
X2087905D01*
X2087970Y106861D01*
X2088145D01*
X2088257Y106852D01*
X2088534D01*
X2088691Y106843D01*
X2086111D01*
X2091465D01*
Y113241D01*
D02*
G37*
G36*
X2097918D02*
X2092167D01*
Y106843D01*
Y113241D01*
X2095034D01*
X2094950Y113231D01*
X2094849D01*
X2094747Y113222D01*
X2094627D01*
X2094386Y113194D01*
X2094137Y113167D01*
X2093905Y113120D01*
X2093804Y113093D01*
X2093711Y113065D01*
X2093702D01*
X2093693Y113056D01*
X2093637Y113028D01*
X2093554Y112982D01*
X2093443Y112926D01*
X2093323Y112834D01*
X2093203Y112732D01*
X2093083Y112603D01*
X2092972Y112445D01*
Y112436D01*
X2092962Y112427D01*
X2092944Y112399D01*
X2092926Y112372D01*
X2092879Y112279D01*
X2092824Y112159D01*
X2092778Y112011D01*
X2092731Y111845D01*
X2092694Y111650D01*
X2092685Y111447D01*
Y111438D01*
Y111419D01*
Y111373D01*
X2092694Y111327D01*
Y111262D01*
X2092704Y111197D01*
X2092741Y111031D01*
X2092787Y110837D01*
X2092861Y110643D01*
X2092972Y110439D01*
X2093036Y110347D01*
X2093110Y110254D01*
X2093120Y110245D01*
X2093129Y110236D01*
X2093157Y110208D01*
X2093194Y110180D01*
X2093231Y110143D01*
X2093286Y110097D01*
X2093351Y110051D01*
X2093425Y110005D01*
X2093508Y109949D01*
X2093610Y109903D01*
X2093711Y109857D01*
X2093822Y109810D01*
X2093952Y109764D01*
X2094081Y109727D01*
X2094220Y109690D01*
X2094377Y109663D01*
X2094368D01*
X2094359Y109653D01*
X2094303Y109616D01*
X2094229Y109570D01*
X2094137Y109505D01*
X2094026Y109422D01*
X2093915Y109339D01*
X2093795Y109237D01*
X2093693Y109126D01*
X2093684Y109117D01*
X2093637Y109071D01*
X2093582Y108997D01*
X2093499Y108886D01*
X2093388Y108747D01*
X2093332Y108655D01*
X2093268Y108562D01*
X2093194Y108461D01*
X2093120Y108350D01*
X2093036Y108220D01*
X2092953Y108091D01*
X2092167Y106843D01*
X2095688D01*
X2093721D01*
X2094645Y108230D01*
X2094654Y108239D01*
X2094664Y108266D01*
X2094691Y108303D01*
X2094728Y108350D01*
X2094765Y108405D01*
X2094812Y108479D01*
X2094913Y108627D01*
X2095034Y108793D01*
X2095144Y108941D01*
X2095246Y109080D01*
X2095292Y109126D01*
X2095329Y109172D01*
X2095339Y109182D01*
X2095357Y109200D01*
X2095394Y109237D01*
X2095440Y109284D01*
X2095505Y109320D01*
X2095570Y109367D01*
X2095644Y109404D01*
X2095718Y109441D01*
X2095727D01*
X2095755Y109450D01*
X2095801Y109468D01*
X2095875Y109478D01*
X2095967Y109496D01*
X2096078Y109505D01*
X2096208Y109515D01*
X2096624D01*
Y106843D01*
X2097918D01*
Y113241D01*
D02*
G37*
%LPD*%
G36*
X2090170Y110698D02*
X2088931D01*
X2088774Y110707D01*
X2088488D01*
X2088432Y110716D01*
X2088377D01*
X2088340Y110726D01*
X2088284Y110735D01*
X2088201Y110763D01*
X2088118Y110791D01*
X2088035Y110828D01*
X2087951Y110874D01*
X2087877Y110938D01*
X2087868Y110948D01*
X2087850Y110975D01*
X2087813Y111012D01*
X2087776Y111077D01*
X2087748Y111151D01*
X2087711Y111234D01*
X2087693Y111336D01*
X2087683Y111447D01*
Y111456D01*
Y111493D01*
X2087693Y111549D01*
X2087702Y111623D01*
X2087720Y111697D01*
X2087757Y111770D01*
X2087794Y111854D01*
X2087850Y111928D01*
X2087859Y111937D01*
X2087877Y111955D01*
X2087924Y111992D01*
X2087970Y112029D01*
X2088044Y112066D01*
X2088127Y112103D01*
X2088229Y112131D01*
X2088340Y112150D01*
X2088349D01*
X2088386Y112159D01*
X2088488D01*
X2088543Y112168D01*
X2088784D01*
X2088885Y112177D01*
X2090170D01*
Y110698D01*
D02*
G37*
G36*
Y107924D02*
X2088746D01*
X2088608Y107934D01*
X2088460D01*
X2088312Y107943D01*
X2088192Y107952D01*
X2088136D01*
X2088099Y107961D01*
X2088090D01*
X2088053Y107971D01*
X2087998Y107989D01*
X2087933Y108008D01*
X2087859Y108045D01*
X2087776Y108091D01*
X2087702Y108146D01*
X2087628Y108211D01*
X2087619Y108220D01*
X2087600Y108248D01*
X2087572Y108294D01*
X2087535Y108359D01*
X2087498Y108433D01*
X2087471Y108525D01*
X2087452Y108636D01*
X2087443Y108757D01*
Y108766D01*
Y108803D01*
X2087452Y108858D01*
X2087461Y108923D01*
X2087480Y109006D01*
X2087508Y109080D01*
X2087545Y109163D01*
X2087591Y109247D01*
X2087600Y109256D01*
X2087619Y109284D01*
X2087646Y109320D01*
X2087693Y109357D01*
X2087748Y109413D01*
X2087822Y109459D01*
X2087905Y109505D01*
X2087998Y109542D01*
X2088007D01*
X2088053Y109561D01*
X2088127Y109570D01*
X2088173Y109579D01*
X2088238Y109589D01*
X2088303Y109598D01*
X2088386Y109607D01*
X2088478Y109616D01*
X2088589D01*
X2088700Y109626D01*
X2088830Y109635D01*
X2090170D01*
Y107924D01*
D02*
G37*
G36*
X2096624Y110532D02*
X2095366D01*
X2095181Y110541D01*
X2094987Y110550D01*
X2094793Y110559D01*
X2094710Y110569D01*
X2094636Y110578D01*
X2094562Y110596D01*
X2094516Y110606D01*
X2094507D01*
X2094479Y110624D01*
X2094433Y110643D01*
X2094386Y110670D01*
X2094266Y110753D01*
X2094211Y110809D01*
X2094155Y110874D01*
X2094146Y110883D01*
X2094137Y110911D01*
X2094109Y110948D01*
X2094081Y111003D01*
X2094063Y111077D01*
X2094035Y111160D01*
X2094026Y111253D01*
X2094017Y111355D01*
Y111373D01*
Y111410D01*
X2094026Y111465D01*
X2094035Y111539D01*
X2094063Y111623D01*
X2094090Y111706D01*
X2094137Y111798D01*
X2094192Y111872D01*
X2094201Y111882D01*
X2094220Y111909D01*
X2094266Y111937D01*
X2094322Y111983D01*
X2094386Y112029D01*
X2094469Y112066D01*
X2094571Y112103D01*
X2094682Y112131D01*
X2094691D01*
X2094719Y112140D01*
X2094775D01*
X2094858Y112150D01*
X2095061D01*
X2095144Y112159D01*
X2096624D01*
Y110532D01*
D02*
G37*
%LPC*%
G36*
X2023330Y113176D02*
X2019022D01*
Y106741D01*
D01*
Y108932D01*
X2019031Y108877D01*
Y108803D01*
X2019050Y108720D01*
X2019059Y108627D01*
X2019077Y108535D01*
X2019133Y108313D01*
X2019216Y108072D01*
X2019271Y107943D01*
X2019327Y107823D01*
X2019401Y107703D01*
X2019484Y107582D01*
X2019493Y107573D01*
X2019512Y107545D01*
X2019549Y107508D01*
X2019595Y107453D01*
X2019660Y107388D01*
X2019743Y107314D01*
X2019835Y107240D01*
X2019937Y107166D01*
X2020057Y107083D01*
X2020187Y107009D01*
X2020325Y106935D01*
X2020483Y106870D01*
X2020649Y106815D01*
X2020825Y106778D01*
X2021019Y106750D01*
X2021222Y106741D01*
X2021306D01*
X2021370Y106750D01*
X2021444Y106759D01*
X2021537Y106769D01*
X2021629Y106778D01*
X2021740Y106796D01*
X2021962Y106852D01*
X2022211Y106944D01*
X2022332Y106991D01*
X2022452Y107055D01*
X2022563Y107129D01*
X2022674Y107212D01*
X2022683Y107222D01*
X2022702Y107231D01*
X2022729Y107259D01*
X2022766Y107296D01*
X2022803Y107351D01*
X2022859Y107407D01*
X2022905Y107471D01*
X2022960Y107545D01*
X2023025Y107638D01*
X2023081Y107730D01*
X2023182Y107952D01*
X2023275Y108202D01*
X2023302Y108340D01*
X2023330Y108488D01*
D01*
X2022110Y108618D01*
Y108599D01*
X2022101Y108553D01*
X2022082Y108470D01*
X2022054Y108377D01*
X2022017Y108276D01*
X2021962Y108165D01*
X2021888Y108063D01*
X2021805Y107961D01*
X2021796Y107952D01*
X2021759Y107924D01*
X2021703Y107887D01*
X2021629Y107841D01*
X2021546Y107795D01*
X2021444Y107758D01*
X2021324Y107730D01*
X2021204Y107721D01*
X2021185D01*
X2021139Y107730D01*
X2021065Y107739D01*
X2020973Y107758D01*
X2020871Y107795D01*
X2020760Y107850D01*
X2020649Y107934D01*
X2020547Y108035D01*
X2020538Y108054D01*
X2020501Y108091D01*
X2020464Y108165D01*
X2020409Y108276D01*
X2020362Y108405D01*
X2020316Y108562D01*
X2020288Y108757D01*
X2020279Y108978D01*
Y108988D01*
Y109006D01*
Y109034D01*
Y109080D01*
X2020288Y109182D01*
X2020316Y109311D01*
X2020344Y109459D01*
X2020390Y109607D01*
X2020455Y109746D01*
X2020547Y109866D01*
X2020557Y109875D01*
X2020594Y109912D01*
X2020658Y109958D01*
X2020732Y110023D01*
X2020834Y110079D01*
X2020954Y110125D01*
X2021093Y110162D01*
X2021241Y110171D01*
X2021296D01*
X2021333Y110162D01*
X2021426Y110143D01*
X2021555Y110116D01*
X2021703Y110060D01*
X2021860Y109977D01*
X2021943Y109921D01*
X2022027Y109857D01*
X2022110Y109783D01*
X2022193Y109699D01*
X2023182Y109838D01*
X2022554Y113176D01*
X2023330D01*
D01*
D02*
G37*
G36*
X2029525Y113259D02*
X2026714D01*
X2026548Y113250D01*
X2026363Y113241D01*
X2026178Y113231D01*
X2026002Y113213D01*
X2025845Y113194D01*
X2025827D01*
X2025780Y113185D01*
X2025716Y113167D01*
X2025623Y113139D01*
X2025522Y113102D01*
X2025410Y113056D01*
X2025290Y113000D01*
X2025179Y112926D01*
X2025170Y112917D01*
X2025133Y112889D01*
X2025078Y112843D01*
X2025004Y112788D01*
X2024930Y112704D01*
X2024846Y112612D01*
X2024763Y112510D01*
X2024689Y112390D01*
X2024680Y112372D01*
X2024662Y112334D01*
X2024625Y112261D01*
X2024588Y112168D01*
X2024551Y112057D01*
X2024514Y111937D01*
X2024495Y111789D01*
X2024486Y111641D01*
Y111632D01*
Y111623D01*
Y111567D01*
X2024495Y111484D01*
X2024514Y111373D01*
X2024551Y111243D01*
X2024588Y111105D01*
X2024652Y110966D01*
X2024736Y110818D01*
X2024745Y110800D01*
X2024782Y110753D01*
X2024837Y110689D01*
X2024902Y110606D01*
X2024995Y110522D01*
X2025105Y110421D01*
X2025235Y110337D01*
X2025383Y110254D01*
X2025374D01*
X2025355Y110245D01*
X2025327Y110236D01*
X2025290Y110226D01*
X2025179Y110180D01*
X2025050Y110116D01*
X2024911Y110042D01*
X2024754Y109940D01*
X2024615Y109820D01*
X2024486Y109672D01*
X2024477Y109653D01*
X2024440Y109598D01*
X2024384Y109515D01*
X2024329Y109404D01*
X2024273Y109256D01*
X2024218Y109099D01*
X2024181Y108914D01*
X2024172Y108710D01*
Y113259D01*
D01*
D01*
Y106861D01*
Y108636D01*
X2024181Y108553D01*
X2024199Y108442D01*
X2024218Y108313D01*
X2024255Y108165D01*
X2024310Y108017D01*
X2024375Y107860D01*
X2024384Y107841D01*
X2024412Y107795D01*
X2024458Y107721D01*
X2024523Y107628D01*
X2024597Y107518D01*
X2024699Y107416D01*
X2024800Y107305D01*
X2024930Y107203D01*
X2024948Y107194D01*
X2024995Y107166D01*
X2025068Y107120D01*
X2025170Y107074D01*
X2025300Y107018D01*
X2025448Y106972D01*
X2025614Y106926D01*
X2025799Y106898D01*
X2025836D01*
X2025873Y106889D01*
X2025965D01*
X2026030Y106880D01*
X2026206D01*
X2026317Y106870D01*
X2026594D01*
X2026751Y106861D01*
X2024172D01*
X2029525D01*
Y113259D01*
D02*
G37*
G36*
X2035978D02*
X2030228D01*
Y106861D01*
Y113259D01*
X2033094D01*
X2033010Y113250D01*
X2032909D01*
X2032807Y113241D01*
X2032687D01*
X2032446Y113213D01*
X2032197Y113185D01*
X2031966Y113139D01*
X2031864Y113111D01*
X2031772Y113083D01*
X2031762D01*
X2031753Y113074D01*
X2031698Y113046D01*
X2031614Y113000D01*
X2031503Y112945D01*
X2031383Y112852D01*
X2031263Y112751D01*
X2031143Y112621D01*
X2031032Y112464D01*
Y112455D01*
X2031023Y112445D01*
X2031004Y112418D01*
X2030986Y112390D01*
X2030939Y112297D01*
X2030884Y112177D01*
X2030838Y112029D01*
X2030791Y111863D01*
X2030755Y111669D01*
X2030745Y111465D01*
Y111456D01*
Y111438D01*
Y111391D01*
X2030755Y111345D01*
Y111280D01*
X2030764Y111216D01*
X2030801Y111049D01*
X2030847Y110855D01*
X2030921Y110661D01*
X2031032Y110458D01*
X2031096Y110365D01*
X2031171Y110273D01*
X2031180Y110264D01*
X2031189Y110254D01*
X2031217Y110226D01*
X2031254Y110199D01*
X2031291Y110162D01*
X2031346Y110116D01*
X2031411Y110069D01*
X2031485Y110023D01*
X2031568Y109968D01*
X2031670Y109921D01*
X2031772Y109875D01*
X2031882Y109829D01*
X2032012Y109783D01*
X2032141Y109746D01*
X2032280Y109709D01*
X2032437Y109681D01*
X2032428D01*
X2032419Y109672D01*
X2032363Y109635D01*
X2032289Y109589D01*
X2032197Y109524D01*
X2032086Y109441D01*
X2031975Y109357D01*
X2031855Y109256D01*
X2031753Y109145D01*
X2031744Y109136D01*
X2031698Y109089D01*
X2031642Y109015D01*
X2031559Y108904D01*
X2031448Y108766D01*
X2031392Y108673D01*
X2031328Y108581D01*
X2031254Y108479D01*
X2031180Y108368D01*
X2031096Y108239D01*
X2031013Y108109D01*
X2030228Y106861D01*
X2033748D01*
X2031781D01*
X2032705Y108248D01*
X2032715Y108257D01*
X2032724Y108285D01*
X2032751Y108322D01*
X2032789Y108368D01*
X2032825Y108424D01*
X2032872Y108498D01*
X2032973Y108645D01*
X2033094Y108812D01*
X2033204Y108960D01*
X2033306Y109099D01*
X2033353Y109145D01*
X2033389Y109191D01*
X2033399Y109200D01*
X2033417Y109219D01*
X2033454Y109256D01*
X2033500Y109302D01*
X2033565Y109339D01*
X2033630Y109385D01*
X2033704Y109422D01*
X2033778Y109459D01*
X2033787D01*
X2033815Y109468D01*
X2033861Y109487D01*
X2033935Y109496D01*
X2034027Y109515D01*
X2034138Y109524D01*
X2034268Y109533D01*
X2034684D01*
Y106861D01*
X2035978D01*
Y113259D01*
D02*
G37*
%LPD*%
G36*
X2019308Y112029D02*
X2021629D01*
X2021823Y110938D01*
X2021814D01*
X2021805Y110948D01*
X2021749Y110975D01*
X2021666Y111003D01*
X2021564Y111049D01*
X2021435Y111086D01*
X2021296Y111114D01*
X2021139Y111142D01*
X2020982Y111151D01*
X2020899D01*
X2020843Y111142D01*
X2020779Y111133D01*
X2020695Y111123D01*
X2020603Y111105D01*
X2020501Y111077D01*
X2020288Y111003D01*
X2020168Y110957D01*
X2020057Y110901D01*
X2019937Y110828D01*
X2019817Y110744D01*
X2019706Y110652D01*
X2019595Y110550D01*
X2019586Y110541D01*
X2019567Y110522D01*
X2019539Y110485D01*
X2019503Y110439D01*
X2019466Y110384D01*
X2019410Y110310D01*
X2019364Y110226D01*
X2019308Y110134D01*
X2019253Y110032D01*
X2019207Y109912D01*
X2019151Y109783D01*
X2019114Y109653D01*
X2019077Y109505D01*
X2019050Y109348D01*
X2019031Y109182D01*
X2019022Y109006D01*
Y113176D01*
X2019308D01*
Y112029D01*
D02*
G37*
G36*
X2028230Y110716D02*
X2026991D01*
X2026834Y110726D01*
X2026548D01*
X2026492Y110735D01*
X2026437D01*
X2026400Y110744D01*
X2026344Y110753D01*
X2026261Y110781D01*
X2026178Y110809D01*
X2026095Y110846D01*
X2026012Y110892D01*
X2025938Y110957D01*
X2025928Y110966D01*
X2025910Y110994D01*
X2025873Y111031D01*
X2025836Y111096D01*
X2025808Y111170D01*
X2025771Y111253D01*
X2025753Y111355D01*
X2025743Y111465D01*
Y111475D01*
Y111512D01*
X2025753Y111567D01*
X2025762Y111641D01*
X2025780Y111715D01*
X2025817Y111789D01*
X2025854Y111872D01*
X2025910Y111946D01*
X2025919Y111955D01*
X2025938Y111974D01*
X2025984Y112011D01*
X2026030Y112048D01*
X2026104Y112085D01*
X2026187Y112122D01*
X2026289Y112150D01*
X2026400Y112168D01*
X2026409D01*
X2026446Y112177D01*
X2026548D01*
X2026603Y112187D01*
X2026844D01*
X2026945Y112196D01*
X2028230D01*
Y110716D01*
D02*
G37*
G36*
Y107943D02*
X2026807D01*
X2026668Y107952D01*
X2026520D01*
X2026372Y107961D01*
X2026252Y107971D01*
X2026196D01*
X2026159Y107980D01*
X2026150D01*
X2026113Y107989D01*
X2026058Y108008D01*
X2025993Y108026D01*
X2025919Y108063D01*
X2025836Y108109D01*
X2025762Y108165D01*
X2025688Y108230D01*
X2025679Y108239D01*
X2025660Y108266D01*
X2025632Y108313D01*
X2025595Y108377D01*
X2025558Y108451D01*
X2025531Y108544D01*
X2025512Y108655D01*
X2025503Y108775D01*
Y108784D01*
Y108821D01*
X2025512Y108877D01*
X2025522Y108941D01*
X2025540Y109025D01*
X2025568Y109099D01*
X2025605Y109182D01*
X2025651Y109265D01*
X2025660Y109274D01*
X2025679Y109302D01*
X2025706Y109339D01*
X2025753Y109376D01*
X2025808Y109431D01*
X2025882Y109478D01*
X2025965Y109524D01*
X2026058Y109561D01*
X2026067D01*
X2026113Y109579D01*
X2026187Y109589D01*
X2026233Y109598D01*
X2026298Y109607D01*
X2026363Y109616D01*
X2026446Y109626D01*
X2026539Y109635D01*
X2026649D01*
X2026760Y109644D01*
X2026890Y109653D01*
X2028230D01*
Y107943D01*
D02*
G37*
G36*
X2034684Y110550D02*
X2033426D01*
X2033241Y110559D01*
X2033047Y110569D01*
X2032853Y110578D01*
X2032770Y110587D01*
X2032696Y110596D01*
X2032622Y110615D01*
X2032576Y110624D01*
X2032567D01*
X2032539Y110643D01*
X2032493Y110661D01*
X2032446Y110689D01*
X2032326Y110772D01*
X2032271Y110828D01*
X2032215Y110892D01*
X2032206Y110901D01*
X2032197Y110929D01*
X2032169Y110966D01*
X2032141Y111022D01*
X2032123Y111096D01*
X2032095Y111179D01*
X2032086Y111271D01*
X2032077Y111373D01*
Y111391D01*
Y111428D01*
X2032086Y111484D01*
X2032095Y111558D01*
X2032123Y111641D01*
X2032151Y111724D01*
X2032197Y111817D01*
X2032252Y111891D01*
X2032262Y111900D01*
X2032280Y111928D01*
X2032326Y111955D01*
X2032382Y112002D01*
X2032446Y112048D01*
X2032530Y112085D01*
X2032631Y112122D01*
X2032742Y112150D01*
X2032751D01*
X2032779Y112159D01*
X2032835D01*
X2032918Y112168D01*
X2033121D01*
X2033204Y112177D01*
X2034684D01*
Y110550D01*
D02*
G37*
%LPC*%
G36*
X2110704Y89194D02*
X2109308D01*
X2107681Y84461D01*
X2106118Y89194D01*
X2107386D01*
X2104741D01*
Y82796D01*
Y89194D01*
X2107015Y82796D01*
X2110704D01*
X2108411D01*
X2110704Y89194D01*
D01*
D02*
G37*
G36*
X2104315Y89314D02*
X2098749D01*
Y82685D01*
Y84747D01*
X2098759Y84710D01*
X2098777Y84655D01*
X2098805Y84581D01*
X2098842Y84498D01*
X2098879Y84396D01*
X2098925Y84285D01*
X2098981Y84165D01*
X2099110Y83915D01*
X2099276Y83656D01*
X2099480Y83407D01*
X2099591Y83296D01*
X2099711Y83194D01*
X2099720Y83185D01*
X2099739Y83175D01*
X2099776Y83148D01*
X2099831Y83111D01*
X2099896Y83074D01*
X2099979Y83037D01*
X2100072Y82991D01*
X2100173Y82944D01*
X2100293Y82889D01*
X2100423Y82843D01*
X2100562Y82806D01*
X2100710Y82769D01*
X2100867Y82732D01*
X2101042Y82704D01*
X2101218Y82695D01*
X2101412Y82685D01*
X2098749D01*
X2101468D01*
X2101532Y82695D01*
X2101625Y82704D01*
X2101727Y82713D01*
X2101856Y82732D01*
X2101995Y82759D01*
X2102152Y82796D01*
X2102309Y82843D01*
X2102475Y82898D01*
X2102651Y82972D01*
X2102827Y83055D01*
X2103002Y83148D01*
X2103178Y83268D01*
X2103345Y83397D01*
X2103502Y83554D01*
X2103511Y83564D01*
X2103539Y83591D01*
X2103576Y83647D01*
X2103631Y83712D01*
X2103687Y83804D01*
X2103761Y83906D01*
X2103835Y84035D01*
X2103909Y84183D01*
X2103982Y84340D01*
X2104056Y84516D01*
X2104130Y84719D01*
X2104186Y84932D01*
X2104241Y85154D01*
X2104278Y85404D01*
X2104306Y85662D01*
X2104315Y85940D01*
Y86014D01*
X2104306Y86097D01*
Y86208D01*
X2104288Y86337D01*
X2104269Y86495D01*
X2104251Y86661D01*
X2104214Y86855D01*
X2104167Y87049D01*
X2104112Y87253D01*
X2104047Y87456D01*
X2103964Y87669D01*
X2103871Y87872D01*
X2103761Y88066D01*
X2103640Y88251D01*
X2103492Y88427D01*
X2103483Y88436D01*
X2103455Y88464D01*
X2103409Y88510D01*
X2103345Y88566D01*
X2103261Y88630D01*
X2103160Y88704D01*
X2103049Y88787D01*
X2102910Y88871D01*
X2102762Y88954D01*
X2102605Y89037D01*
X2102420Y89111D01*
X2102235Y89176D01*
X2102022Y89231D01*
X2101810Y89277D01*
X2101569Y89305D01*
X2101329Y89314D01*
X2104315D01*
D02*
G37*
G36*
X2097862D02*
X2092296D01*
Y82685D01*
Y84747D01*
X2092305Y84710D01*
X2092324Y84655D01*
X2092352Y84581D01*
X2092388Y84498D01*
X2092425Y84396D01*
X2092472Y84285D01*
X2092527Y84165D01*
X2092657Y83915D01*
X2092823Y83656D01*
X2093026Y83407D01*
X2093137Y83296D01*
X2093257Y83194D01*
X2093267Y83185D01*
X2093285Y83175D01*
X2093322Y83148D01*
X2093378Y83111D01*
X2093442Y83074D01*
X2093526Y83037D01*
X2093618Y82991D01*
X2093720Y82944D01*
X2093840Y82889D01*
X2093969Y82843D01*
X2094108Y82806D01*
X2094256Y82769D01*
X2094413Y82732D01*
X2094589Y82704D01*
X2094765Y82695D01*
X2094959Y82685D01*
X2092296D01*
X2095014D01*
X2095079Y82695D01*
X2095171Y82704D01*
X2095273Y82713D01*
X2095403Y82732D01*
X2095541Y82759D01*
X2095698Y82796D01*
X2095856Y82843D01*
X2096022Y82898D01*
X2096198Y82972D01*
X2096373Y83055D01*
X2096549Y83148D01*
X2096725Y83268D01*
X2096891Y83397D01*
X2097048Y83554D01*
X2097057Y83564D01*
X2097085Y83591D01*
X2097122Y83647D01*
X2097178Y83712D01*
X2097233Y83804D01*
X2097307Y83906D01*
X2097381Y84035D01*
X2097455Y84183D01*
X2097529Y84340D01*
X2097603Y84516D01*
X2097677Y84719D01*
X2097732Y84932D01*
X2097788Y85154D01*
X2097825Y85404D01*
X2097853Y85662D01*
X2097862Y85940D01*
Y86014D01*
X2097853Y86097D01*
Y86208D01*
X2097834Y86337D01*
X2097816Y86495D01*
X2097797Y86661D01*
X2097760Y86855D01*
X2097714Y87049D01*
X2097658Y87253D01*
X2097594Y87456D01*
X2097511Y87669D01*
X2097418Y87872D01*
X2097307Y88066D01*
X2097187Y88251D01*
X2097039Y88427D01*
X2097030Y88436D01*
X2097002Y88464D01*
X2096956Y88510D01*
X2096891Y88566D01*
X2096808Y88630D01*
X2096706Y88704D01*
X2096595Y88787D01*
X2096456Y88871D01*
X2096309Y88954D01*
X2096151Y89037D01*
X2095966Y89111D01*
X2095782Y89176D01*
X2095569Y89231D01*
X2095356Y89277D01*
X2095116Y89305D01*
X2094875Y89314D01*
X2097862D01*
D02*
G37*
%LPD*%
G36*
X2101135Y89305D02*
X2101033Y89296D01*
X2100922Y89277D01*
X2100793Y89259D01*
X2100654Y89231D01*
X2100506Y89194D01*
X2100349Y89148D01*
X2100192Y89093D01*
X2100025Y89019D01*
X2099868Y88945D01*
X2099720Y88852D01*
X2099563Y88741D01*
X2099424Y88621D01*
X2099415D01*
X2099406Y88603D01*
X2099378Y88575D01*
X2099350Y88547D01*
X2099313Y88501D01*
X2099276Y88445D01*
X2099175Y88316D01*
X2099073Y88150D01*
X2098962Y87946D01*
X2098860Y87715D01*
X2098768Y87447D01*
X2100044Y87142D01*
Y87151D01*
X2100053Y87160D01*
Y87188D01*
X2100072Y87225D01*
X2100099Y87308D01*
X2100146Y87419D01*
X2100210Y87549D01*
X2100293Y87678D01*
X2100404Y87808D01*
X2100525Y87918D01*
X2100543Y87928D01*
X2100589Y87965D01*
X2100663Y88011D01*
X2100765Y88066D01*
X2100894Y88122D01*
X2101042Y88168D01*
X2101209Y88205D01*
X2101394Y88214D01*
X2101458D01*
X2101514Y88205D01*
X2101569Y88196D01*
X2101643Y88187D01*
X2101801Y88150D01*
X2101985Y88085D01*
X2102180Y87992D01*
X2102281Y87937D01*
X2102374Y87872D01*
X2102466Y87789D01*
X2102549Y87697D01*
Y87687D01*
X2102568Y87669D01*
X2102586Y87641D01*
X2102614Y87595D01*
X2102651Y87539D01*
X2102688Y87475D01*
X2102725Y87391D01*
X2102762Y87299D01*
X2102808Y87188D01*
X2102845Y87068D01*
X2102882Y86929D01*
X2102919Y86781D01*
X2102947Y86615D01*
X2102965Y86439D01*
X2102975Y86245D01*
X2102984Y86032D01*
Y86023D01*
Y85977D01*
Y85912D01*
X2102975Y85838D01*
Y85737D01*
X2102956Y85616D01*
X2102947Y85496D01*
X2102928Y85357D01*
X2102873Y85071D01*
X2102799Y84784D01*
X2102753Y84646D01*
X2102688Y84516D01*
X2102623Y84396D01*
X2102549Y84294D01*
X2102540Y84285D01*
X2102531Y84276D01*
X2102503Y84248D01*
X2102466Y84211D01*
X2102374Y84137D01*
X2102244Y84045D01*
X2102087Y83943D01*
X2101893Y83869D01*
X2101671Y83804D01*
X2101551Y83795D01*
X2101421Y83786D01*
X2101375D01*
X2101338Y83795D01*
X2101237Y83804D01*
X2101116Y83823D01*
X2100987Y83869D01*
X2100839Y83924D01*
X2100691Y83998D01*
X2100543Y84109D01*
X2100525Y84128D01*
X2100478Y84174D01*
X2100414Y84248D01*
X2100340Y84359D01*
X2100247Y84507D01*
X2100164Y84683D01*
X2100081Y84895D01*
X2100007Y85145D01*
X2098749Y84756D01*
Y89314D01*
X2101218D01*
X2101135Y89305D01*
D02*
G37*
G36*
X2094681D02*
X2094580Y89296D01*
X2094469Y89277D01*
X2094339Y89259D01*
X2094201Y89231D01*
X2094053Y89194D01*
X2093896Y89148D01*
X2093738Y89093D01*
X2093572Y89019D01*
X2093415Y88945D01*
X2093267Y88852D01*
X2093110Y88741D01*
X2092971Y88621D01*
X2092962D01*
X2092952Y88603D01*
X2092925Y88575D01*
X2092897Y88547D01*
X2092860Y88501D01*
X2092823Y88445D01*
X2092721Y88316D01*
X2092620Y88150D01*
X2092509Y87946D01*
X2092407Y87715D01*
X2092314Y87447D01*
X2093590Y87142D01*
Y87151D01*
X2093600Y87160D01*
Y87188D01*
X2093618Y87225D01*
X2093646Y87308D01*
X2093692Y87419D01*
X2093757Y87549D01*
X2093840Y87678D01*
X2093951Y87808D01*
X2094071Y87918D01*
X2094090Y87928D01*
X2094136Y87965D01*
X2094210Y88011D01*
X2094312Y88066D01*
X2094441Y88122D01*
X2094589Y88168D01*
X2094755Y88205D01*
X2094940Y88214D01*
X2095005D01*
X2095060Y88205D01*
X2095116Y88196D01*
X2095190Y88187D01*
X2095347Y88150D01*
X2095532Y88085D01*
X2095726Y87992D01*
X2095828Y87937D01*
X2095920Y87872D01*
X2096013Y87789D01*
X2096096Y87697D01*
Y87687D01*
X2096114Y87669D01*
X2096133Y87641D01*
X2096161Y87595D01*
X2096198Y87539D01*
X2096235Y87475D01*
X2096272Y87391D01*
X2096309Y87299D01*
X2096355Y87188D01*
X2096392Y87068D01*
X2096429Y86929D01*
X2096466Y86781D01*
X2096494Y86615D01*
X2096512Y86439D01*
X2096521Y86245D01*
X2096530Y86032D01*
Y86023D01*
Y85977D01*
Y85912D01*
X2096521Y85838D01*
Y85737D01*
X2096503Y85616D01*
X2096494Y85496D01*
X2096475Y85357D01*
X2096420Y85071D01*
X2096346Y84784D01*
X2096299Y84646D01*
X2096235Y84516D01*
X2096170Y84396D01*
X2096096Y84294D01*
X2096087Y84285D01*
X2096077Y84276D01*
X2096050Y84248D01*
X2096013Y84211D01*
X2095920Y84137D01*
X2095791Y84045D01*
X2095634Y83943D01*
X2095439Y83869D01*
X2095218Y83804D01*
X2095097Y83795D01*
X2094968Y83786D01*
X2094922D01*
X2094885Y83795D01*
X2094783Y83804D01*
X2094663Y83823D01*
X2094533Y83869D01*
X2094386Y83924D01*
X2094238Y83998D01*
X2094090Y84109D01*
X2094071Y84128D01*
X2094025Y84174D01*
X2093960Y84248D01*
X2093886Y84359D01*
X2093794Y84507D01*
X2093711Y84683D01*
X2093627Y84895D01*
X2093553Y85145D01*
X2092296Y84756D01*
Y89314D01*
X2094765D01*
X2094681Y89305D01*
D02*
G37*
D13*
X2002108Y-311828D02*
G03*
X2002108Y-311828I-1000J0D01*
G01*
X2173064Y-212250D02*
G03*
X2173064Y-212250I-1000J0D01*
G01*
X1566470Y-240532D02*
G03*
X1566470Y-240532I-1000J0D01*
G01*
X1750249Y-326877D02*
G03*
X1750249Y-326877I-1000J0D01*
G01*
X1875676Y-352756D02*
G03*
X1875676Y-352756I-1000J0D01*
G01*
X1953904Y2110D02*
X1989904D01*
Y-19890D02*
Y2110D01*
X1953904Y-19890D02*
X1989904D01*
X1953904D02*
Y2110D01*
X1953650Y-44274D02*
Y-22274D01*
Y-44274D02*
X1989650D01*
Y-22274D01*
X1953650D02*
X1989650D01*
X2160558Y401398D02*
X2196558D01*
Y379398D02*
Y401398D01*
X2160558Y379398D02*
X2196558D01*
X2160558D02*
Y401398D01*
X1552330Y132510D02*
X1588330D01*
X1552330D02*
Y154510D01*
X1588330D01*
Y132510D02*
Y154510D01*
X2069262Y-16644D02*
X2091262D01*
X2069262Y-52644D02*
Y-16644D01*
Y-52644D02*
X2091262D01*
Y-16644D01*
X1592208Y154764D02*
X1628208D01*
Y132764D02*
Y154764D01*
X1592208Y132764D02*
X1628208D01*
X1592208D02*
Y154764D01*
X1928978Y-39370D02*
Y-254D01*
X1951076D01*
Y-39370D02*
Y-254D01*
X1928978Y-39370D02*
X1951076D01*
X1583058Y2608D02*
X1608514Y28064D01*
X1567502Y18164D02*
X1583058Y2608D01*
X1567502Y18164D02*
X1592958Y43620D01*
X1608514Y28064D01*
X2126612Y326778D02*
X2148612D01*
Y362778D01*
X2126612D02*
X2148612D01*
X2126612Y326778D02*
Y362778D01*
X1569998Y-191736D02*
Y-155736D01*
X1591998D01*
Y-191736D02*
Y-155736D01*
X1569998Y-191736D02*
X1591998D01*
X1683790Y-273324D02*
Y-237324D01*
X1705790D01*
Y-273324D02*
Y-237324D01*
X1683790Y-273324D02*
X1705790D01*
X1798090Y-311932D02*
Y-275932D01*
X1820090D01*
Y-311932D02*
Y-275932D01*
X1798090Y-311932D02*
X1820090D01*
X1917525Y-246468D02*
X1917525Y-282468D01*
X1917525Y-246468D02*
X1939525Y-246468D01*
X1939525Y-282468D01*
X1917525Y-282468D02*
X1939525Y-282468D01*
X1945816Y85632D02*
Y121632D01*
X1967816D01*
Y85632D02*
Y121632D01*
X1945816Y85632D02*
X1967816D01*
X2065298Y-215358D02*
Y-179358D01*
X2087298D01*
Y-215358D02*
Y-179358D01*
X2065298Y-215358D02*
X2087298D01*
X1707772Y-116772D02*
X1733228Y-91316D01*
X1692216Y-101216D02*
X1707772Y-116772D01*
X1692216Y-101216D02*
X1717672Y-75760D01*
X1733228Y-91316D01*
X1735865Y85632D02*
Y121632D01*
X1757865D01*
Y85632D02*
Y121632D01*
X1735865Y85632D02*
X1757865D01*
X1941046Y288812D02*
X1989046D01*
X1941046Y258812D02*
X1989046D01*
Y286312D02*
Y288812D01*
X1941046Y286312D02*
Y288812D01*
X1989046Y258812D02*
Y261312D01*
X1941046Y258812D02*
Y261312D01*
X2131838Y252488D02*
Y283988D01*
X2006838Y252488D02*
Y283988D01*
X2131838Y158988D02*
Y190488D01*
X2006838Y158988D02*
Y190488D01*
Y283988D02*
X2131838D01*
X2006838Y158988D02*
X2131838D01*
X1991786Y338026D02*
X2095786D01*
X1530868Y80906D02*
X1639118D01*
X1530868D02*
Y92406D01*
Y117906D02*
Y129406D01*
X1639118D01*
X1646368Y88156D02*
Y92406D01*
X1639118Y80906D02*
X1646368Y88156D01*
X1639118Y129406D02*
X1646368Y122156D01*
Y117906D02*
Y122156D01*
X1648206Y-100106D02*
X1713260Y-35052D01*
X1583152D02*
X1648206Y30002D01*
X1713260Y-35052D01*
X1583152D02*
X1648206Y-100106D01*
X1611116Y-175236D02*
Y-172236D01*
X1597616Y-175236D02*
Y-172236D01*
X1726432Y-256824D02*
Y-253824D01*
X1712932Y-256824D02*
Y-253824D01*
X1839716Y-295432D02*
Y-292432D01*
X1826216Y-295432D02*
Y-292432D01*
X1959151Y-265968D02*
Y-262968D01*
X1945651Y-265968D02*
Y-262968D01*
X2106416Y-199112D02*
Y-196112D01*
X2092916Y-199112D02*
Y-196112D01*
X2200188Y-167278D02*
X2203188D01*
X2200188Y-153778D02*
X2203188D01*
X2200441Y-190138D02*
X2203441D01*
X2200441Y-176638D02*
X2203441D01*
D15*
X2205000Y99632D02*
Y124500D01*
X2009500D02*
X2205000D01*
X2009009Y124991D02*
X2009500Y124500D01*
X2009009Y99632D02*
Y124991D01*
X2163009Y49000D02*
Y99632D01*
X2083009Y86005D02*
Y99632D01*
X2122214Y49000D02*
Y99632D01*
X2045005Y49000D02*
Y99632D01*
X2100005Y49000D02*
X2205000D01*
X2009009D02*
X2107000D01*
X2205000D02*
Y99632D01*
X2009009D02*
X2205000D01*
X2083009Y49000D02*
Y86005D01*
X2009009Y72500D02*
X2204500D01*
X2009009Y49000D02*
Y99632D01*
X2065884Y-34036D02*
Y38100D01*
X2063344Y-34036D02*
X2065884D01*
X2063344Y-56388D02*
Y-34036D01*
X2041754Y-56388D02*
X2063344D01*
X2041754D02*
Y-49530D01*
X2017116D02*
X2041754D01*
X2017116Y-56642D02*
Y-49530D01*
X1996034Y-56642D02*
X2017116D01*
X1996034D02*
Y-34798D01*
X1993748D02*
X1996034D01*
X1993748D02*
Y38100D01*
X2065884D01*
X1957504Y306266D02*
X1960904D01*
X1957504Y292666D02*
X1960904D01*
X2121214Y343232D02*
Y346632D01*
X2107614Y343232D02*
Y346632D01*
X1957504Y310192D02*
X1960904D01*
X1957504Y323792D02*
X1960904D01*
X1966467Y-323372D02*
X1993718Y-313453D01*
X1954154Y-289543D02*
X1981405Y-279624D01*
X1993034Y-311574D02*
X1993718Y-313453D01*
X1965783Y-321492D02*
X1966467Y-323372D01*
X1954154Y-289543D02*
X1954838Y-291422D01*
X1981405Y-279624D02*
X1982089Y-281504D01*
X2143461Y-234945D02*
X2165676Y-216304D01*
X2120320Y-207368D02*
X2142536Y-188727D01*
X2164390Y-214772D02*
X2165676Y-216304D01*
X2142175Y-233413D02*
X2143461Y-234945D01*
X2120320Y-207368D02*
X2121606Y-208900D01*
X2142536Y-188727D02*
X2143821Y-190259D01*
X1538152Y-216304D02*
X1560367Y-234945D01*
X1561293Y-188727D02*
X1583508Y-207368D01*
X1560367Y-234945D02*
X1561653Y-233413D01*
X1538152Y-216304D02*
X1539438Y-214772D01*
X1560007Y-190259D02*
X1561293Y-188727D01*
X1582222Y-208900D02*
X1583508Y-207368D01*
X1593866Y-191736D02*
Y-155736D01*
Y-191736D02*
X1614866D01*
Y-155736D01*
X1593866D02*
X1614866D01*
X1715292Y-313453D02*
X1742543Y-323372D01*
X1727605Y-279624D02*
X1754856Y-289543D01*
X1742543Y-323372D02*
X1743227Y-321492D01*
X1715292Y-313453D02*
X1715976Y-311574D01*
X1726921Y-281504D02*
X1727605Y-279624D01*
X1754172Y-291422D02*
X1754856Y-289543D01*
X1709182Y-273324D02*
Y-237324D01*
Y-273324D02*
X1730182D01*
Y-237324D01*
X1709182D02*
X1730182D01*
X1838176Y-351756D02*
X1867176D01*
X1838176Y-315756D02*
X1867176D01*
Y-351756D02*
Y-349756D01*
X1838176Y-351756D02*
Y-349756D01*
Y-317756D02*
Y-315756D01*
X1867176Y-317756D02*
Y-315756D01*
X1822466Y-311932D02*
Y-275932D01*
Y-311932D02*
X1843466D01*
Y-275932D01*
X1822466D02*
X1843466D01*
X1941901Y-282468D02*
Y-246468D01*
Y-282468D02*
X1962901Y-282468D01*
Y-246468D01*
X1941901Y-246468D02*
X1962901Y-246468D01*
X2089166Y-215612D02*
Y-179612D01*
Y-215612D02*
X2110166D01*
Y-179612D01*
X2089166D02*
X2110166D01*
X2183688Y-150028D02*
X2219688D01*
X2183688Y-171028D02*
Y-150028D01*
Y-171028D02*
X2219688D01*
Y-150028D01*
X2183942Y-172888D02*
X2219942D01*
X2183942Y-193888D02*
Y-172888D01*
Y-193888D02*
X2219942D01*
Y-172888D01*
D104*
X1873860Y265684D02*
G03*
X1873860Y265684I-762J0D01*
G01*
X1787881Y245491D02*
X1844284D01*
X1869908D02*
X1926311D01*
Y383921D01*
X1787881D02*
X1844284D01*
X1787881Y245491D02*
Y383921D01*
X1869908D02*
X1926311D01*
D105*
X1998296Y287812D02*
G03*
X1998296Y287812I-1250J0D01*
G01*
X2001588Y188988D02*
G03*
X2001588Y188988I-1250J0D01*
G01*
X2090786Y314526D02*
G03*
X2090786Y314526I-1250J0D01*
G01*
X1723879Y-41239D02*
G03*
X1723879Y-41239I-1250J0D01*
G01*
D106*
X1702118Y-35052D02*
G03*
X1702118Y-35052I-3000J0D01*
G01*
D107*
X1740338Y334100D02*
G03*
X1740338Y334100I-1270J0D01*
G01*
D108*
X1668568Y250100D02*
X1724568D01*
X1668568Y334100D02*
X1724568D01*
M02*
