M48
;Layer_Color=9474304
;FILE_FORMAT=4:4
METRIC,LZ
;TYPE=PLATED
T1F00S00C0.3000
T2F00S00C0.7000
T3F00S00C0.9000
T4F00S00C1.0000
T5F00S00C1.0160
T6F00S00C1.2000
T7F00S00C2.0000
T8F00S00C2.0320
;TYPE=NON_PLATED
T9F00S00C3.0000
%
T01
X02175418Y-00210814
X02062632Y-00187858
X02080262Y-00064043
Y-00055116
X02018792Y-00047498
X02009
X01951482Y-0000127
X01914859Y-00254968
X01989417Y-0027262
X01969961Y-00321489
X01872426Y-0031109
X01867455Y-00354262
X01795424Y-00284432
X01756711Y-0028613
X01708658Y-00314706
X01681124Y-00245824
X0158129Y-00242316
X01588Y-00235
X015825Y-00194
X01567332Y-00164236
X01616456Y-00100838
X01610799Y-00095181
X01653402Y-00085482
X01659059Y-00079825
X01664716Y-00074168
X0165735Y-00032666
X0164719Y-00032766
X0163703Y-00032512
X01627632Y-00032666
X01617218Y-00032258
X01608328Y-00032666
X01672708Y-00116144
X01684528Y00024384
X01677924Y0004318
Y00054102
X01691132Y0004318
X01704848Y00053848
X01712722Y00024384
X01678178Y00291
X01639316Y00296164
Y00305
X01746Y0029972
X01754904Y00299816
Y00325096
X0174732
X01797304Y00261366
X01796796Y00239268
X01803654Y00408
Y00417
X01824736Y00406146
X01909318Y00348742
X01917
X019685Y00337
Y00328
X02060786Y00296
Y00288
X01996694Y00170434
X0197993Y00180848
X01973Y00113
X01966808Y00113096
X01966904Y00094096
X01973Y00094234
X01938528Y00049022
X0194691Y00033274
X01877822Y00042672
X02168902Y00393881
Y00403
X0221869Y0039751
X02073148Y00520551
X01861262Y00537972
X01735Y00466
X01726492
X01624838Y00521155
T02
X01502918Y-00136906
X01567942
T03
X02204991Y00418829
X02151109Y00472711
T04
X01571752Y00329946
Y00355346
Y00380746
Y00406146
X01775816Y00221488
Y00196088
X01801216
X01826616
X01852016
X01877416
X01902816
X01928216
X01953616
Y00221488
X01928216
X01902816
X01877416
X01852016
X01826616
X01801216
X01802072Y00155194
X01776672
X0174732Y00152062
X01827472Y00155194
X01852872
X01878272
X01903672
X01929072
X01903672Y00109982
X01878272
X01852872
X01827472
X01802072
Y0006604
X01827472
X01852872
X01878272
X01903672
X01956508Y0005317
X01571752Y00431546
T05
X0174732Y0005351
X01956508Y00151722
T06
X02116836Y-00164592
X02139534Y-00164646
Y-00037746
X02116836Y-00037846
X02115922Y00306832
X0213862Y00306778
Y00433678
X02115922Y00433578
T07
X0177656Y00482553
X0192656
T08
X02167382Y00012446
X01536446Y00012786
X01536446Y00192786
X02167382Y00192446
T09
X01758534Y-00105096
X01958284
X0195737Y00366328
X0175762
M30
