G04*
G04 #@! TF.GenerationSoftware,Altium Limited,Altium Designer,19.0.15 (446)*
G04*
G04 Layer_Color=8388736*
%FSLAX44Y44*%
%MOMM*%
G71*
G01*
G75*
%ADD25R,0.9000X1.5000*%
%ADD26R,1.5000X0.9000*%
%ADD27R,2.2000X1.7000*%
G04:AMPARAMS|DCode=28|XSize=2.2mm|YSize=1.7mm|CornerRadius=0mm|HoleSize=0mm|Usage=FLASHONLY|Rotation=20.000|XOffset=0mm|YOffset=0mm|HoleType=Round|Shape=Rectangle|*
%AMROTATEDRECTD28*
4,1,4,-0.7429,-1.1750,-1.3244,0.4225,0.7429,1.1750,1.3244,-0.4225,-0.7429,-1.1750,0.0*
%
%ADD28ROTATEDRECTD28*%

G04:AMPARAMS|DCode=29|XSize=2.2mm|YSize=1.7mm|CornerRadius=0mm|HoleSize=0mm|Usage=FLASHONLY|Rotation=160.000|XOffset=0mm|YOffset=0mm|HoleType=Round|Shape=Rectangle|*
%AMROTATEDRECTD29*
4,1,4,1.3244,0.4225,0.7429,-1.1750,-1.3244,-0.4225,-0.7429,1.1750,1.3244,0.4225,0.0*
%
%ADD29ROTATEDRECTD29*%

%ADD30R,1.4000X1.4000*%
%ADD31R,1.7000X1.8000*%
%ADD32R,1.5800X1.1200*%
%ADD33R,1.1000X1.5000*%
%ADD34C,3.2500*%
%ADD35O,1.6000X2.2000*%
%ADD36R,1.7000X2.2000*%
%ADD37C,2.2500*%
%ADD38R,2.2000X1.8000*%
%ADD39C,2.4860*%
%ADD40O,1.7000X2.7000*%
%ADD41R,1.7000X2.7000*%
%ADD42O,2.7000X1.7000*%
%ADD43R,2.2000X2.2000*%
%ADD44C,2.2000*%
G04:AMPARAMS|DCode=45|XSize=2.7mm|YSize=1.4mm|CornerRadius=0mm|HoleSize=0mm|Usage=FLASHONLY|Rotation=45.000|XOffset=0mm|YOffset=0mm|HoleType=Round|Shape=Round|*
%AMOVALD45*
21,1,1.3000,1.4000,0.0000,0.0000,45.0*
1,1,1.4000,-0.4596,-0.4596*
1,1,1.4000,0.4596,0.4596*
%
%ADD45OVALD45*%

G04:AMPARAMS|DCode=46|XSize=2.7mm|YSize=1.4mm|CornerRadius=0mm|HoleSize=0mm|Usage=FLASHONLY|Rotation=45.000|XOffset=0mm|YOffset=0mm|HoleType=Round|Shape=Rectangle|*
%AMROTATEDRECTD46*
4,1,4,-0.4596,-1.4496,-1.4496,-0.4596,0.4596,1.4496,1.4496,0.4596,-0.4596,-1.4496,0.0*
%
%ADD46ROTATEDRECTD46*%

%ADD47C,0.8000*%
D25*
X2197050Y369316D02*
D03*
X2178050D02*
D03*
X1861262Y521970D02*
D03*
X1842262D02*
D03*
D26*
X1608430Y520548D02*
D03*
Y501548D02*
D03*
X2094586Y520802D02*
D03*
Y501802D02*
D03*
D27*
X2168648Y331470D02*
D03*
X2250648D02*
D03*
X1811372Y562610D02*
D03*
X1893372D02*
D03*
D28*
X1725443Y550140D02*
D03*
X1648389Y522095D02*
D03*
D29*
X1973763Y549201D02*
D03*
X2050817Y521155D02*
D03*
D30*
X1708946Y218280D02*
D03*
Y198280D02*
D03*
D31*
X1741446Y208280D02*
D03*
D32*
X2217268Y383692D02*
D03*
Y364592D02*
D03*
D33*
X2237232Y369062D02*
D03*
X2256232D02*
D03*
D34*
X1758534Y-105096D02*
D03*
X1958284D02*
D03*
X1957370Y366328D02*
D03*
X1757620D02*
D03*
D35*
X2116836Y-164592D02*
D03*
Y-37846D02*
D03*
X2115922Y433578D02*
D03*
Y306832D02*
D03*
D36*
X2139534Y-37746D02*
D03*
Y-164646D02*
D03*
X2138620Y306778D02*
D03*
Y433678D02*
D03*
D37*
X1926560Y482553D02*
D03*
X1776560D02*
D03*
D38*
X1956508Y151722D02*
D03*
Y53170D02*
D03*
X1747320Y152062D02*
D03*
Y53510D02*
D03*
D39*
X2167382Y192446D02*
D03*
X2167382Y12446D02*
D03*
X1536446Y192786D02*
D03*
X1536446Y12786D02*
D03*
D40*
X1776672Y155194D02*
D03*
X1802072D02*
D03*
X1827472D02*
D03*
X1852872D02*
D03*
X1878272D02*
D03*
X1903672D02*
D03*
X1802072Y66040D02*
D03*
X1827472D02*
D03*
X1852872D02*
D03*
X1878272D02*
D03*
X1903672D02*
D03*
X1802072Y109982D02*
D03*
X1827472D02*
D03*
X1852872D02*
D03*
X1878272D02*
D03*
X1903672D02*
D03*
D41*
X1929072Y155194D02*
D03*
D42*
X1571752Y329946D02*
D03*
Y355346D02*
D03*
Y380746D02*
D03*
Y406146D02*
D03*
Y431546D02*
D03*
D43*
X1567942Y-136906D02*
D03*
D44*
X1502918D02*
D03*
X1775816Y196088D02*
D03*
X1801216D02*
D03*
X1826616D02*
D03*
X1852016D02*
D03*
X1877416D02*
D03*
X1902816D02*
D03*
X1928216D02*
D03*
X1953616D02*
D03*
X1775816Y221488D02*
D03*
X1801216D02*
D03*
X1826616D02*
D03*
X1852016D02*
D03*
X1877416D02*
D03*
X1902816D02*
D03*
X1928216D02*
D03*
X1953616D02*
D03*
D45*
X2204991Y418829D02*
D03*
D46*
X2151109Y472711D02*
D03*
D47*
X1677924Y43180D02*
D03*
Y54102D02*
D03*
X1691132Y43180D02*
D03*
X1704848Y53848D02*
D03*
X1582500Y-194000D02*
D03*
X2009000Y-47498D02*
D03*
X2168902Y393881D02*
D03*
X1639316Y305000D02*
D03*
X1735000Y466000D02*
D03*
X1803654Y408000D02*
D03*
X1588000Y-235000D02*
D03*
X1917000Y348742D02*
D03*
X2080262Y-64043D02*
D03*
X1726492Y466000D02*
D03*
X2168902Y403000D02*
D03*
X1966808Y113096D02*
D03*
X1973000Y113000D02*
D03*
X1966904Y94096D02*
D03*
X1973000Y94234D02*
D03*
X1754904Y299816D02*
D03*
Y325096D02*
D03*
X2060786Y288000D02*
D03*
Y296000D02*
D03*
X1968500Y328000D02*
D03*
Y337000D02*
D03*
X1747320Y325096D02*
D03*
X1746000Y299720D02*
D03*
X1678178Y291000D02*
D03*
X1617218Y-32258D02*
D03*
X1608328Y-32666D02*
D03*
X1861262Y537972D02*
D03*
X1946910Y33274D02*
D03*
X1877822Y42672D02*
D03*
X2080262Y-55116D02*
D03*
X1647190Y-32766D02*
D03*
X1657350Y-32666D02*
D03*
X1637030Y-32512D02*
D03*
X1803654Y417000D02*
D03*
X1796796Y239268D02*
D03*
X1951482Y-1270D02*
D03*
X1938528Y49022D02*
D03*
X1639316Y296164D02*
D03*
X1989417Y-272620D02*
D03*
X1872426Y-311090D02*
D03*
X1756711Y-286130D02*
D03*
X1681124Y-245824D02*
D03*
X2062632Y-187858D02*
D03*
X1914859Y-254968D02*
D03*
X1795424Y-284432D02*
D03*
X1567332Y-164236D02*
D03*
X1824736Y406146D02*
D03*
X1581290Y-242316D02*
D03*
X2018792Y-47498D02*
D03*
X1909318Y348742D02*
D03*
X2175418Y-210814D02*
D03*
X1969961Y-321489D02*
D03*
X1867455Y-354262D02*
D03*
X1708658Y-314706D02*
D03*
X1996694Y170434D02*
D03*
X1797304Y261366D02*
D03*
X1627632Y-32666D02*
D03*
X1610799Y-95181D02*
D03*
X1653402Y-85482D02*
D03*
X1616456Y-100838D02*
D03*
X1659059Y-79825D02*
D03*
X1672708Y-116144D02*
D03*
X1664716Y-74168D02*
D03*
X1979930Y180848D02*
D03*
X1712722Y24384D02*
D03*
X1684528D02*
D03*
X2073148Y520551D02*
D03*
X1624838Y521155D02*
D03*
X2218690Y397510D02*
D03*
M02*
