G04*
G04 #@! TF.GenerationSoftware,Altium Limited,Altium Designer,19.0.15 (446)*
G04*
G04 Layer_Color=32768*
%FSLAX44Y44*%
%MOMM*%
G71*
G01*
G75*
%ADD15C,0.1270*%
%ADD104C,0.1524*%
%ADD109C,0.1000*%
%ADD113C,0.0500*%
G36*
X2061987Y-33655D02*
X2069313D01*
Y48895D01*
X1989811D01*
Y-33655D01*
X1997137D01*
Y-57150D01*
X2016187D01*
Y-48713D01*
X2042937D01*
Y-57150D01*
X2061987D01*
Y-33655D01*
D02*
G37*
G36*
X1842531Y241681D02*
Y232649D01*
X1871661D01*
Y241681D01*
X1930121D01*
Y387731D01*
X1871661D01*
Y396763D01*
X1842531D01*
Y387731D01*
X1784071D01*
Y241681D01*
X1842531D01*
D02*
G37*
D15*
X1649068Y337100D02*
X1744068D01*
X1649068Y247100D02*
Y337100D01*
Y247100D02*
X1744068D01*
Y337100D01*
D104*
X2061987Y-33655D02*
X2069313D01*
X2061987Y-54864D02*
Y-33655D01*
X2042937Y-54864D02*
X2061987D01*
X2042937D02*
Y-48713D01*
X2016187D02*
X2042937D01*
X2016187Y-55118D02*
Y-48713D01*
X1997137Y-55118D02*
X2016187D01*
X1997137D02*
Y-33655D01*
X1989811D02*
X1997137D01*
X1989811D02*
Y48895D01*
X2069313D01*
Y-33655D02*
Y48895D01*
X1784071Y241681D02*
Y387731D01*
X1842531D01*
X1871661D02*
X1930121D01*
Y241681D02*
Y387731D01*
X1871661Y241681D02*
X1930121D01*
X1784071D02*
X1842531D01*
Y232649D02*
Y241681D01*
Y387731D02*
Y396763D01*
X1871661D01*
Y387731D02*
Y396763D01*
Y232649D02*
Y241681D01*
X1842531Y232649D02*
X1871661D01*
D109*
X1960046Y273812D02*
X1970046D01*
X1965046Y268812D02*
Y278812D01*
X2069338Y216488D02*
Y226488D01*
X2064338Y221488D02*
X2074338D01*
X2038786Y377026D02*
X2048786D01*
X2043786Y372026D02*
Y382026D01*
X1588618Y100156D02*
Y110156D01*
X1583618Y105156D02*
X1593618D01*
X1644670Y-31516D02*
X1651741Y-38588D01*
X1644670Y-38588D02*
X1651741Y-31516D01*
X1599366Y-173736D02*
X1609366D01*
X1604366Y-178736D02*
Y-168736D01*
X1714682Y-255324D02*
X1724682D01*
X1719682Y-260324D02*
Y-250324D01*
X1827966Y-293932D02*
X1837966D01*
X1832966Y-298932D02*
Y-288932D01*
X1947401Y-264468D02*
X1957401D01*
X1952401Y-269468D02*
Y-259468D01*
X2094666Y-197612D02*
X2104666D01*
X2099666Y-202612D02*
Y-192612D01*
X2201687Y-165528D02*
Y-155528D01*
X2196687Y-160528D02*
X2206687D01*
X2201942Y-188388D02*
Y-178388D01*
X2196942Y-183388D02*
X2206942D01*
D113*
X1942554Y290066D02*
X1975854D01*
X1942554Y308866D02*
X1975854D01*
Y290066D02*
Y308866D01*
X1942554Y290066D02*
Y308866D01*
X2105014Y328282D02*
X2123814D01*
X2105014Y361582D02*
X2123814D01*
X2105014Y328282D02*
Y361582D01*
X2123814Y328282D02*
Y361582D01*
X1942554Y326392D02*
X1975854D01*
X1942554Y307592D02*
X1975854D01*
X1942554D02*
Y326392D01*
X1975854Y307592D02*
Y326392D01*
X1997046Y256312D02*
Y291312D01*
X1933046Y256312D02*
Y291312D01*
X1997046D01*
X1933046Y256312D02*
X1997046D01*
X1998088Y286488D02*
X2140588D01*
X1998088Y156488D02*
X2140588D01*
Y286488D01*
X1998088Y156488D02*
Y286488D01*
X1986286Y297276D02*
Y456776D01*
X2101286Y297276D02*
Y456776D01*
X1986286D02*
X2101286D01*
X1986286Y297276D02*
X2101286D01*
X1504118Y70656D02*
X1673118D01*
X1504118Y139656D02*
X1673118D01*
X1504118Y70656D02*
Y139656D01*
X1673118Y70656D02*
Y139656D01*
X1995209Y-271940D02*
X2009232Y-310467D01*
X1938640Y-292529D02*
X1995209Y-271940D01*
X1938640Y-292529D02*
X1952663Y-331057D01*
X2009232Y-310467D01*
X2152879Y-176784D02*
X2179233Y-208192D01*
X2106763Y-215480D02*
X2152879Y-176784D01*
X2106763Y-215480D02*
X2133117Y-246888D01*
X2179233Y-208192D01*
X1648206Y-129097D02*
X1742251Y-35052D01*
X1554161D02*
X1648206Y58993D01*
X1742251Y-35052D01*
X1554161D02*
X1648206Y-129097D01*
X1570711Y-246888D02*
X1597065Y-215480D01*
X1550949Y-176784D02*
X1597065Y-215480D01*
X1524595Y-208192D02*
X1550949Y-176784D01*
X1524595Y-208192D02*
X1570711Y-246888D01*
X1614866Y-191736D02*
Y-155736D01*
X1593866Y-191736D02*
Y-155736D01*
Y-191736D02*
X1614866D01*
X1593866Y-155736D02*
X1614866D01*
X1756347Y-331057D02*
X1770370Y-292529D01*
X1713801Y-271940D02*
X1770370Y-292529D01*
X1699778Y-310467D02*
X1713801Y-271940D01*
X1699778Y-310467D02*
X1756347Y-331057D01*
X1730182Y-273324D02*
Y-237324D01*
X1709182Y-273324D02*
Y-237324D01*
Y-273324D02*
X1730182D01*
X1709182Y-237324D02*
X1730182D01*
X1882776Y-354256D02*
Y-313256D01*
X1822576D02*
X1882776D01*
X1822576Y-354256D02*
Y-313256D01*
Y-354256D02*
X1882776D01*
X1843466Y-311932D02*
Y-275932D01*
X1822466Y-311932D02*
Y-275932D01*
Y-311932D02*
X1843466D01*
X1822466Y-275932D02*
X1843466D01*
X1962901Y-282468D02*
Y-246468D01*
X1941901Y-282468D02*
Y-246468D01*
Y-282468D02*
X1962901D01*
X1941901Y-246468D02*
X1962901Y-246468D01*
X2110166Y-215612D02*
Y-179612D01*
X2089166Y-215612D02*
Y-179612D01*
Y-215612D02*
X2110166D01*
X2089166Y-179612D02*
X2110166D01*
X2183687Y-171028D02*
X2219688D01*
X2183687Y-150028D02*
X2219688D01*
X2183687Y-171028D02*
Y-150028D01*
X2219688Y-171028D02*
Y-150028D01*
X2183941Y-193888D02*
X2219942D01*
X2183941Y-172888D02*
X2219942D01*
X2183941Y-193888D02*
Y-172888D01*
X2219942Y-193888D02*
Y-172888D01*
X1700446Y228780D02*
X1751446D01*
Y187780D02*
Y228780D01*
X1700446Y187780D02*
X1751446D01*
X1700446D02*
Y228780D01*
X2207868Y357492D02*
Y390792D01*
X2226668Y357492D02*
Y390792D01*
X2207868D02*
X2226668D01*
X2207868Y357492D02*
X2226668D01*
M02*
