G04*
G04 #@! TF.GenerationSoftware,Altium Limited,Altium Designer,19.0.15 (446)*
G04*
G04 Layer_Color=16711935*
%FSLAX44Y44*%
%MOMM*%
G71*
G01*
G75*
%ADD10C,0.0127*%
%ADD11C,0.2540*%
%ADD12C,0.2400*%
%ADD13C,0.2000*%
%ADD15C,0.1270*%
%ADD104C,0.1524*%
%ADD107C,0.0000*%
%ADD108C,0.2032*%
%ADD109C,0.1000*%
%ADD110C,0.0254*%
%ADD111R,0.6389X2.9500*%
%ADD112R,1.6813X12.5000*%
G36*
X1658568Y254790D02*
X1668523D01*
Y257850D01*
X1658568D01*
Y254790D01*
D02*
G37*
G36*
Y261257D02*
X1668483D01*
Y264350D01*
X1658568D01*
Y261257D01*
D02*
G37*
G36*
Y267818D02*
X1668531D01*
Y270850D01*
X1658568D01*
Y267818D01*
D02*
G37*
G36*
Y280819D02*
X1668492D01*
Y283850D01*
X1658568D01*
Y280819D01*
D02*
G37*
G36*
Y274330D02*
X1668537D01*
Y277350D01*
X1658568D01*
Y274330D01*
D02*
G37*
G36*
Y287339D02*
X1668506D01*
Y290350D01*
X1658568D01*
Y287339D01*
D02*
G37*
G36*
Y293855D02*
X1668494D01*
Y296850D01*
X1658568D01*
Y293855D01*
D02*
G37*
G36*
Y300370D02*
X1668501D01*
Y303350D01*
X1658568D01*
Y300370D01*
D02*
G37*
G36*
Y306877D02*
X1668517D01*
Y309850D01*
X1658568D01*
Y306877D01*
D02*
G37*
G36*
Y319910D02*
X1668508D01*
Y322850D01*
X1658568D01*
Y319910D01*
D02*
G37*
G36*
Y313362D02*
X1668552D01*
Y316350D01*
X1658568D01*
Y313362D01*
D02*
G37*
G36*
Y326408D02*
X1668521D01*
Y329350D01*
X1658568D01*
Y326408D01*
D02*
G37*
G36*
X1724568Y254775D02*
X1734645D01*
Y257850D01*
X1724568D01*
Y254775D01*
D02*
G37*
G36*
Y261286D02*
X1734647D01*
Y264350D01*
X1724568D01*
Y261286D01*
D02*
G37*
G36*
Y267784D02*
X1734671D01*
Y270850D01*
X1724568D01*
Y267784D01*
D02*
G37*
G36*
Y280828D02*
X1734644D01*
Y283850D01*
X1724568D01*
Y280828D01*
D02*
G37*
G36*
Y274301D02*
X1734672D01*
Y277350D01*
X1724568D01*
Y274301D01*
D02*
G37*
G36*
Y287335D02*
X1734684D01*
Y290350D01*
X1724568D01*
Y287335D01*
D02*
G37*
G36*
Y293853D02*
X1734636D01*
Y296850D01*
X1724568D01*
Y293853D01*
D02*
G37*
G36*
Y300368D02*
X1734651D01*
Y303350D01*
X1724568D01*
Y300368D01*
D02*
G37*
G36*
Y306876D02*
X1734636D01*
Y309850D01*
X1724568D01*
Y306876D01*
D02*
G37*
G36*
Y319899D02*
X1734636D01*
Y322850D01*
X1724568D01*
Y319899D01*
D02*
G37*
G36*
Y313418D02*
X1734689D01*
Y316350D01*
X1724568D01*
Y313418D01*
D02*
G37*
G36*
Y326451D02*
X1734680D01*
Y329350D01*
X1724568D01*
Y326451D01*
D02*
G37*
D10*
X1937872Y482557D02*
G03*
X1937872Y482557I-10000J0D01*
G01*
X1787872D02*
G03*
X1787872Y482557I-10000J0D01*
G01*
D11*
X1595430Y-136906D02*
G03*
X1595430Y-136906I-60000J0D01*
G01*
D12*
X1698689Y223860D02*
G03*
X1698689Y223860I-1200J0D01*
G01*
D13*
X2002108Y-311828D02*
G03*
X2002108Y-311828I-1000J0D01*
G01*
X2173064Y-212250D02*
G03*
X2173064Y-212250I-1000J0D01*
G01*
X1566470Y-240532D02*
G03*
X1566470Y-240532I-1000J0D01*
G01*
X1750249Y-326877D02*
G03*
X1750249Y-326877I-1000J0D01*
G01*
X1875676Y-352756D02*
G03*
X1875676Y-352756I-1000J0D01*
G01*
D15*
X1948704Y292666D02*
X1969704D01*
X1948704Y306266D02*
X1969704D01*
X1948704Y292666D02*
Y306266D01*
X1969704Y292666D02*
Y306266D01*
X2107614Y355432D02*
X2121214D01*
X2107614Y334432D02*
X2121214D01*
X2107614D02*
Y355432D01*
X2121214Y334432D02*
Y355432D01*
X1948704Y323792D02*
X1969704D01*
X1948704Y310192D02*
X1969704D01*
Y323792D01*
X1948704Y310192D02*
Y323792D01*
X1954154Y-289543D02*
X1981405Y-279624D01*
X1954154Y-289543D02*
X1966467Y-323372D01*
X1993718Y-313453D01*
X1981405Y-279624D02*
X1993718Y-313453D01*
X2120320Y-207368D02*
X2142536Y-188727D01*
X2120320Y-207368D02*
X2143461Y-234945D01*
X2165676Y-216304D01*
X2142536Y-188727D02*
X2165676Y-216304D01*
X1561293Y-188727D02*
X1583508Y-207368D01*
X1538152Y-216304D02*
X1561293Y-188727D01*
X1538152Y-216304D02*
X1560367Y-234945D01*
X1583508Y-207368D01*
X1727605Y-279624D02*
X1754856Y-289543D01*
X1715292Y-313453D02*
X1727605Y-279624D01*
X1715292Y-313453D02*
X1742543Y-323372D01*
X1754856Y-289543D01*
X1838176Y-315756D02*
X1867176D01*
X1838176Y-351756D02*
Y-315756D01*
Y-351756D02*
X1867176D01*
Y-315756D01*
X2012798Y-341884D02*
Y239014D01*
X1966316D02*
X2012798D01*
X1691996Y-341884D02*
Y238988D01*
X1966316D01*
X1691996Y-341884D02*
X2012798D01*
X1744946Y190280D02*
Y226280D01*
X1706946Y190280D02*
X1744946D01*
X1706946D02*
Y226280D01*
X1744946D01*
X2210468Y363642D02*
Y384642D01*
X2224068Y363642D02*
Y384642D01*
X2210468Y363642D02*
X2224068D01*
X2210468Y384642D02*
X2224068D01*
D104*
X1718896Y326160D02*
G03*
X1718896Y326160I-3048J0D01*
G01*
D107*
X1857858Y251841D02*
G03*
X1857858Y251841I-762J0D01*
G01*
D108*
X1724568Y250100D02*
Y334100D01*
X1668568Y250100D02*
Y334100D01*
D109*
X1711189Y-35052D02*
G03*
X1711189Y-35052I-5000J0D01*
G01*
X1597366Y-162736D02*
X1611366D01*
X1597366Y-184736D02*
X1611366D01*
X1597366D02*
Y-162736D01*
X1611366Y-184736D02*
Y-162736D01*
X1988796Y259062D02*
Y288562D01*
X1941296Y259062D02*
Y288562D01*
X1988796D01*
X1941296Y259062D02*
X1988796D01*
X2006838Y283988D02*
X2131838D01*
X2006838Y158988D02*
X2131838D01*
X2136410Y154670D02*
Y279670D01*
X2006838Y158988D02*
Y283988D01*
X1991786Y349026D02*
Y437926D01*
X2095786Y349026D02*
Y437926D01*
X1991786D02*
X2095786D01*
X1991786Y349026D02*
X2095786D01*
X1646368Y88156D02*
Y122156D01*
X1639118Y80906D02*
X1646368Y88156D01*
X1530868Y80906D02*
X1639118D01*
X1530868D02*
Y129406D01*
X1639118D01*
X1646368Y122156D01*
X1648206Y-105763D02*
X1718917Y-35052D01*
X1577495D02*
X1648206Y35659D01*
X1718917Y-35052D01*
X1577495D02*
X1648206Y-105763D01*
X1726682Y-266324D02*
Y-244324D01*
X1712682Y-266324D02*
Y-244324D01*
Y-266324D02*
X1726682D01*
X1712682Y-244324D02*
X1726682D01*
X1839966Y-304932D02*
Y-282932D01*
X1825966Y-304932D02*
Y-282932D01*
Y-304932D02*
X1839966D01*
X1825966Y-282932D02*
X1839966D01*
X1959401Y-275468D02*
Y-253468D01*
X1945401Y-275468D02*
X1945401Y-253468D01*
X1945401Y-275468D02*
X1959401Y-275468D01*
X1945401Y-253468D02*
X1959401D01*
X2106666Y-208612D02*
Y-186612D01*
X2092666Y-208612D02*
Y-186612D01*
Y-208612D02*
X2106666D01*
X2092666Y-186612D02*
X2106666D01*
X2190688Y-167528D02*
X2212688D01*
X2190688Y-153528D02*
X2212688D01*
X2190688Y-167528D02*
Y-153528D01*
X2212688Y-167528D02*
Y-153528D01*
X2190941Y-190388D02*
X2212941D01*
X2190941Y-176388D02*
X2212941D01*
X2190941Y-190388D02*
Y-176388D01*
X2212941Y-190388D02*
Y-176388D01*
D110*
X1789151Y246761D02*
X1925041D01*
Y382651D01*
X1789151D02*
X1925041D01*
X1789151Y246761D02*
Y382651D01*
Y280734D02*
X1823123Y246761D01*
X1891069D02*
X1925041Y280734D01*
D111*
X1985601Y273812D02*
D03*
D112*
X2015244Y221488D02*
D03*
M02*
